{"glyphs":{"0":{"ha":1007,"x_min":0,"x_max":0,"o":"m 503 -14 b 968 486 747 -14 968 178 b 503 1000 968 794 761 1000 b 40 486 222 1000 40 793 b 503 -14 40 178 251 -14 z m 544 89 b 356 592 424 89 356 357 b 464 892 356 801 394 892 b 651 357 588 892 651 585 b 544 89 651 165 611 89 z "},"1":{"ha":539,"x_min":0,"x_max":0,"o":"m 85 0 l 472 0 b 507 29 493 0 507 11 l 507 35 b 418 181 507 78 418 113 l 418 793 b 447 931 418 878 447 881 b 318 976 447 974 397 1010 l 78 874 b 32 825 47 861 32 847 l 32 818 b 133 694 32 764 133 783 l 133 181 b 50 35 133 113 50 78 l 50 29 b 85 0 50 11 64 0 z "},"2":{"ha":883,"x_min":0,"x_max":0,"o":"m 821 303 l 800 303 b 638 199 756 303 751 199 l 308 199 b 813 722 389 378 813 446 b 425 1000 813 924 651 1000 b 44 750 219 1000 44 897 b 181 619 44 667 106 619 b 417 893 368 619 331 893 b 501 750 464 893 501 840 b 39 56 501 519 39 356 l 39 35 b 78 0 39 15 58 0 l 769 0 b 804 35 789 0 800 15 l 850 268 b 821 303 854 288 842 303 z "},"3":{"ha":846,"x_min":0,"x_max":0,"o":"m 518 600 l 726 853 b 767 928 756 888 767 903 l 767 951 b 728 986 767 971 751 986 l 113 986 b 61 938 79 986 61 969 l 61 793 b 114 742 61 763 83 742 l 476 742 l 326 539 b 367 442 294 494 319 442 l 397 442 b 503 276 469 442 503 372 b 408 93 503 179 467 93 b 153 339 300 93 313 339 b 31 200 75 339 31 283 b 421 -14 31 89 151 -14 b 808 303 650 -14 808 135 b 518 600 808 471 701 590 z "},"4":{"ha":835,"x_min":0,"x_max":0,"o":"m 774 349 l 700 349 l 700 947 b 661 986 700 972 686 986 l 483 986 b 364 919 429 986 394 967 l 25 390 b -1 300 7 361 -1 335 l -1 292 b 71 235 -1 256 25 235 l 415 235 l 415 167 b 358 35 415 99 358 78 l 358 29 b 393 0 358 11 372 0 l 729 0 b 764 29 750 0 764 11 l 764 35 b 700 167 764 78 700 99 l 700 235 l 774 235 b 804 265 793 235 804 246 l 804 318 b 774 349 804 338 793 349 z m 146 349 l 415 769 l 415 349 z "},"5":{"ha":832,"x_min":0,"x_max":0,"o":"m 454 628 b 221 542 358 628 275 588 l 244 761 l 722 761 b 761 800 747 761 761 775 l 761 947 b 722 986 761 972 747 986 l 178 986 b 136 951 154 986 139 975 l 88 515 b 231 464 81 454 175 417 b 363 521 274 501 313 521 b 504 294 456 521 504 450 b 397 93 504 142 453 93 b 169 335 292 93 313 335 b 33 204 104 335 33 301 b 396 -14 33 64 172 -14 b 799 326 635 -14 799 131 b 454 628 799 532 615 628 z "},"6":{"ha":864,"x_min":0,"x_max":0,"o":"m 489 653 b 342 610 428 653 379 638 b 453 893 356 824 408 893 b 675 647 524 893 481 647 b 811 778 750 647 811 686 b 472 1000 811 910 676 1000 b 40 467 193 1000 40 760 b 444 -14 40 178 215 -14 b 815 318 644 -14 815 107 b 489 653 815 560 640 653 z m 478 93 b 340 435 386 93 347 271 b 411 546 340 504 360 546 b 540 193 506 546 540 307 b 478 93 540 125 517 93 z "},"7":{"ha":764,"x_min":0,"x_max":0,"o":"m 722 986 l 93 986 b 42 940 60 986 46 972 l 14 689 b 53 646 11 664 26 646 l 76 646 b 229 767 144 646 147 767 l 529 767 l 160 68 b 204 0 146 42 161 0 l 381 0 b 449 44 413 0 438 15 l 739 846 b 761 931 751 882 761 921 l 761 951 b 722 986 761 971 746 986 z "},"8":{"ha":865,"x_min":0,"x_max":0,"o":"m 614 528 b 776 742 696 568 776 632 b 444 999 776 871 685 999 b 68 715 215 999 68 899 b 260 476 68 610 158 540 b 38 224 163 433 38 363 b 433 -14 38 124 136 -14 b 829 274 632 -14 829 53 b 614 528 829 400 725 465 z m 429 899 b 525 786 501 899 525 838 b 468 615 525 726 503 658 b 347 821 399 665 347 728 b 429 899 347 861 376 899 z m 442 93 b 300 224 376 93 300 126 b 375 407 300 285 335 357 b 550 186 469 347 550 282 b 442 93 550 136 503 93 z "},"9":{"ha":863,"x_min":0,"x_max":0,"o":"m 417 1000 b 46 668 217 1000 46 879 b 372 353 46 426 221 353 b 521 397 433 353 483 368 b 418 93 513 215 481 93 b 194 339 344 93 382 339 b 58 208 119 339 58 292 b 399 -14 58 83 226 -14 b 821 519 704 -14 821 226 b 417 1000 821 808 646 1000 z m 450 460 b 321 793 356 460 321 679 b 383 893 321 861 344 893 b 521 557 474 893 513 719 b 450 460 518 496 499 460 z "},"A":{"ha":994,"x_min":0,"x_max":0,"o":"m 924 167 l 619 914 b 517 986 599 964 568 986 l 311 986 b 276 957 290 986 276 975 l 276 951 b 329 807 276 915 351 865 l 82 167 b -3 35 51 86 -3 78 l -3 29 b 32 0 -3 11 11 0 l 258 0 b 293 29 279 0 293 11 l 293 35 b 229 167 293 78 206 99 l 251 231 l 576 231 l 599 167 b 535 35 622 99 535 78 l 535 29 b 569 0 535 11 549 0 l 974 0 b 1008 29 994 0 1008 11 l 1008 35 b 924 167 1008 78 956 89 z m 293 347 l 418 699 l 538 347 z "},"Á":{"ha":994,"x_min":0,"x_max":0,"o":"m 338 1072 l 635 1090 b 685 1165 681 1092 696 1126 l 651 1279 b 564 1314 639 1319 607 1338 l 300 1165 b 281 1104 279 1153 269 1128 b 338 1072 289 1082 313 1071 z m 924 167 l 619 914 b 517 986 599 964 568 986 l 311 986 b 276 957 290 986 276 975 l 276 951 b 329 807 276 915 351 865 l 82 167 b -3 35 51 86 -3 78 l -3 29 b 32 0 -3 11 11 0 l 258 0 b 293 29 279 0 293 11 l 293 35 b 229 167 293 78 206 99 l 251 231 l 576 231 l 599 167 b 535 35 622 99 535 78 l 535 29 b 569 0 535 11 549 0 l 974 0 b 1008 29 994 0 1008 11 l 1008 35 b 924 167 1008 78 956 89 z m 293 347 l 418 699 l 538 347 z "},"Ă":{"ha":994,"x_min":0,"x_max":0,"o":"m 458 1049 b 710 1243 606 1049 696 1135 b 619 1275 714 1286 636 1299 b 458 1208 596 1235 529 1208 b 297 1275 390 1208 321 1235 b 207 1243 278 1303 201 1293 b 458 1049 221 1135 317 1049 z m 924 167 l 619 914 b 517 986 599 964 568 986 l 311 986 b 276 957 290 986 276 975 l 276 951 b 329 807 276 915 351 865 l 82 167 b -3 35 51 86 -3 78 l -3 29 b 32 0 -3 11 11 0 l 258 0 b 293 29 279 0 293 11 l 293 35 b 229 167 293 78 206 99 l 251 231 l 576 231 l 599 167 b 535 35 622 99 535 78 l 535 29 b 569 0 535 11 549 0 l 974 0 b 1008 29 994 0 1008 11 l 1008 35 b 924 167 1008 78 956 89 z m 293 347 l 418 699 l 538 347 z "},"Â":{"ha":994,"x_min":0,"x_max":0,"o":"m 254 1053 l 443 1156 l 657 1053 b 721 1132 721 1022 768 1085 l 549 1296 b 476 1325 528 1317 506 1325 l 422 1325 b 350 1294 393 1325 372 1319 l 197 1132 b 254 1053 146 1076 218 1033 z m 924 167 l 619 914 b 517 986 599 964 568 986 l 311 986 b 276 957 290 986 276 975 l 276 951 b 329 807 276 915 351 865 l 82 167 b -3 35 51 86 -3 78 l -3 29 b 32 0 -3 11 11 0 l 258 0 b 293 29 279 0 293 11 l 293 35 b 229 167 293 78 206 99 l 251 231 l 576 231 l 599 167 b 535 35 622 99 535 78 l 535 29 b 569 0 535 11 549 0 l 974 0 b 1008 29 994 0 1008 11 l 1008 35 b 924 167 1008 78 956 89 z m 293 347 l 418 699 l 538 347 z "},"Ä":{"ha":994,"x_min":0,"x_max":0,"o":"m 278 1056 b 435 1194 372 1056 435 1117 b 278 1332 435 1272 372 1332 b 119 1194 183 1332 119 1272 b 278 1056 119 1117 183 1056 z m 646 1056 b 804 1194 740 1056 804 1117 b 646 1332 804 1272 740 1332 b 489 1194 551 1332 489 1272 b 646 1056 489 1117 551 1056 z m 924 167 l 619 914 b 517 986 599 964 568 986 l 311 986 b 276 957 290 986 276 975 l 276 951 b 329 807 276 915 351 865 l 82 167 b -3 35 51 86 -3 78 l -3 29 b 32 0 -3 11 11 0 l 258 0 b 293 29 279 0 293 11 l 293 35 b 229 167 293 78 206 99 l 251 231 l 576 231 l 599 167 b 535 35 622 99 535 78 l 535 29 b 569 0 535 11 549 0 l 974 0 b 1008 29 994 0 1008 11 l 1008 35 b 924 167 1008 78 956 89 z m 293 347 l 418 699 l 538 347 z "},"À":{"ha":994,"x_min":0,"x_max":0,"o":"m 289 1063 l 586 1060 b 643 1093 611 1060 635 1072 b 619 1154 651 1118 640 1143 l 349 1290 b 263 1251 304 1311 272 1292 l 235 1136 b 289 1063 225 1096 243 1063 z m 924 167 l 619 914 b 517 986 599 964 568 986 l 311 986 b 276 957 290 986 276 975 l 276 951 b 329 807 276 915 351 865 l 82 167 b -3 35 51 86 -3 78 l -3 29 b 32 0 -3 11 11 0 l 258 0 b 293 29 279 0 293 11 l 293 35 b 229 167 293 78 206 99 l 251 231 l 576 231 l 599 167 b 535 35 622 99 535 78 l 535 29 b 569 0 535 11 549 0 l 974 0 b 1008 29 994 0 1008 11 l 1008 35 b 924 167 1008 78 956 89 z m 293 347 l 418 699 l 538 347 z "},"Ā":{"ha":994,"x_min":0,"x_max":0,"o":"m 258 1090 l 658 1090 b 694 1126 682 1090 694 1103 l 694 1222 b 658 1258 694 1246 682 1258 l 258 1258 b 222 1222 235 1258 222 1246 l 222 1126 b 258 1090 222 1103 235 1090 z m 924 167 l 619 914 b 517 986 599 964 568 986 l 311 986 b 276 957 290 986 276 975 l 276 951 b 329 807 276 915 351 865 l 82 167 b -3 35 51 86 -3 78 l -3 29 b 32 0 -3 11 11 0 l 258 0 b 293 29 279 0 293 11 l 293 35 b 229 167 293 78 206 99 l 251 231 l 576 231 l 599 167 b 535 35 622 99 535 78 l 535 29 b 569 0 535 11 549 0 l 974 0 b 1008 29 994 0 1008 11 l 1008 35 b 924 167 1008 78 956 89 z m 293 347 l 418 699 l 538 347 z "},"Ą":{"ha":994,"x_min":0,"x_max":0,"o":"m 924 167 l 619 914 b 517 986 599 964 568 986 l 311 986 b 276 957 290 986 276 975 l 276 951 b 329 807 276 915 351 865 l 82 167 b -3 35 51 86 -3 78 l -3 29 b 32 0 -3 11 11 0 l 258 0 b 293 29 279 0 293 11 l 293 35 b 229 167 293 78 206 99 l 251 231 l 576 231 l 599 167 b 535 35 622 99 535 78 l 535 29 b 569 0 535 11 549 0 l 749 0 b 592 -194 626 -65 592 -128 b 771 -328 592 -300 693 -328 b 850 -317 804 -328 838 -322 b 842 -217 907 -294 892 -200 b 821 -221 833 -219 829 -221 b 785 -160 803 -221 783 -207 b 850 0 785 -124 801 -65 l 974 0 b 1008 29 994 0 1008 11 l 1008 35 b 924 167 1008 78 956 89 z m 293 347 l 418 699 l 538 347 z "},"Å":{"ha":994,"x_min":0,"x_max":0,"o":"m 467 1019 b 688 1186 601 1019 688 1085 b 468 1339 688 1276 593 1339 b 249 1174 339 1339 249 1278 b 467 1019 249 1086 342 1019 z m 468 1263 b 528 1181 500 1263 528 1236 b 468 1092 528 1111 500 1092 b 408 1181 436 1092 408 1125 b 468 1263 408 1249 436 1263 z m 924 167 l 619 914 b 517 986 599 964 568 986 l 311 986 b 276 957 290 986 276 975 l 276 951 b 329 807 276 915 351 865 l 82 167 b -3 35 51 86 -3 78 l -3 29 b 32 0 -3 11 11 0 l 258 0 b 293 29 279 0 293 11 l 293 35 b 229 167 293 78 206 99 l 251 231 l 576 231 l 599 167 b 535 35 622 99 535 78 l 535 29 b 569 0 535 11 549 0 l 974 0 b 1008 29 994 0 1008 11 l 1008 35 b 924 167 1008 78 956 89 z m 293 347 l 418 699 l 538 347 z "},"Ã":{"ha":994,"x_min":0,"x_max":0,"o":"m 232 1065 l 249 1065 b 289 1090 274 1065 274 1074 b 339 1114 304 1107 319 1114 b 567 1047 410 1114 476 1047 b 735 1217 657 1047 717 1132 b 710 1251 739 1239 731 1251 l 700 1251 b 663 1231 681 1251 672 1243 b 601 1203 649 1213 636 1203 b 381 1265 542 1203 482 1265 b 208 1099 292 1265 226 1186 b 232 1065 204 1076 215 1065 z m 924 167 l 619 914 b 517 986 599 964 568 986 l 311 986 b 276 957 290 986 276 975 l 276 951 b 329 807 276 915 351 865 l 82 167 b -3 35 51 86 -3 78 l -3 29 b 32 0 -3 11 11 0 l 258 0 b 293 29 279 0 293 11 l 293 35 b 229 167 293 78 206 99 l 251 231 l 576 231 l 599 167 b 535 35 622 99 535 78 l 535 29 b 569 0 535 11 549 0 l 974 0 b 1008 29 994 0 1008 11 l 1008 35 b 924 167 1008 78 956 89 z m 293 347 l 418 699 l 538 347 z "},"Æ":{"ha":1360,"x_min":0,"x_max":0,"o":"m 1314 275 l 1300 275 b 1072 107 1218 275 1197 107 l 1014 107 b 922 207 954 107 922 147 l 922 446 l 999 446 b 1131 338 1079 446 1088 338 l 1144 338 b 1174 372 1163 338 1174 351 l 1174 643 b 1144 678 1174 664 1163 678 l 1131 678 b 999 563 1088 678 1079 563 l 922 563 l 922 807 b 992 879 922 863 956 879 l 1035 879 b 1254 725 1143 879 1172 725 l 1263 725 b 1301 768 1289 725 1306 742 l 1274 940 b 1222 986 1268 974 1256 986 l 471 986 b 436 957 453 986 436 975 l 436 946 b 479 789 436 907 518 853 l 97 167 b -14 35 51 92 -14 78 l -14 29 b 21 0 -14 11 0 0 l 278 0 b 313 29 299 0 313 11 l 313 35 b 275 167 313 78 238 104 l 314 231 l 665 231 l 665 167 b 608 35 665 99 608 78 l 608 29 b 643 0 608 11 622 0 l 1257 0 b 1308 49 1290 0 1303 15 l 1343 240 b 1314 275 1347 260 1335 275 z m 386 347 l 664 803 l 665 347 z "},"Ǽ":{"ha":1360,"x_min":0,"x_max":0,"o":"m 735 1072 l 1032 1090 b 1082 1165 1078 1092 1093 1126 l 1049 1279 b 961 1314 1036 1319 1004 1338 l 697 1165 b 678 1104 676 1153 667 1128 b 735 1072 686 1082 710 1071 z m 1314 275 l 1300 275 b 1072 107 1218 275 1197 107 l 1014 107 b 922 207 954 107 922 147 l 922 446 l 999 446 b 1131 338 1079 446 1088 338 l 1144 338 b 1174 372 1163 338 1174 351 l 1174 643 b 1144 678 1174 664 1163 678 l 1131 678 b 999 563 1088 678 1079 563 l 922 563 l 922 807 b 992 879 922 863 956 879 l 1035 879 b 1254 725 1143 879 1172 725 l 1263 725 b 1301 768 1289 725 1306 742 l 1274 940 b 1222 986 1268 974 1256 986 l 471 986 b 436 957 453 986 436 975 l 436 946 b 479 789 436 907 518 853 l 97 167 b -14 35 51 92 -14 78 l -14 29 b 21 0 -14 11 0 0 l 278 0 b 313 29 299 0 313 11 l 313 35 b 275 167 313 78 238 104 l 314 231 l 665 231 l 665 167 b 608 35 665 99 608 78 l 608 29 b 643 0 608 11 622 0 l 1257 0 b 1308 49 1290 0 1303 15 l 1343 240 b 1314 275 1347 260 1335 275 z m 386 347 l 664 803 l 665 347 z "},"B":{"ha":975,"x_min":0,"x_max":0,"o":"m 699 531 b 853 735 792 556 853 632 b 489 986 853 874 746 986 l 85 986 b 50 957 64 986 50 975 l 50 951 b 107 819 50 908 107 888 l 107 167 b 50 35 107 99 50 78 l 50 29 b 85 0 50 11 64 0 l 461 0 b 951 279 814 0 951 117 b 699 531 951 411 853 507 z m 389 800 b 461 878 389 861 422 878 l 479 878 b 611 694 558 878 611 811 b 518 574 611 621 574 574 l 471 574 b 389 651 422 574 389 603 z m 553 108 l 506 108 b 389 240 435 108 389 167 l 389 467 l 418 467 b 651 238 574 467 651 333 b 553 108 651 164 611 108 z "},"C":{"ha":932,"x_min":0,"x_max":0,"o":"m 510 -14 b 901 340 782 -14 901 163 b 819 367 901 388 847 399 b 606 242 779 321 725 242 b 307 682 454 242 307 413 b 439 889 307 818 372 889 b 774 608 583 889 582 608 b 904 732 856 608 904 660 b 494 999 904 889 711 999 b 32 507 213 999 32 786 b 510 -14 32 235 222 -14 z "},"Ć":{"ha":932,"x_min":0,"x_max":0,"o":"m 349 1072 l 646 1090 b 696 1165 692 1092 707 1126 l 663 1279 b 575 1314 650 1319 618 1338 l 311 1165 b 292 1104 290 1153 281 1128 b 349 1072 300 1082 324 1071 z m 510 -14 b 901 340 782 -14 901 163 b 819 367 901 388 847 399 b 606 242 779 321 725 242 b 307 682 454 242 307 413 b 439 889 307 818 372 889 b 774 608 583 889 582 608 b 904 732 856 608 904 660 b 494 999 904 889 711 999 b 32 507 213 999 32 786 b 510 -14 32 235 222 -14 z "},"Č":{"ha":932,"x_min":0,"x_max":0,"o":"m 381 1072 b 453 1043 403 1050 424 1043 l 515 1043 b 588 1071 544 1043 565 1050 l 744 1217 b 690 1278 772 1242 725 1294 l 492 1185 l 289 1278 b 235 1217 258 1292 204 1247 z m 819 367 b 606 242 779 321 725 242 b 307 682 454 242 307 413 b 439 889 307 818 372 889 b 774 608 583 889 582 608 b 904 732 856 608 904 660 b 494 999 904 889 711 999 b 32 507 213 999 32 786 b 510 -14 32 235 222 -14 b 901 340 782 -14 901 163 b 819 367 901 388 847 399 z "},"Ç":{"ha":932,"x_min":0,"x_max":0,"o":"m 819 367 b 606 242 779 321 725 242 b 307 682 454 242 307 413 b 439 889 307 818 372 889 b 774 608 583 889 582 608 b 904 732 856 608 904 660 b 494 999 904 889 711 999 b 32 507 213 999 32 786 b 460 -11 32 251 200 15 l 443 -92 b 479 -133 436 -126 457 -133 b 561 -181 508 -133 561 -144 b 493 -232 561 -214 529 -232 b 414 -217 467 -232 432 -225 b 413 -304 382 -201 368 -283 b 536 -322 433 -314 474 -322 b 750 -192 647 -322 750 -283 b 568 -68 750 -99 656 -65 l 571 -11 b 901 340 800 14 901 176 b 819 367 901 388 847 399 z "},"Ċ":{"ha":932,"x_min":0,"x_max":0,"o":"m 474 1039 b 633 1178 569 1039 633 1100 b 474 1317 633 1257 569 1317 b 314 1178 378 1317 314 1257 b 474 1039 314 1100 378 1039 z m 510 -14 b 901 340 782 -14 901 163 b 819 367 901 388 847 399 b 606 242 779 321 725 242 b 307 682 454 242 307 413 b 439 889 307 818 372 889 b 774 608 583 889 582 608 b 904 732 856 608 904 660 b 494 999 904 889 711 999 b 32 507 213 999 32 786 b 510 -14 32 235 222 -14 z "},"D":{"ha":1079,"x_min":0,"x_max":0,"o":"m 85 0 l 493 0 b 1047 483 836 0 1047 203 b 421 986 1047 781 836 986 l 85 986 b 50 957 64 986 50 975 l 50 951 b 107 819 50 908 107 888 l 107 167 b 50 35 107 99 50 78 l 50 29 b 85 0 50 11 64 0 z m 525 108 b 389 268 439 108 389 167 l 389 806 b 458 878 389 861 422 878 l 463 878 b 747 346 629 878 747 614 b 567 108 747 182 668 108 z "},"Ð":{"ha":1083,"x_min":0,"x_max":0,"o":"m 425 986 l 89 986 b 54 957 68 986 54 975 l 54 951 b 111 819 54 908 111 888 l 111 558 l 54 558 b 29 532 40 558 29 551 l 29 479 b 54 454 29 458 40 454 l 111 454 l 111 167 b 54 35 111 99 54 78 l 54 29 b 89 0 54 11 68 0 l 497 0 b 1051 483 840 0 1051 203 b 425 986 1051 781 840 986 z m 571 108 l 529 108 b 393 268 443 108 393 167 l 393 454 l 508 454 b 535 485 524 454 535 464 l 535 532 b 508 558 535 547 524 558 l 393 558 l 393 806 b 463 878 393 861 426 878 l 467 878 b 751 346 633 878 751 614 b 571 108 751 182 672 108 z "},"Ď":{"ha":1079,"x_min":0,"x_max":0,"o":"m 385 1068 b 457 1039 407 1046 428 1039 l 519 1039 b 592 1067 549 1039 569 1046 l 749 1213 b 694 1274 776 1238 729 1290 l 496 1181 l 293 1274 b 239 1213 263 1288 208 1243 z m 421 986 l 85 986 b 50 957 64 986 50 975 l 50 951 b 107 819 50 908 107 888 l 107 167 b 50 35 107 99 50 78 l 50 29 b 85 0 50 11 64 0 l 493 0 b 1047 483 836 0 1047 203 b 421 986 1047 781 836 986 z m 567 108 l 525 108 b 389 268 439 108 389 167 l 389 806 b 458 878 389 861 422 878 l 463 878 b 747 346 629 878 747 614 b 567 108 747 182 668 108 z "},"Đ":{"ha":1083,"x_min":0,"x_max":0,"o":"m 425 986 l 89 986 b 54 957 68 986 54 975 l 54 951 b 111 819 54 908 111 888 l 111 558 l 54 558 b 29 532 40 558 29 551 l 29 479 b 54 454 29 458 40 454 l 111 454 l 111 167 b 54 35 111 99 54 78 l 54 29 b 89 0 54 11 68 0 l 497 0 b 1051 483 840 0 1051 203 b 425 986 1051 781 840 986 z m 571 108 l 529 108 b 393 268 443 108 393 167 l 393 454 l 508 454 b 535 485 524 454 535 464 l 535 532 b 508 558 535 547 524 558 l 393 558 l 393 806 b 463 878 393 861 426 878 l 467 878 b 751 346 633 878 751 614 b 571 108 751 182 672 108 z "},"E":{"ha":872,"x_min":0,"x_max":0,"o":"m 85 0 l 767 0 b 818 49 800 0 813 15 l 849 240 b 815 286 851 260 840 286 l 801 286 b 582 107 708 286 688 107 l 482 107 b 390 218 411 107 390 168 l 390 446 l 508 446 b 640 333 589 446 597 333 l 654 333 b 683 368 672 333 683 347 l 683 639 b 654 674 683 660 672 674 l 640 674 b 508 554 597 674 589 554 l 390 554 l 390 807 b 460 879 390 863 424 879 l 538 879 b 769 711 643 879 683 711 l 778 711 b 817 754 804 711 821 728 l 783 940 b 732 986 778 974 765 986 l 85 986 b 50 957 64 986 50 975 l 50 951 b 107 819 50 908 107 888 l 107 167 b 50 35 107 99 50 78 l 50 29 b 85 0 50 11 64 0 z "},"É":{"ha":872,"x_min":0,"x_max":0,"o":"m 307 1072 l 604 1090 b 654 1165 650 1092 665 1126 l 621 1279 b 533 1314 608 1319 576 1338 l 269 1165 b 250 1104 249 1153 239 1128 b 307 1072 258 1082 282 1071 z m 85 0 l 767 0 b 818 49 800 0 813 15 l 849 240 b 815 286 851 260 840 286 l 801 286 b 582 107 708 286 688 107 l 482 107 b 390 218 411 107 390 168 l 390 446 l 508 446 b 640 333 589 446 597 333 l 654 333 b 683 368 672 333 683 347 l 683 639 b 654 674 683 660 672 674 l 640 674 b 508 554 597 674 589 554 l 390 554 l 390 807 b 460 879 390 863 424 879 l 538 879 b 769 711 643 879 683 711 l 778 711 b 817 754 804 711 821 728 l 783 940 b 732 986 778 974 765 986 l 85 986 b 50 957 64 986 50 975 l 50 951 b 107 819 50 908 107 888 l 107 167 b 50 35 107 99 50 78 l 50 29 b 85 0 50 11 64 0 z "},"Ě":{"ha":872,"x_min":0,"x_max":0,"o":"m 319 1068 b 392 1039 342 1046 363 1039 l 454 1039 b 526 1067 483 1039 504 1046 l 683 1213 b 629 1274 711 1238 664 1290 l 431 1181 l 228 1274 b 174 1213 197 1288 143 1243 z m 815 286 l 801 286 b 582 107 708 286 688 107 l 482 107 b 390 218 411 107 390 168 l 390 446 l 508 446 b 640 333 589 446 597 333 l 654 333 b 683 368 672 333 683 347 l 683 639 b 654 674 683 660 672 674 l 640 674 b 508 554 597 674 589 554 l 390 554 l 390 807 b 460 879 390 863 424 879 l 538 879 b 769 711 643 879 683 711 l 778 711 b 817 754 804 711 821 728 l 783 940 b 732 986 778 974 765 986 l 85 986 b 50 957 64 986 50 975 l 50 951 b 107 819 50 908 107 888 l 107 167 b 50 35 107 99 50 78 l 50 29 b 85 0 50 11 64 0 l 767 0 b 818 49 800 0 813 15 l 849 240 b 815 286 851 260 840 286 z "},"Ê":{"ha":872,"x_min":0,"x_max":0,"o":"m 224 1053 l 413 1156 l 626 1053 b 690 1132 690 1022 738 1085 l 518 1296 b 446 1325 497 1317 475 1325 l 392 1325 b 319 1294 363 1325 342 1319 l 167 1132 b 224 1053 115 1076 188 1033 z m 815 286 l 801 286 b 582 107 708 286 688 107 l 482 107 b 390 218 411 107 390 168 l 390 446 l 508 446 b 640 333 589 446 597 333 l 654 333 b 683 368 672 333 683 347 l 683 639 b 654 674 683 660 672 674 l 640 674 b 508 554 597 674 589 554 l 390 554 l 390 807 b 460 879 390 863 424 879 l 538 879 b 769 711 643 879 683 711 l 778 711 b 817 754 804 711 821 728 l 783 940 b 732 986 778 974 765 986 l 85 986 b 50 957 64 986 50 975 l 50 951 b 107 819 50 908 107 888 l 107 167 b 50 35 107 99 50 78 l 50 29 b 85 0 50 11 64 0 l 767 0 b 818 49 800 0 813 15 l 849 240 b 815 286 851 260 840 286 z "},"Ë":{"ha":872,"x_min":0,"x_max":0,"o":"m 247 1056 b 404 1194 342 1056 404 1117 b 247 1332 404 1272 342 1332 b 89 1194 153 1332 89 1272 b 247 1056 89 1117 153 1056 z m 615 1056 b 774 1194 710 1056 774 1117 b 615 1332 774 1272 710 1332 b 458 1194 521 1332 458 1272 b 615 1056 458 1117 521 1056 z m 85 0 l 767 0 b 818 49 800 0 813 15 l 849 240 b 815 286 851 260 840 286 l 801 286 b 582 107 708 286 688 107 l 482 107 b 390 218 411 107 390 168 l 390 446 l 508 446 b 640 333 589 446 597 333 l 654 333 b 683 368 672 333 683 347 l 683 639 b 654 674 683 660 672 674 l 640 674 b 508 554 597 674 589 554 l 390 554 l 390 807 b 460 879 390 863 424 879 l 538 879 b 769 711 643 879 683 711 l 778 711 b 817 754 804 711 821 728 l 783 940 b 732 986 778 974 765 986 l 85 986 b 50 957 64 986 50 975 l 50 951 b 107 819 50 908 107 888 l 107 167 b 50 35 107 99 50 78 l 50 29 b 85 0 50 11 64 0 z "},"Ė":{"ha":872,"x_min":0,"x_max":0,"o":"m 440 1039 b 600 1178 536 1039 600 1100 b 440 1317 600 1257 536 1317 b 281 1178 344 1317 281 1257 b 440 1039 281 1100 344 1039 z m 85 0 l 767 0 b 818 49 800 0 813 15 l 849 240 b 815 286 851 260 840 286 l 801 286 b 582 107 708 286 688 107 l 482 107 b 390 218 411 107 390 168 l 390 446 l 508 446 b 640 333 589 446 597 333 l 654 333 b 683 368 672 333 683 347 l 683 639 b 654 674 683 660 672 674 l 640 674 b 508 554 597 674 589 554 l 390 554 l 390 807 b 460 879 390 863 424 879 l 538 879 b 769 711 643 879 683 711 l 778 711 b 817 754 804 711 821 728 l 783 940 b 732 986 778 974 765 986 l 85 986 b 50 957 64 986 50 975 l 50 951 b 107 819 50 908 107 888 l 107 167 b 50 35 107 99 50 78 l 50 29 b 85 0 50 11 64 0 z "},"È":{"ha":872,"x_min":0,"x_max":0,"o":"m 556 1060 b 613 1093 581 1060 604 1072 b 589 1154 621 1118 610 1143 l 318 1290 b 232 1251 274 1311 242 1292 l 204 1136 b 258 1063 194 1096 213 1063 z m 85 0 l 767 0 b 818 49 800 0 813 15 l 849 240 b 815 286 851 260 840 286 l 801 286 b 582 107 708 286 688 107 l 482 107 b 390 218 411 107 390 168 l 390 446 l 508 446 b 640 333 589 446 597 333 l 654 333 b 683 368 672 333 683 347 l 683 639 b 654 674 683 660 672 674 l 640 674 b 508 554 597 674 589 554 l 390 554 l 390 807 b 460 879 390 863 424 879 l 538 879 b 769 711 643 879 683 711 l 778 711 b 817 754 804 711 821 728 l 783 940 b 732 986 778 974 765 986 l 85 986 b 50 957 64 986 50 975 l 50 951 b 107 819 50 908 107 888 l 107 167 b 50 35 107 99 50 78 l 50 29 b 85 0 50 11 64 0 z "},"Ē":{"ha":872,"x_min":0,"x_max":0,"o":"m 228 1090 l 628 1090 b 664 1126 651 1090 664 1103 l 664 1222 b 628 1258 664 1246 651 1258 l 228 1258 b 192 1222 204 1258 192 1246 l 192 1126 b 228 1090 192 1103 204 1090 z m 85 0 l 767 0 b 818 49 800 0 813 15 l 849 240 b 815 286 851 260 840 286 l 801 286 b 582 107 708 286 688 107 l 482 107 b 390 218 411 107 390 168 l 390 446 l 508 446 b 640 333 589 446 597 333 l 654 333 b 683 368 672 333 683 347 l 683 639 b 654 674 683 660 672 674 l 640 674 b 508 554 597 674 589 554 l 390 554 l 390 807 b 460 879 390 863 424 879 l 538 879 b 769 711 643 879 683 711 l 778 711 b 817 754 804 711 821 728 l 783 940 b 732 986 778 974 765 986 l 85 986 b 50 957 64 986 50 975 l 50 951 b 107 819 50 908 107 888 l 107 167 b 50 35 107 99 50 78 l 50 29 b 85 0 50 11 64 0 z "},"Ę":{"ha":872,"x_min":0,"x_max":0,"o":"m 799 8 b 818 49 810 17 815 29 l 849 240 b 815 286 851 260 840 286 l 801 286 b 582 107 708 286 688 107 l 482 107 b 390 218 411 107 390 168 l 390 446 l 508 446 b 640 333 589 446 597 333 l 654 333 b 683 368 672 333 683 347 l 683 639 b 654 674 683 660 672 674 l 640 674 b 508 554 597 674 589 554 l 390 554 l 390 807 b 460 879 390 863 424 879 l 538 879 b 769 711 643 879 683 711 l 778 711 b 817 754 804 711 821 728 l 783 940 b 732 986 778 974 765 986 l 85 986 b 50 957 64 986 50 975 l 50 951 b 107 819 50 908 107 888 l 107 167 b 50 35 107 99 50 78 l 50 29 b 85 0 50 11 64 0 l 681 0 b 542 -185 574 -61 542 -121 b 721 -318 542 -290 643 -318 b 800 -307 754 -318 788 -312 b 792 -207 857 -285 842 -190 b 771 -211 783 -210 779 -211 b 735 -150 753 -211 733 -197 b 799 8 735 -114 751 -56 z "},"F":{"ha":853,"x_min":0,"x_max":0,"o":"m 85 0 l 425 0 b 460 29 446 0 460 11 l 460 35 b 396 167 460 78 396 99 l 396 410 l 526 410 b 658 297 594 410 615 297 l 672 297 b 701 332 690 297 701 311 l 701 603 b 672 638 701 624 690 638 l 658 638 b 526 517 615 638 594 517 l 396 517 l 396 806 b 465 878 396 861 429 878 l 560 878 b 792 710 665 878 706 710 l 800 710 b 839 753 826 710 843 726 l 806 939 b 754 986 800 972 788 986 l 85 986 b 50 957 64 986 50 975 l 50 951 b 107 819 50 908 107 888 l 107 167 b 50 35 107 99 50 78 l 50 29 b 85 0 50 11 64 0 z "},"G":{"ha":990,"x_min":0,"x_max":0,"o":"m 540 -14 b 846 86 683 -14 788 40 b 910 200 899 128 910 157 l 910 346 b 974 478 910 414 974 435 l 974 483 b 939 513 974 501 960 513 l 610 514 b 571 485 589 514 571 503 l 571 479 b 644 347 571 436 644 415 l 644 185 b 603 181 633 182 622 181 b 306 682 438 181 306 411 b 431 889 306 801 351 889 b 790 615 563 889 592 615 b 915 742 865 615 915 665 b 500 999 915 894 736 999 b 31 493 272 999 31 813 b 540 -14 31 235 231 -14 z "},"Ğ":{"ha":990,"x_min":0,"x_max":0,"o":"m 518 1049 b 769 1243 665 1049 756 1135 b 679 1275 774 1286 696 1299 b 518 1208 656 1235 589 1208 b 357 1275 450 1208 381 1235 b 267 1243 338 1303 261 1293 b 518 1049 281 1135 376 1049 z m 540 -14 b 846 86 683 -14 788 40 b 910 200 899 128 910 157 l 910 346 b 974 478 910 414 974 435 l 974 483 b 939 513 974 501 960 513 l 610 514 b 571 485 589 514 571 503 l 571 479 b 644 347 571 436 644 415 l 644 185 b 603 181 633 182 622 181 b 306 682 438 181 306 411 b 431 889 306 801 351 889 b 790 615 563 889 592 615 b 915 742 865 615 915 665 b 500 999 915 894 736 999 b 31 493 272 999 31 813 b 540 -14 31 235 231 -14 z "},"Ģ":{"ha":990,"x_min":0,"x_max":0,"o":"m 540 -14 b 846 86 683 -14 788 40 b 910 200 899 128 910 157 l 910 346 b 974 478 910 414 974 435 l 974 483 b 939 513 974 501 960 513 l 610 514 b 571 485 589 514 571 503 l 571 479 b 644 347 571 436 644 415 l 644 185 b 603 181 633 182 622 181 b 306 682 438 181 306 411 b 431 889 306 801 351 889 b 790 615 563 889 592 615 b 915 742 865 615 915 665 b 500 999 915 894 736 999 b 31 493 272 999 31 813 b 540 -14 31 235 231 -14 z m 463 -472 b 657 -193 596 -394 657 -301 b 515 -33 657 -90 588 -33 b 381 -175 432 -33 381 -90 b 474 -297 381 -246 424 -297 b 490 -325 490 -297 492 -308 b 421 -428 489 -360 465 -382 b 463 -472 397 -451 433 -490 z "},"Ġ":{"ha":990,"x_min":0,"x_max":0,"o":"m 531 1039 b 690 1178 626 1039 690 1100 b 531 1317 690 1257 626 1317 b 371 1178 435 1317 371 1257 b 531 1039 371 1100 435 1039 z m 540 -14 b 846 86 683 -14 788 40 b 910 200 899 128 910 157 l 910 346 b 974 478 910 414 974 435 l 974 483 b 939 513 974 501 960 513 l 610 514 b 571 485 589 514 571 503 l 571 479 b 644 347 571 436 644 415 l 644 185 b 603 181 633 182 622 181 b 306 682 438 181 306 411 b 431 889 306 801 351 889 b 790 615 563 889 592 615 b 915 742 865 615 915 665 b 500 999 915 894 736 999 b 31 493 272 999 31 813 b 540 -14 31 235 231 -14 z "},"H":{"ha":1113,"x_min":0,"x_max":0,"o":"m 85 0 l 422 0 b 457 29 443 0 457 11 l 457 35 b 393 167 457 78 393 99 l 394 436 l 711 436 l 713 167 b 657 35 713 99 657 78 l 657 29 b 690 0 657 11 669 0 l 1028 0 b 1063 29 1049 0 1063 11 l 1063 35 b 999 167 1063 78 999 99 l 999 819 b 1063 951 999 888 1063 908 l 1063 957 b 1028 986 1063 975 1049 986 l 690 986 b 657 957 669 986 657 975 l 657 951 b 713 819 657 908 713 888 l 711 556 l 394 556 l 394 819 b 457 951 394 888 457 908 l 457 957 b 422 986 457 975 443 986 l 85 986 b 50 957 64 986 50 975 l 50 951 b 107 819 50 908 107 888 l 107 167 b 50 35 107 99 50 78 l 50 29 b 85 0 50 11 64 0 z "},"Ħ":{"ha":1121,"x_min":0,"x_max":0,"o":"m 1075 778 l 1003 778 l 1003 819 b 1067 951 1003 888 1067 908 l 1067 957 b 1032 986 1067 975 1053 986 l 694 986 b 661 957 674 986 661 975 l 661 951 b 717 819 661 908 717 888 l 717 778 l 399 778 l 399 819 b 461 951 399 888 461 908 l 461 957 b 426 986 461 975 447 986 l 89 986 b 54 957 68 986 54 975 l 54 951 b 111 819 54 908 111 888 l 111 778 l 46 778 b 10 749 25 778 10 767 l 10 706 b 46 676 10 688 25 676 l 111 676 l 111 167 b 54 35 111 99 54 78 l 54 29 b 89 0 54 11 68 0 l 426 0 b 461 29 447 0 461 11 l 461 35 b 397 167 461 78 397 99 l 399 436 l 715 436 l 717 167 b 661 35 717 99 661 78 l 661 29 b 694 0 661 11 674 0 l 1032 0 b 1067 29 1053 0 1067 11 l 1067 35 b 1003 167 1067 78 1003 99 l 1003 676 l 1075 676 b 1113 706 1097 676 1113 688 l 1113 749 b 1075 778 1113 767 1097 778 z m 715 556 l 399 556 l 399 676 l 715 676 z "},"I":{"ha":506,"x_min":0,"x_max":0,"o":"m 50 29 b 85 0 50 11 64 0 l 421 0 b 456 29 442 0 456 11 l 456 35 b 392 167 456 78 392 99 l 392 819 b 456 951 392 888 456 908 l 456 957 b 421 986 456 975 442 986 l 85 986 b 50 957 64 986 50 975 l 50 951 b 107 819 50 908 107 888 l 107 167 b 50 35 107 99 50 78 z "},"Ĳ":{"ha":1296,"x_min":0,"x_max":0,"o":"m 50 29 b 85 0 50 11 64 0 l 421 0 b 456 29 442 0 456 11 l 456 35 b 392 167 456 78 392 99 l 392 819 b 456 951 392 888 456 908 l 456 957 b 421 986 456 975 442 986 l 85 986 b 50 957 64 986 50 975 l 50 951 b 107 819 50 908 107 888 l 107 167 b 50 35 107 99 50 78 z m 915 819 l 915 285 b 851 96 915 179 903 96 b 617 385 729 96 825 385 b 490 247 540 385 490 329 b 842 -14 490 142 557 -17 b 1204 465 1074 -11 1204 118 l 1204 819 b 1268 951 1204 888 1268 908 l 1268 957 b 1233 986 1268 975 1254 986 l 893 986 b 858 957 872 986 858 975 l 858 951 b 915 819 858 908 915 888 z "},"Í":{"ha":506,"x_min":0,"x_max":0,"o":"m 135 1072 l 432 1090 b 482 1165 478 1092 493 1126 l 449 1279 b 361 1314 436 1319 404 1338 l 97 1165 b 78 1104 76 1153 67 1128 b 135 1072 86 1082 110 1071 z m 50 29 b 85 0 50 11 64 0 l 421 0 b 456 29 442 0 456 11 l 456 35 b 392 167 456 78 392 99 l 392 819 b 456 951 392 888 456 908 l 456 957 b 421 986 456 975 442 986 l 85 986 b 50 957 64 986 50 975 l 50 951 b 107 819 50 908 107 888 l 107 167 b 50 35 107 99 50 78 z "},"Î":{"ha":506,"x_min":0,"x_max":0,"o":"m 518 1132 l 346 1296 b 274 1325 325 1317 303 1325 l 219 1325 b 147 1294 190 1325 169 1319 l -6 1132 b 51 1053 -57 1076 15 1033 l 240 1156 l 454 1053 b 518 1132 518 1022 565 1085 z m 421 986 l 85 986 b 50 957 64 986 50 975 l 50 951 b 107 819 50 908 107 888 l 107 167 b 50 35 107 99 50 78 l 50 29 b 85 0 50 11 64 0 l 421 0 b 456 29 442 0 456 11 l 456 35 b 392 167 456 78 392 99 l 392 819 b 456 951 392 888 456 908 l 456 957 b 421 986 456 975 442 986 z "},"Ï":{"ha":506,"x_min":0,"x_max":0,"o":"m 75 1056 b 232 1194 169 1056 232 1117 b 75 1332 232 1272 169 1332 b -83 1194 -19 1332 -83 1272 b 75 1056 -83 1117 -19 1056 z m 443 1056 b 601 1194 538 1056 601 1117 b 443 1332 601 1272 538 1332 b 286 1194 349 1332 286 1272 b 443 1056 286 1117 349 1056 z m 50 29 b 85 0 50 11 64 0 l 421 0 b 456 29 442 0 456 11 l 456 35 b 392 167 456 78 392 99 l 392 819 b 456 951 392 888 456 908 l 456 957 b 421 986 456 975 442 986 l 85 986 b 50 957 64 986 50 975 l 50 951 b 107 819 50 908 107 888 l 107 167 b 50 35 107 99 50 78 z "},"İ":{"ha":506,"x_min":0,"x_max":0,"o":"m 268 1039 b 428 1178 364 1039 428 1100 b 268 1317 428 1257 364 1317 b 108 1178 172 1317 108 1257 b 268 1039 108 1100 172 1039 z m 50 29 b 85 0 50 11 64 0 l 421 0 b 456 29 442 0 456 11 l 456 35 b 392 167 456 78 392 99 l 392 819 b 456 951 392 888 456 908 l 456 957 b 421 986 456 975 442 986 l 85 986 b 50 957 64 986 50 975 l 50 951 b 107 819 50 908 107 888 l 107 167 b 50 35 107 99 50 78 z "},"Ì":{"ha":506,"x_min":0,"x_max":0,"o":"m 383 1060 b 440 1093 408 1060 432 1072 b 417 1154 449 1118 438 1143 l 146 1290 b 60 1251 101 1311 69 1292 l 32 1136 b 86 1063 22 1096 40 1063 z m 50 29 b 85 0 50 11 64 0 l 421 0 b 456 29 442 0 456 11 l 456 35 b 392 167 456 78 392 99 l 392 819 b 456 951 392 888 456 908 l 456 957 b 421 986 456 975 442 986 l 85 986 b 50 957 64 986 50 975 l 50 951 b 107 819 50 908 107 888 l 107 167 b 50 35 107 99 50 78 z "},"Ī":{"ha":506,"x_min":0,"x_max":0,"o":"m 56 1090 l 456 1090 b 492 1126 479 1090 492 1103 l 492 1222 b 456 1258 492 1246 479 1258 l 56 1258 b 19 1222 32 1258 19 1246 l 19 1126 b 56 1090 19 1103 32 1090 z m 50 29 b 85 0 50 11 64 0 l 421 0 b 456 29 442 0 456 11 l 456 35 b 392 167 456 78 392 99 l 392 819 b 456 951 392 888 456 908 l 456 957 b 421 986 456 975 442 986 l 85 986 b 50 957 64 986 50 975 l 50 951 b 107 819 50 908 107 888 l 107 167 b 50 35 107 99 50 78 z "},"Į":{"ha":506,"x_min":0,"x_max":0,"o":"m 456 951 l 456 957 b 421 986 456 975 442 986 l 85 986 b 50 957 64 986 50 975 l 50 951 b 107 819 50 908 107 888 l 107 167 b 50 35 107 99 50 78 l 50 29 b 85 0 50 11 64 0 l 192 0 b 53 -185 85 -61 53 -121 b 232 -318 53 -290 154 -318 b 311 -307 265 -318 299 -312 b 303 -207 368 -285 353 -190 b 282 -211 294 -210 290 -211 b 246 -150 264 -211 244 -197 b 304 0 246 -115 261 -61 l 421 0 b 456 29 442 0 456 11 l 456 35 b 392 167 456 78 392 99 l 392 819 b 456 951 392 888 456 908 z "},"Ĩ":{"ha":506,"x_min":0,"x_max":0,"o":"m 176 1265 b 4 1099 88 1265 22 1186 b 28 1065 0 1076 11 1065 l 44 1065 b 85 1090 69 1065 69 1074 b 135 1114 100 1107 115 1114 b 363 1047 206 1114 272 1047 b 531 1217 453 1047 513 1132 b 506 1251 535 1239 526 1251 l 496 1251 b 458 1231 476 1251 468 1243 b 397 1203 444 1213 432 1203 b 176 1265 338 1203 278 1265 z m 50 29 b 85 0 50 11 64 0 l 421 0 b 456 29 442 0 456 11 l 456 35 b 392 167 456 78 392 99 l 392 819 b 456 951 392 888 456 908 l 456 957 b 421 986 456 975 442 986 l 85 986 b 50 957 64 986 50 975 l 50 951 b 107 819 50 908 107 888 l 107 167 b 50 35 107 99 50 78 z "},"J":{"ha":815,"x_min":0,"x_max":0,"o":"m 435 819 l 435 285 b 371 96 435 179 422 96 b 136 385 249 96 344 385 b 10 247 60 385 10 329 b 361 -14 10 142 76 -17 b 724 465 593 -11 724 118 l 724 819 b 788 951 724 888 788 908 l 788 957 b 753 986 788 975 774 986 l 413 986 b 378 957 392 986 378 975 l 378 951 b 435 819 378 908 435 888 z "},"K":{"ha":1018,"x_min":0,"x_max":0,"o":"m 950 167 l 668 654 l 831 819 b 971 951 894 886 971 908 l 971 957 b 936 986 971 975 957 986 l 688 986 b 653 957 667 986 653 975 l 653 951 b 661 819 653 908 717 876 l 393 540 l 393 819 b 457 951 393 888 457 908 l 457 957 b 422 986 457 975 443 986 l 85 986 b 50 957 64 986 50 975 l 50 951 b 107 819 50 908 107 888 l 107 167 b 50 35 107 99 50 78 l 50 29 b 85 0 50 11 64 0 l 422 0 b 457 29 443 0 457 11 l 457 35 b 393 167 457 78 393 99 l 393 371 l 475 456 l 647 167 b 600 35 688 99 600 78 l 600 29 b 635 0 600 11 614 0 l 1017 0 b 1051 29 1038 0 1051 11 l 1051 35 b 950 167 1051 78 997 85 z "},"Ķ":{"ha":1018,"x_min":0,"x_max":0,"o":"m 950 167 l 668 654 l 831 819 b 971 951 894 886 971 908 l 971 957 b 936 986 971 975 957 986 l 688 986 b 653 957 667 986 653 975 l 653 951 b 661 819 653 908 717 876 l 393 540 l 393 819 b 457 951 393 888 457 908 l 457 957 b 422 986 457 975 443 986 l 85 986 b 50 957 64 986 50 975 l 50 951 b 107 819 50 908 107 888 l 107 167 b 50 35 107 99 50 78 l 50 29 b 85 0 50 11 64 0 l 422 0 b 457 29 443 0 457 11 l 457 35 b 393 167 457 78 393 99 l 393 371 l 475 456 l 647 167 b 600 35 688 99 600 78 l 600 29 b 635 0 600 11 614 0 l 1017 0 b 1051 29 1038 0 1051 11 l 1051 35 b 950 167 1051 78 997 85 z m 543 -33 b 408 -175 460 -33 408 -90 b 501 -297 408 -246 451 -297 b 518 -325 518 -297 519 -308 b 449 -428 517 -360 493 -382 b 490 -472 425 -451 461 -490 b 685 -193 624 -394 685 -301 b 543 -33 685 -90 615 -33 z "},"L":{"ha":857,"x_min":0,"x_max":0,"o":"m 85 0 l 754 0 b 806 49 788 0 800 15 l 843 279 b 811 317 847 301 835 317 l 790 317 b 569 108 719 317 696 108 l 469 108 b 396 208 417 108 396 158 l 396 819 b 460 951 396 888 460 908 l 460 957 b 425 986 460 975 446 986 l 85 986 b 50 957 64 986 50 975 l 50 951 b 107 819 50 908 107 888 l 107 167 b 50 35 107 99 50 78 l 50 29 b 85 0 50 11 64 0 z "},"Ĺ":{"ha":857,"x_min":0,"x_max":0,"o":"m 143 1072 l 440 1090 b 490 1165 486 1092 501 1126 l 457 1279 b 369 1314 444 1319 413 1338 l 106 1165 b 86 1104 85 1153 75 1128 b 143 1072 94 1082 118 1071 z m 85 0 l 754 0 b 806 49 788 0 800 15 l 843 279 b 811 317 847 301 835 317 l 790 317 b 569 108 719 317 696 108 l 469 108 b 396 208 417 108 396 158 l 396 819 b 460 951 396 888 460 908 l 460 957 b 425 986 460 975 446 986 l 85 986 b 50 957 64 986 50 975 l 50 951 b 107 819 50 908 107 888 l 107 167 b 50 35 107 99 50 78 l 50 29 b 85 0 50 11 64 0 z "},"Ľ":{"ha":864,"x_min":0,"x_max":0,"o":"m 569 747 b 631 747 590 733 614 739 b 807 1071 721 799 807 918 b 761 1114 807 1097 789 1114 l 653 1114 b 614 1071 631 1114 614 1093 b 547 808 614 992 604 882 b 553 758 532 789 539 768 z m 85 0 l 754 0 b 806 49 788 0 800 15 l 843 279 b 811 317 847 301 835 317 l 790 317 b 569 108 719 317 696 108 l 469 108 b 396 208 417 108 396 158 l 396 819 b 460 951 396 888 460 908 l 460 957 b 425 986 460 975 446 986 l 85 986 b 50 957 64 986 50 975 l 50 951 b 107 819 50 908 107 888 l 107 167 b 50 35 107 99 50 78 l 50 29 b 85 0 50 11 64 0 z "},"Ļ":{"ha":857,"x_min":0,"x_max":0,"o":"m 85 0 l 754 0 b 806 49 788 0 800 15 l 843 279 b 811 317 847 301 835 317 l 790 317 b 569 108 719 317 696 108 l 469 108 b 396 208 417 108 396 158 l 396 819 b 460 951 396 888 460 908 l 460 957 b 425 986 460 975 446 986 l 85 986 b 50 957 64 986 50 975 l 50 951 b 107 819 50 908 107 888 l 107 167 b 50 35 107 99 50 78 l 50 29 b 85 0 50 11 64 0 z m 385 -472 b 579 -193 518 -394 579 -301 b 438 -33 579 -90 510 -33 b 303 -175 354 -33 303 -90 b 396 -297 303 -246 346 -297 b 413 -325 413 -297 414 -308 b 343 -428 411 -360 388 -382 b 385 -472 319 -451 356 -490 z "},"Ŀ":{"ha":867,"x_min":0,"x_max":0,"o":"m 85 0 l 754 0 b 806 49 788 0 800 15 l 843 279 b 811 317 847 301 835 317 l 790 317 b 569 108 719 317 696 108 l 469 108 b 396 208 417 108 396 158 l 396 819 b 460 951 396 888 460 908 l 460 957 b 425 986 460 975 446 986 l 85 986 b 50 957 64 986 50 975 l 50 951 b 107 819 50 908 107 888 l 107 167 b 50 35 107 99 50 78 l 50 29 b 85 0 50 11 64 0 z m 672 385 b 835 529 760 385 835 429 b 672 674 835 629 760 674 b 510 529 585 674 510 629 b 672 385 510 429 585 385 z "},"Ł":{"ha":893,"x_min":0,"x_max":0,"o":"m 847 317 l 826 317 b 606 108 756 317 732 108 l 506 108 b 432 208 453 108 432 158 l 432 464 l 571 524 b 590 568 592 532 599 544 l 579 597 b 533 618 571 619 556 628 l 432 575 l 432 819 b 496 951 432 888 496 908 l 496 957 b 461 986 496 975 482 986 l 121 986 b 86 957 100 986 86 975 l 86 951 b 143 819 86 908 143 888 l 143 451 l 38 407 b 18 363 17 399 10 383 l 31 332 b 75 313 39 310 54 304 l 143 342 l 143 167 b 86 35 143 99 86 78 l 86 29 b 121 0 86 11 100 0 l 790 0 b 842 49 824 0 836 15 l 879 279 b 847 317 883 301 871 317 z "},"M":{"ha":1254,"x_min":0,"x_max":0,"o":"m 1186 167 l 1063 819 b 1119 951 1050 888 1119 908 l 1119 957 b 1085 986 1119 975 1106 986 l 871 986 b 793 929 832 986 806 967 l 621 396 l 438 932 b 358 986 425 968 397 986 l 150 986 b 115 957 129 986 115 975 l 115 951 b 172 819 115 908 182 888 l 74 167 b 17 35 64 99 17 78 l 17 29 b 51 0 17 11 31 0 l 236 0 b 271 29 257 0 271 11 l 271 35 b 221 167 271 78 211 99 l 285 621 l 518 43 b 581 1 531 14 550 1 b 635 44 611 1 625 15 l 829 593 l 903 167 b 853 35 914 100 853 78 l 853 29 b 888 0 853 11 867 0 l 1208 0 b 1243 29 1229 0 1243 11 l 1243 35 b 1186 167 1243 78 1199 99 z "},"N":{"ha":1058,"x_min":0,"x_max":0,"o":"m 988 986 l 792 986 b 757 957 771 986 757 975 l 757 951 b 819 819 757 908 819 888 l 819 357 l 401 938 b 321 986 378 969 358 986 l 85 986 b 50 957 64 986 50 975 l 50 951 b 107 819 50 908 107 888 l 107 167 b 50 35 107 99 50 78 l 50 29 b 85 0 50 11 64 0 l 278 0 b 313 29 299 0 313 11 l 313 35 b 246 167 313 78 246 99 l 246 665 l 715 49 b 796 0 738 19 758 0 l 886 0 b 958 72 932 0 958 26 l 958 819 b 1022 951 958 888 1022 908 l 1022 957 b 988 986 1022 975 1008 986 z "},"Ń":{"ha":1058,"x_min":0,"x_max":0,"o":"m 417 1072 l 714 1090 b 764 1165 760 1092 775 1126 l 731 1279 b 643 1314 718 1319 686 1338 l 379 1165 b 360 1104 358 1153 349 1128 b 417 1072 368 1082 392 1071 z m 988 986 l 792 986 b 757 957 771 986 757 975 l 757 951 b 819 819 757 908 819 888 l 819 357 l 401 938 b 321 986 378 969 358 986 l 85 986 b 50 957 64 986 50 975 l 50 951 b 107 819 50 908 107 888 l 107 167 b 50 35 107 99 50 78 l 50 29 b 85 0 50 11 64 0 l 278 0 b 313 29 299 0 313 11 l 313 35 b 246 167 313 78 246 99 l 246 665 l 715 49 b 796 0 738 19 758 0 l 886 0 b 958 72 932 0 958 26 l 958 819 b 1022 951 958 888 1022 908 l 1022 957 b 988 986 1022 975 1008 986 z "},"Ň":{"ha":1058,"x_min":0,"x_max":0,"o":"m 429 1068 b 501 1039 451 1046 472 1039 l 564 1039 b 636 1067 593 1039 614 1046 l 793 1213 b 739 1274 821 1238 774 1290 l 540 1181 l 338 1274 b 283 1213 307 1288 253 1243 z m 988 986 l 792 986 b 757 957 771 986 757 975 l 757 951 b 819 819 757 908 819 888 l 819 357 l 401 938 b 321 986 378 969 358 986 l 85 986 b 50 957 64 986 50 975 l 50 951 b 107 819 50 908 107 888 l 107 167 b 50 35 107 99 50 78 l 50 29 b 85 0 50 11 64 0 l 278 0 b 313 29 299 0 313 11 l 313 35 b 246 167 313 78 246 99 l 246 665 l 715 49 b 796 0 738 19 758 0 l 886 0 b 958 72 932 0 958 26 l 958 819 b 1022 951 958 888 1022 908 l 1022 957 b 988 986 1022 975 1008 986 z "},"Ņ":{"ha":1058,"x_min":0,"x_max":0,"o":"m 988 986 l 792 986 b 757 957 771 986 757 975 l 757 951 b 819 819 757 908 819 888 l 819 357 l 401 938 b 321 986 378 969 358 986 l 85 986 b 50 957 64 986 50 975 l 50 951 b 107 819 50 908 107 888 l 107 167 b 50 35 107 99 50 78 l 50 29 b 85 0 50 11 64 0 l 278 0 b 313 29 299 0 313 11 l 313 35 b 246 167 313 78 246 99 l 246 665 l 715 49 b 796 0 738 19 758 0 l 886 0 b 958 72 932 0 958 26 l 958 819 b 1022 951 958 888 1022 908 l 1022 957 b 988 986 1022 975 1008 986 z m 535 -33 b 400 -175 451 -33 400 -90 b 493 -297 400 -246 443 -297 b 510 -325 510 -297 511 -308 b 440 -428 508 -360 485 -382 b 482 -472 417 -451 453 -490 b 676 -193 615 -394 676 -301 b 535 -33 676 -90 607 -33 z "},"Ŋ":{"ha":1061,"x_min":0,"x_max":0,"o":"m 988 986 l 797 986 b 763 957 776 986 763 975 l 763 951 b 819 819 763 908 819 888 l 819 314 l 368 938 b 288 986 346 968 325 986 l 85 986 b 50 957 64 986 50 975 l 50 951 b 107 819 50 908 107 888 l 107 167 b 50 35 107 99 50 78 l 50 29 b 85 0 50 11 64 0 l 278 0 b 313 29 299 0 313 11 l 313 35 b 246 167 313 78 246 99 l 246 701 l 819 -17 l 819 -49 b 729 -225 819 -142 799 -225 b 521 53 611 -225 704 53 b 390 -87 444 53 390 1 b 689 -321 390 -179 471 -324 b 958 -25 893 -318 958 -199 l 958 819 b 1022 951 958 888 1022 908 l 1022 957 b 988 986 1022 975 1008 986 z "},"Ñ":{"ha":1058,"x_min":0,"x_max":0,"o":"m 311 1065 l 328 1065 b 368 1090 353 1065 353 1074 b 418 1114 383 1107 399 1114 b 646 1047 489 1114 556 1047 b 814 1217 736 1047 796 1132 b 789 1251 818 1239 810 1251 l 779 1251 b 742 1231 760 1251 751 1243 b 681 1203 728 1213 715 1203 b 460 1265 621 1203 561 1265 b 288 1099 371 1265 306 1186 b 311 1065 283 1076 294 1065 z m 988 986 l 792 986 b 757 957 771 986 757 975 l 757 951 b 819 819 757 908 819 888 l 819 357 l 401 938 b 321 986 378 969 358 986 l 85 986 b 50 957 64 986 50 975 l 50 951 b 107 819 50 908 107 888 l 107 167 b 50 35 107 99 50 78 l 50 29 b 85 0 50 11 64 0 l 278 0 b 313 29 299 0 313 11 l 313 35 b 246 167 313 78 246 99 l 246 665 l 715 49 b 796 0 738 19 758 0 l 886 0 b 958 72 932 0 958 26 l 958 819 b 1022 951 958 888 1022 908 l 1022 957 b 988 986 1022 975 1008 986 z "},"O":{"ha":1047,"x_min":0,"x_max":0,"o":"m 522 -14 b 1015 486 794 -14 1015 178 b 522 1000 1015 794 781 1000 b 32 486 228 1000 32 793 b 522 -14 32 178 271 -14 z m 606 103 b 307 724 463 103 307 476 b 419 883 307 832 344 883 b 721 258 564 883 721 468 b 606 103 721 153 683 103 z "},"Ó":{"ha":1047,"x_min":0,"x_max":0,"o":"m 394 1072 l 692 1090 b 742 1165 738 1092 753 1126 l 708 1279 b 621 1314 696 1319 664 1338 l 357 1165 b 338 1104 336 1153 326 1128 b 394 1072 346 1082 369 1071 z m 522 -14 b 1015 486 794 -14 1015 178 b 522 1000 1015 794 781 1000 b 32 486 228 1000 32 793 b 522 -14 32 178 271 -14 z m 606 103 b 307 724 463 103 307 476 b 419 883 307 832 344 883 b 721 258 564 883 721 468 b 606 103 721 153 683 103 z "},"Ô":{"ha":1047,"x_min":0,"x_max":0,"o":"m 311 1053 l 500 1156 l 714 1053 b 778 1132 778 1022 825 1085 l 606 1296 b 533 1325 585 1317 563 1325 l 479 1325 b 407 1294 450 1325 429 1319 l 254 1132 b 311 1053 203 1076 275 1033 z m 522 1000 b 32 486 228 1000 32 793 b 522 -14 32 178 271 -14 b 1015 486 794 -14 1015 178 b 522 1000 1015 794 781 1000 z m 606 103 b 307 724 463 103 307 476 b 419 883 307 832 344 883 b 721 258 564 883 721 468 b 606 103 721 153 683 103 z "},"Ö":{"ha":1047,"x_min":0,"x_max":0,"o":"m 335 1056 b 492 1194 429 1056 492 1117 b 335 1332 492 1272 429 1332 b 176 1194 240 1332 176 1272 b 335 1056 176 1117 240 1056 z m 703 1056 b 861 1194 797 1056 861 1117 b 703 1332 861 1272 797 1332 b 546 1194 608 1332 546 1272 b 703 1056 546 1117 608 1056 z m 522 -14 b 1015 486 794 -14 1015 178 b 522 1000 1015 794 781 1000 b 32 486 228 1000 32 793 b 522 -14 32 178 271 -14 z m 606 103 b 307 724 463 103 307 476 b 419 883 307 832 344 883 b 721 258 564 883 721 468 b 606 103 721 153 683 103 z "},"Ò":{"ha":1047,"x_min":0,"x_max":0,"o":"m 643 1060 b 700 1093 668 1060 692 1072 b 676 1154 708 1118 697 1143 l 406 1290 b 319 1251 361 1311 329 1292 l 292 1136 b 346 1063 282 1096 300 1063 z m 522 -14 b 1015 486 794 -14 1015 178 b 522 1000 1015 794 781 1000 b 32 486 228 1000 32 793 b 522 -14 32 178 271 -14 z m 606 103 b 307 724 463 103 307 476 b 419 883 307 832 344 883 b 721 258 564 883 721 468 b 606 103 721 153 683 103 z "},"Ő":{"ha":1047,"x_min":0,"x_max":0,"o":"m 293 1008 b 342 1013 307 997 324 1000 l 585 1183 b 583 1275 622 1208 617 1244 l 528 1328 b 438 1310 496 1358 463 1353 l 296 1058 b 293 1008 285 1038 282 1019 z m 603 1008 b 651 1013 615 997 633 1000 l 894 1183 b 893 1275 931 1208 926 1244 l 838 1328 b 747 1310 806 1358 772 1353 l 606 1058 b 603 1008 594 1038 590 1021 z m 522 -14 b 1015 486 794 -14 1015 178 b 522 1000 1015 794 781 1000 b 32 486 228 1000 32 793 b 522 -14 32 178 271 -14 z m 606 103 b 307 724 463 103 307 476 b 419 883 307 832 344 883 b 721 258 564 883 721 468 b 606 103 721 153 683 103 z "},"Ō":{"ha":1047,"x_min":0,"x_max":0,"o":"m 315 1090 l 715 1090 b 751 1126 739 1090 751 1103 l 751 1222 b 715 1258 751 1246 739 1258 l 315 1258 b 279 1222 292 1258 279 1246 l 279 1126 b 315 1090 279 1103 292 1090 z m 522 -14 b 1015 486 794 -14 1015 178 b 522 1000 1015 794 781 1000 b 32 486 228 1000 32 793 b 522 -14 32 178 271 -14 z m 606 103 b 307 724 463 103 307 476 b 419 883 307 832 344 883 b 721 258 564 883 721 468 b 606 103 721 153 683 103 z "},"Ǫ":{"ha":1047,"x_min":0,"x_max":0,"o":"m 678 8 b 1015 486 874 68 1015 239 b 522 1000 1015 794 781 1000 b 32 486 228 1000 32 793 b 522 -14 32 178 271 -14 l 538 -14 b 421 -185 447 -71 421 -126 b 600 -318 421 -290 522 -318 b 679 -307 633 -318 667 -312 b 671 -207 736 -285 721 -190 b 650 -211 663 -210 658 -211 b 614 -150 632 -211 613 -197 b 678 8 614 -114 631 -56 z m 307 724 b 419 883 307 832 344 883 b 721 258 564 883 721 468 b 606 103 721 153 683 103 b 307 724 463 103 307 476 z "},"Ø":{"ha":1061,"x_min":0,"x_max":0,"o":"m 1014 897 b 1019 939 1028 911 1031 928 l 979 976 b 932 971 967 989 947 986 l 843 886 b 529 1000 756 958 644 1000 b 39 486 235 1000 39 793 b 126 194 39 372 72 274 l 46 118 b 39 74 31 103 28 85 l 79 38 b 121 38 92 26 108 26 l 199 113 b 529 -14 289 31 407 -14 b 1022 486 801 -14 1022 178 b 919 806 1022 613 983 721 z m 314 724 b 426 883 314 832 351 883 b 621 672 494 883 565 792 l 368 428 b 314 724 335 526 314 633 z m 728 258 b 613 103 728 153 690 103 b 411 317 542 103 468 194 l 665 563 b 728 258 704 454 728 340 z "},"Ǿ":{"ha":1061,"x_min":0,"x_max":0,"o":"m 401 1072 l 699 1090 b 749 1165 744 1092 760 1126 l 715 1279 b 628 1314 703 1319 671 1338 l 364 1165 b 344 1104 343 1153 333 1128 b 401 1072 353 1082 376 1071 z m 1014 897 b 1019 939 1028 911 1031 928 l 979 976 b 932 971 967 989 947 986 l 843 886 b 529 1000 756 958 644 1000 b 39 486 235 1000 39 793 b 126 194 39 372 72 274 l 46 118 b 39 74 31 103 28 85 l 79 38 b 121 38 92 26 108 26 l 199 113 b 529 -14 289 31 407 -14 b 1022 486 801 -14 1022 178 b 919 806 1022 613 983 721 z m 314 724 b 426 883 314 832 351 883 b 621 672 494 883 565 792 l 368 428 b 314 724 335 526 314 633 z m 728 258 b 613 103 728 153 690 103 b 411 317 542 103 468 194 l 665 563 b 728 258 704 454 728 340 z "},"Õ":{"ha":1047,"x_min":0,"x_max":0,"o":"m 438 1265 b 265 1099 349 1265 283 1186 b 289 1065 261 1076 272 1065 l 306 1065 b 346 1090 331 1065 331 1074 b 396 1114 361 1107 376 1114 b 624 1047 467 1114 533 1047 b 792 1217 714 1047 774 1132 b 767 1251 796 1239 788 1251 l 757 1251 b 719 1231 738 1251 729 1243 b 658 1203 706 1213 693 1203 b 438 1265 599 1203 539 1265 z m 522 -14 b 1015 486 794 -14 1015 178 b 522 1000 1015 794 781 1000 b 32 486 228 1000 32 793 b 522 -14 32 178 271 -14 z m 606 103 b 307 724 463 103 307 476 b 419 883 307 832 344 883 b 721 258 564 883 721 468 b 606 103 721 153 683 103 z "},"Œ":{"ha":1421,"x_min":0,"x_max":0,"o":"m 1375 275 l 1346 275 b 1133 107 1279 275 1258 107 l 1033 107 b 942 207 963 107 942 157 l 942 439 l 1060 439 b 1192 325 1140 439 1149 325 l 1206 325 b 1235 360 1224 325 1235 339 l 1235 631 b 1206 665 1235 651 1224 665 l 1192 665 b 1060 546 1149 665 1140 546 l 942 546 l 942 807 b 1011 879 942 863 975 879 l 1104 879 b 1306 725 1204 879 1233 725 l 1324 725 b 1363 768 1350 725 1367 742 l 1335 940 b 1283 986 1329 974 1317 986 l 725 986 b 690 957 704 986 690 975 l 690 954 b 482 1000 628 985 557 1000 b 33 486 211 1000 33 793 b 510 -14 33 178 272 -14 b 690 26 575 -14 636 0 b 725 0 692 10 706 0 l 1318 0 b 1369 49 1351 0 1364 15 l 1404 240 b 1375 275 1408 260 1396 275 z m 607 103 b 308 724 464 103 308 476 b 421 883 308 832 346 883 b 722 258 565 883 722 468 b 607 103 722 153 685 103 z "},"P":{"ha":919,"x_min":0,"x_max":0,"o":"m 85 0 l 425 0 b 460 29 446 0 460 11 l 460 35 b 396 167 460 78 396 99 l 396 307 l 503 307 b 899 654 740 307 899 447 b 454 986 899 889 711 986 l 85 986 b 50 957 64 986 50 975 l 50 951 b 107 819 50 908 107 888 l 107 167 b 50 35 107 99 50 78 l 50 29 b 85 0 50 11 64 0 z m 464 414 b 396 486 414 414 396 440 l 396 807 b 450 879 396 853 415 879 l 454 879 b 601 588 521 879 601 764 b 503 414 601 501 574 414 z "},"Þ":{"ha":925,"x_min":0,"x_max":0,"o":"m 85 0 l 421 0 b 456 29 442 0 456 11 l 456 35 b 392 167 456 78 392 99 l 392 190 l 467 190 b 903 500 713 190 903 293 b 444 806 903 707 715 806 l 392 806 l 392 819 b 456 951 392 888 456 908 l 456 957 b 421 986 456 975 442 986 l 85 986 b 50 957 64 986 50 975 l 50 951 b 107 819 50 908 107 888 l 107 167 b 50 35 107 99 50 78 l 50 29 b 85 0 50 11 64 0 z m 444 297 b 392 350 411 297 392 317 l 392 646 b 444 699 392 679 411 699 l 458 699 b 606 461 525 699 606 606 b 493 297 606 347 560 297 z "},"Q":{"ha":1047,"x_min":0,"x_max":0,"o":"m 1063 -64 b 876 -89 1031 -64 1001 -89 b 592 -10 747 -89 668 -49 b 1015 486 831 21 1015 204 b 522 1000 1015 794 781 1000 b 32 486 228 1000 32 793 b 282 47 32 281 138 128 b 131 -65 207 29 156 -18 b 147 -143 110 -101 117 -143 b 313 -118 172 -143 229 -118 b 815 -272 533 -118 604 -272 b 1083 -89 963 -272 1083 -182 b 1063 -64 1083 -74 1075 -64 z m 419 883 b 721 258 564 883 721 468 b 606 103 721 153 683 103 b 307 724 463 103 307 476 b 419 883 307 832 344 883 z "},"R":{"ha":996,"x_min":0,"x_max":0,"o":"m 896 167 l 742 413 b 903 669 851 469 903 575 b 482 986 903 878 740 986 l 85 986 b 50 957 64 986 50 975 l 50 951 b 107 819 50 908 107 888 l 107 167 b 50 35 107 99 50 78 l 50 29 b 85 0 50 11 64 0 l 425 0 b 460 29 446 0 460 11 l 460 35 b 396 167 460 78 396 99 l 396 364 l 503 367 l 597 167 b 561 35 632 93 561 78 l 561 29 b 596 0 561 11 575 0 l 974 0 b 1008 29 994 0 1008 11 l 1008 35 b 896 167 1008 78 947 85 z m 396 592 l 396 800 b 453 878 396 844 418 878 l 460 878 b 606 642 525 878 606 783 b 518 474 606 518 563 474 l 490 474 b 396 592 428 474 396 503 z "},"Ŕ":{"ha":996,"x_min":0,"x_max":0,"o":"m 351 1072 l 649 1090 b 699 1165 694 1092 710 1126 l 665 1279 b 578 1314 653 1319 621 1338 l 314 1165 b 294 1104 293 1153 283 1128 b 351 1072 303 1082 326 1071 z m 896 167 l 742 413 b 903 669 851 469 903 575 b 482 986 903 878 740 986 l 85 986 b 50 957 64 986 50 975 l 50 951 b 107 819 50 908 107 888 l 107 167 b 50 35 107 99 50 78 l 50 29 b 85 0 50 11 64 0 l 425 0 b 460 29 446 0 460 11 l 460 35 b 396 167 460 78 396 99 l 396 364 l 503 367 l 597 167 b 561 35 632 93 561 78 l 561 29 b 596 0 561 11 575 0 l 974 0 b 1008 29 994 0 1008 11 l 1008 35 b 896 167 1008 78 947 85 z m 396 592 l 396 800 b 453 878 396 844 418 878 l 460 878 b 606 642 525 878 606 783 b 518 474 606 518 563 474 l 490 474 b 396 592 428 474 396 503 z "},"Ř":{"ha":996,"x_min":0,"x_max":0,"o":"m 364 1068 b 436 1039 386 1046 407 1039 l 499 1039 b 571 1067 528 1039 549 1046 l 728 1213 b 674 1274 756 1238 708 1290 l 475 1181 l 272 1274 b 218 1213 242 1288 188 1243 z m 896 167 l 742 413 b 903 669 851 469 903 575 b 482 986 903 878 740 986 l 85 986 b 50 957 64 986 50 975 l 50 951 b 107 819 50 908 107 888 l 107 167 b 50 35 107 99 50 78 l 50 29 b 85 0 50 11 64 0 l 425 0 b 460 29 446 0 460 11 l 460 35 b 396 167 460 78 396 99 l 396 364 l 503 367 l 597 167 b 561 35 632 93 561 78 l 561 29 b 596 0 561 11 575 0 l 974 0 b 1008 29 994 0 1008 11 l 1008 35 b 896 167 1008 78 947 85 z m 396 592 l 396 800 b 453 878 396 844 418 878 l 460 878 b 606 642 525 878 606 783 b 518 474 606 518 563 474 l 490 474 b 396 592 428 474 396 503 z "},"Ŗ":{"ha":996,"x_min":0,"x_max":0,"o":"m 896 167 l 742 413 b 903 669 851 469 903 575 b 482 986 903 878 740 986 l 85 986 b 50 957 64 986 50 975 l 50 951 b 107 819 50 908 107 888 l 107 167 b 50 35 107 99 50 78 l 50 29 b 85 0 50 11 64 0 l 425 0 b 460 29 446 0 460 11 l 460 35 b 396 167 460 78 396 99 l 396 364 l 503 367 l 597 167 b 561 35 632 93 561 78 l 561 29 b 596 0 561 11 575 0 l 974 0 b 1008 29 994 0 1008 11 l 1008 35 b 896 167 1008 78 947 85 z m 396 592 l 396 800 b 453 878 396 844 418 878 l 460 878 b 606 642 525 878 606 783 b 518 474 606 518 563 474 l 490 474 b 396 592 428 474 396 503 z m 504 -6 b 369 -147 421 -6 369 -62 b 463 -269 369 -218 413 -269 b 479 -297 479 -269 481 -281 b 410 -400 478 -332 454 -354 b 451 -444 386 -424 422 -462 b 646 -165 585 -367 646 -274 b 504 -6 646 -62 576 -6 z "},"S":{"ha":892,"x_min":0,"x_max":0,"o":"m 464 -14 b 853 278 674 -14 853 90 b 324 794 853 658 324 499 b 429 899 324 854 356 899 b 725 631 578 899 540 631 b 843 744 804 631 843 676 b 435 999 844 879 661 999 b 50 690 204 999 50 875 b 583 182 51 288 583 433 b 475 88 583 122 543 88 b 147 351 286 88 307 351 b 36 240 68 351 36 307 b 464 -14 36 107 217 -14 z "},"Ś":{"ha":892,"x_min":0,"x_max":0,"o":"m 326 1072 l 624 1090 b 674 1165 669 1092 685 1126 l 640 1279 b 553 1314 628 1319 596 1338 l 289 1165 b 269 1104 268 1153 258 1128 b 326 1072 278 1082 301 1071 z m 464 -14 b 853 278 674 -14 853 90 b 324 794 853 658 324 499 b 429 899 324 854 356 899 b 725 631 578 899 540 631 b 843 744 804 631 843 676 b 435 999 844 879 661 999 b 50 690 204 999 50 875 b 583 182 51 288 583 433 b 475 88 583 122 543 88 b 147 351 286 88 307 351 b 36 240 68 351 36 307 b 464 -14 36 107 217 -14 z "},"Š":{"ha":892,"x_min":0,"x_max":0,"o":"m 339 1068 b 411 1039 361 1046 382 1039 l 474 1039 b 546 1067 503 1039 524 1046 l 703 1213 b 649 1274 731 1238 683 1290 l 450 1181 l 247 1274 b 193 1213 217 1288 163 1243 z m 324 794 b 429 899 324 854 356 899 b 725 631 578 899 540 631 b 843 744 804 631 843 676 b 435 999 844 879 661 999 b 50 690 204 999 50 875 b 583 182 51 288 583 433 b 475 88 583 122 543 88 b 147 351 286 88 307 351 b 36 240 68 351 36 307 b 464 -14 36 107 217 -14 b 853 278 674 -14 853 90 b 324 794 853 658 324 499 z "},"Ş":{"ha":892,"x_min":0,"x_max":0,"o":"m 853 278 b 324 794 853 658 324 499 b 429 899 324 854 356 899 b 725 631 578 899 540 631 b 843 744 804 631 843 676 b 435 999 844 879 661 999 b 50 690 204 999 50 875 b 583 182 51 288 583 433 b 475 88 583 122 543 88 b 147 351 286 88 307 351 b 36 240 68 351 36 307 b 399 -11 36 119 186 8 l 382 -92 b 418 -133 375 -126 396 -133 b 500 -181 447 -133 500 -144 b 432 -232 500 -214 468 -232 b 353 -217 406 -232 371 -225 b 351 -304 321 -201 307 -283 b 475 -322 372 -314 413 -322 b 689 -192 586 -322 689 -283 b 507 -68 689 -99 594 -65 l 510 -12 b 853 278 699 1 853 104 z "},"Ș":{"ha":892,"x_min":0,"x_max":0,"o":"m 464 -14 b 853 278 674 -14 853 90 b 324 794 853 658 324 499 b 429 899 324 854 356 899 b 725 631 578 899 540 631 b 843 744 804 631 843 676 b 435 999 844 879 661 999 b 50 690 204 999 50 875 b 583 182 51 288 583 433 b 475 88 583 122 543 88 b 147 351 286 88 307 351 b 36 240 68 351 36 307 b 464 -14 36 107 217 -14 z m 393 -472 b 588 -193 526 -394 588 -301 b 446 -33 588 -90 518 -33 b 311 -175 363 -33 311 -90 b 404 -297 311 -246 354 -297 b 421 -325 421 -297 422 -308 b 351 -428 419 -360 396 -382 b 393 -472 328 -451 364 -490 z "},"ẞ":{"ha":1004,"x_min":0,"x_max":0,"o":"m 688 532 l 886 678 b 924 764 915 699 929 728 b 546 1000 900 914 721 1000 b 79 619 249 1000 79 850 l 79 167 b 22 35 79 99 22 78 l 22 29 b 57 0 22 11 36 0 l 392 0 b 426 29 413 0 426 -6 l 426 35 b 376 167 426 86 376 99 l 376 689 b 529 883 376 808 438 883 b 690 753 629 883 690 806 l 536 574 b 563 457 501 532 519 457 b 681 285 633 457 681 383 b 553 107 681 169 633 107 b 563 0 494 107 486 0 b 981 279 822 0 981 111 b 688 532 981 415 867 511 z "},"T":{"ha":903,"x_min":0,"x_max":0,"o":"m 282 0 l 621 0 b 656 29 642 0 656 11 l 656 35 b 593 167 656 78 593 99 l 593 869 l 635 869 b 825 697 735 869 753 697 l 851 697 b 890 740 878 697 894 714 l 863 940 b 811 986 858 974 844 986 l 92 986 b 40 940 58 986 44 974 l 13 740 b 51 697 8 714 25 697 l 78 697 b 268 869 150 697 168 869 l 310 869 l 310 167 b 249 35 310 99 249 78 l 249 29 b 282 0 249 11 261 0 z "},"Ŧ":{"ha":903,"x_min":0,"x_max":0,"o":"m 890 740 l 863 940 b 811 986 858 974 844 986 l 92 986 b 40 940 58 986 44 974 l 13 740 b 51 697 8 714 25 697 l 78 697 b 268 869 150 697 168 869 l 310 869 l 310 558 l 224 558 b 199 532 210 558 199 551 l 199 479 b 224 454 199 458 210 454 l 310 454 l 310 167 b 249 35 310 99 249 78 l 249 29 b 282 0 249 11 261 0 l 621 0 b 656 29 642 0 656 11 l 656 35 b 593 167 656 78 593 99 l 593 454 l 678 454 b 704 485 693 454 704 464 l 704 532 b 678 558 704 547 693 558 l 593 558 l 593 869 l 635 869 b 825 697 735 869 753 697 l 851 697 b 890 740 878 697 894 714 z "},"Ť":{"ha":903,"x_min":0,"x_max":0,"o":"m 343 1068 b 415 1039 365 1046 386 1039 l 478 1039 b 550 1067 507 1039 528 1046 l 707 1213 b 653 1274 735 1238 688 1290 l 454 1181 l 251 1274 b 197 1213 221 1288 167 1243 z m 890 740 l 863 940 b 811 986 858 974 844 986 l 92 986 b 40 940 58 986 44 974 l 13 740 b 51 697 8 714 25 697 l 78 697 b 268 869 150 697 168 869 l 310 869 l 310 167 b 249 35 310 99 249 78 l 249 29 b 282 0 249 11 261 0 l 621 0 b 656 29 642 0 656 11 l 656 35 b 593 167 656 78 593 99 l 593 869 l 635 869 b 825 697 735 869 753 697 l 851 697 b 890 740 878 697 894 714 z "},"Ţ":{"ha":903,"x_min":0,"x_max":0,"o":"m 890 740 l 863 940 b 811 986 858 974 844 986 l 92 986 b 40 940 58 986 44 974 l 13 740 b 51 697 8 714 25 697 l 78 697 b 268 869 150 697 168 869 l 310 869 l 310 167 b 249 35 310 99 249 78 l 249 29 b 282 0 249 11 261 0 l 404 0 l 385 -92 b 421 -133 378 -126 399 -133 b 503 -181 450 -133 503 -144 b 435 -232 503 -214 471 -232 b 356 -217 408 -232 374 -225 b 354 -304 324 -201 310 -283 b 478 -322 375 -314 415 -322 b 692 -192 589 -322 692 -283 b 510 -68 692 -99 597 -65 l 513 0 l 621 0 b 656 29 642 0 656 11 l 656 35 b 593 167 656 78 593 99 l 593 869 l 635 869 b 825 697 735 869 753 697 l 851 697 b 890 740 878 697 894 714 z "},"Ț":{"ha":903,"x_min":0,"x_max":0,"o":"m 282 0 l 621 0 b 656 29 642 0 656 11 l 656 35 b 593 167 656 78 593 99 l 593 869 l 635 869 b 825 697 735 869 753 697 l 851 697 b 890 740 878 697 894 714 l 863 940 b 811 986 858 974 844 986 l 92 986 b 40 940 58 986 44 974 l 13 740 b 51 697 8 714 25 697 l 78 697 b 268 869 150 697 168 869 l 310 869 l 310 167 b 249 35 310 99 249 78 l 249 29 b 282 0 249 11 261 0 z m 396 -472 b 590 -193 529 -394 590 -301 b 449 -33 590 -90 521 -33 b 314 -175 365 -33 314 -90 b 407 -297 314 -246 357 -297 b 424 -325 424 -297 425 -308 b 354 -428 422 -360 399 -382 b 396 -472 331 -451 367 -490 z "},"U":{"ha":1003,"x_min":0,"x_max":0,"o":"m 521 -14 b 911 367 753 -14 911 111 l 911 819 b 975 951 911 888 975 908 l 975 957 b 940 986 975 975 961 986 l 750 986 b 715 957 729 986 715 975 l 715 951 b 772 819 715 908 772 888 l 772 369 b 586 103 772 142 654 103 b 378 369 450 103 378 182 l 378 819 b 442 951 378 888 442 908 l 442 957 b 407 986 442 975 428 986 l 67 986 b 32 957 46 986 32 975 l 32 951 b 89 819 32 908 89 888 l 89 369 b 521 -14 89 111 268 -14 z "},"Ú":{"ha":1003,"x_min":0,"x_max":0,"o":"m 386 1072 l 683 1090 b 733 1165 729 1092 744 1126 l 700 1279 b 613 1314 688 1319 656 1338 l 349 1165 b 329 1104 328 1153 318 1128 b 386 1072 338 1082 361 1071 z m 521 -14 b 911 367 753 -14 911 111 l 911 819 b 975 951 911 888 975 908 l 975 957 b 940 986 975 975 961 986 l 750 986 b 715 957 729 986 715 975 l 715 951 b 772 819 715 908 772 888 l 772 369 b 586 103 772 142 654 103 b 378 369 450 103 378 182 l 378 819 b 442 951 378 888 442 908 l 442 957 b 407 986 442 975 428 986 l 67 986 b 32 957 46 986 32 975 l 32 951 b 89 819 32 908 89 888 l 89 369 b 521 -14 89 111 268 -14 z "},"Û":{"ha":1003,"x_min":0,"x_max":0,"o":"m 303 1053 l 492 1156 l 706 1053 b 769 1132 769 1022 817 1085 l 597 1296 b 525 1325 576 1317 554 1325 l 471 1325 b 399 1294 442 1325 421 1319 l 246 1132 b 303 1053 194 1076 267 1033 z m 940 986 l 750 986 b 715 957 729 986 715 975 l 715 951 b 772 819 715 908 772 888 l 772 369 b 586 103 772 142 654 103 b 378 369 450 103 378 182 l 378 819 b 442 951 378 888 442 908 l 442 957 b 407 986 442 975 428 986 l 67 986 b 32 957 46 986 32 975 l 32 951 b 89 819 32 908 89 888 l 89 369 b 521 -14 89 111 268 -14 b 911 367 753 -14 911 111 l 911 819 b 975 951 911 888 975 908 l 975 957 b 940 986 975 975 961 986 z "},"Ü":{"ha":1003,"x_min":0,"x_max":0,"o":"m 326 1056 b 483 1194 421 1056 483 1117 b 326 1332 483 1272 421 1332 b 168 1194 232 1332 168 1272 b 326 1056 168 1117 232 1056 z m 694 1056 b 853 1194 789 1056 853 1117 b 694 1332 853 1272 789 1332 b 538 1194 600 1332 538 1272 b 694 1056 538 1117 600 1056 z m 521 -14 b 911 367 753 -14 911 111 l 911 819 b 975 951 911 888 975 908 l 975 957 b 940 986 975 975 961 986 l 750 986 b 715 957 729 986 715 975 l 715 951 b 772 819 715 908 772 888 l 772 369 b 586 103 772 142 654 103 b 378 369 450 103 378 182 l 378 819 b 442 951 378 888 442 908 l 442 957 b 407 986 442 975 428 986 l 67 986 b 32 957 46 986 32 975 l 32 951 b 89 819 32 908 89 888 l 89 369 b 521 -14 89 111 268 -14 z "},"Ù":{"ha":1003,"x_min":0,"x_max":0,"o":"m 635 1060 b 692 1093 660 1060 683 1072 b 668 1154 700 1118 689 1143 l 397 1290 b 311 1251 353 1311 321 1292 l 283 1136 b 338 1063 274 1096 292 1063 z m 521 -14 b 911 367 753 -14 911 111 l 911 819 b 975 951 911 888 975 908 l 975 957 b 940 986 975 975 961 986 l 750 986 b 715 957 729 986 715 975 l 715 951 b 772 819 715 908 772 888 l 772 369 b 586 103 772 142 654 103 b 378 369 450 103 378 182 l 378 819 b 442 951 378 888 442 908 l 442 957 b 407 986 442 975 428 986 l 67 986 b 32 957 46 986 32 975 l 32 951 b 89 819 32 908 89 888 l 89 369 b 521 -14 89 111 268 -14 z "},"Ű":{"ha":1003,"x_min":0,"x_max":0,"o":"m 285 1008 b 333 1013 299 997 315 1000 l 576 1183 b 575 1275 614 1208 608 1244 l 519 1328 b 429 1310 488 1358 454 1353 l 288 1058 b 285 1008 276 1038 274 1019 z m 594 1008 b 643 1013 607 997 625 1000 l 886 1183 b 885 1275 922 1208 918 1244 l 829 1328 b 739 1310 797 1358 764 1353 l 597 1058 b 594 1008 586 1038 582 1021 z m 521 -14 b 911 367 753 -14 911 111 l 911 819 b 975 951 911 888 975 908 l 975 957 b 940 986 975 975 961 986 l 750 986 b 715 957 729 986 715 975 l 715 951 b 772 819 715 908 772 888 l 772 369 b 586 103 772 142 654 103 b 378 369 450 103 378 182 l 378 819 b 442 951 378 888 442 908 l 442 957 b 407 986 442 975 428 986 l 67 986 b 32 957 46 986 32 975 l 32 951 b 89 819 32 908 89 888 l 89 369 b 521 -14 89 111 268 -14 z "},"Ū":{"ha":1003,"x_min":0,"x_max":0,"o":"m 307 1090 l 707 1090 b 743 1126 731 1090 743 1103 l 743 1222 b 707 1258 743 1246 731 1258 l 307 1258 b 271 1222 283 1258 271 1246 l 271 1126 b 307 1090 271 1103 283 1090 z m 521 -14 b 911 367 753 -14 911 111 l 911 819 b 975 951 911 888 975 908 l 975 957 b 940 986 975 975 961 986 l 750 986 b 715 957 729 986 715 975 l 715 951 b 772 819 715 908 772 888 l 772 369 b 586 103 772 142 654 103 b 378 369 450 103 378 182 l 378 819 b 442 951 378 888 442 908 l 442 957 b 407 986 442 975 428 986 l 67 986 b 32 957 46 986 32 975 l 32 951 b 89 819 32 908 89 888 l 89 369 b 521 -14 89 111 268 -14 z "},"Ų":{"ha":1003,"x_min":0,"x_max":0,"o":"m 940 986 l 750 986 b 715 957 729 986 715 975 l 715 951 b 772 819 715 908 772 888 l 772 369 b 586 103 772 142 654 103 b 378 369 450 103 378 182 l 378 819 b 442 951 378 888 442 908 l 442 957 b 407 986 442 975 428 986 l 67 986 b 32 957 46 986 32 975 l 32 951 b 89 819 32 908 89 888 l 89 369 b 486 -12 89 124 251 -1 b 375 -181 401 -69 375 -124 b 554 -314 375 -286 476 -314 b 633 -303 588 -314 621 -308 b 625 -203 690 -281 675 -186 b 604 -207 617 -206 613 -207 b 568 -146 586 -207 567 -193 b 619 -6 568 -114 582 -62 b 911 367 797 26 911 150 l 911 819 b 975 951 911 888 975 908 l 975 957 b 940 986 975 975 961 986 z "},"Ů":{"ha":1003,"x_min":0,"x_max":0,"o":"m 515 1019 b 736 1186 650 1019 736 1085 b 517 1339 736 1276 642 1339 b 297 1174 388 1339 297 1278 b 515 1019 297 1086 390 1019 z m 517 1092 b 457 1181 485 1092 457 1125 b 517 1263 457 1249 485 1263 b 576 1181 549 1263 576 1236 b 517 1092 576 1111 549 1092 z m 521 -14 b 911 367 753 -14 911 111 l 911 819 b 975 951 911 888 975 908 l 975 957 b 940 986 975 975 961 986 l 750 986 b 715 957 729 986 715 975 l 715 951 b 772 819 715 908 772 888 l 772 369 b 586 103 772 142 654 103 b 378 369 450 103 378 182 l 378 819 b 442 951 378 888 442 908 l 442 957 b 407 986 442 975 428 986 l 67 986 b 32 957 46 986 32 975 l 32 951 b 89 819 32 908 89 888 l 89 369 b 521 -14 89 111 268 -14 z "},"Ũ":{"ha":1003,"x_min":0,"x_max":0,"o":"m 429 1265 b 257 1099 340 1265 275 1186 b 281 1065 253 1076 264 1065 l 297 1065 b 338 1090 322 1065 322 1074 b 388 1114 353 1107 368 1114 b 615 1047 458 1114 525 1047 b 783 1217 706 1047 765 1132 b 758 1251 788 1239 779 1251 l 749 1251 b 711 1231 729 1251 721 1243 b 650 1203 697 1213 685 1203 b 429 1265 590 1203 531 1265 z m 521 -14 b 911 367 753 -14 911 111 l 911 819 b 975 951 911 888 975 908 l 975 957 b 940 986 975 975 961 986 l 750 986 b 715 957 729 986 715 975 l 715 951 b 772 819 715 908 772 888 l 772 369 b 586 103 772 142 654 103 b 378 369 450 103 378 182 l 378 819 b 442 951 378 888 442 908 l 442 957 b 407 986 442 975 428 986 l 67 986 b 32 957 46 986 32 975 l 32 951 b 89 819 32 908 89 888 l 89 369 b 521 -14 89 111 268 -14 z "},"V":{"ha":1018,"x_min":0,"x_max":0,"o":"m 992 986 l 761 986 b 726 957 740 986 726 975 l 726 951 b 790 819 726 908 817 888 l 601 322 l 406 819 b 469 951 379 886 469 908 l 469 957 b 435 986 469 975 456 986 l 18 986 b -17 957 -3 986 -17 975 l -17 951 b 68 819 -17 908 33 894 l 415 72 b 518 0 438 24 467 0 b 629 78 574 0 607 24 l 942 819 b 1026 951 976 901 1026 908 l 1026 957 b 992 986 1026 975 1013 986 z "},"W":{"ha":1432,"x_min":0,"x_max":0,"o":"m 1400 986 l 1171 986 b 1136 957 1150 986 1136 975 l 1136 951 b 1196 819 1136 908 1218 888 l 1046 354 l 921 819 b 986 951 900 899 986 908 l 986 957 b 951 986 986 975 972 986 l 578 986 b 543 957 557 986 543 975 l 543 951 b 640 819 543 908 621 882 l 669 731 l 549 349 l 375 819 b 429 951 350 888 429 908 l 429 957 b 394 986 429 975 415 986 l 14 986 b -21 957 -7 986 -21 975 l -21 951 b 74 819 -21 908 40 896 l 397 72 b 499 0 418 24 440 0 b 592 78 543 0 575 25 l 736 524 l 881 72 b 983 0 896 24 932 0 b 1088 78 1032 0 1068 24 l 1346 819 b 1435 951 1374 900 1435 908 l 1435 957 b 1400 986 1435 975 1421 986 z "},"Ẃ":{"ha":1432,"x_min":0,"x_max":0,"o":"m 647 1072 l 944 1090 b 994 1165 990 1092 1006 1126 l 961 1279 b 874 1314 949 1319 917 1338 l 610 1165 b 590 1104 589 1153 579 1128 b 647 1072 599 1082 622 1071 z m 1400 986 l 1171 986 b 1136 957 1150 986 1136 975 l 1136 951 b 1196 819 1136 908 1218 888 l 1046 354 l 921 819 b 986 951 900 899 986 908 l 986 957 b 951 986 986 975 972 986 l 578 986 b 543 957 557 986 543 975 l 543 951 b 640 819 543 908 621 882 l 669 731 l 549 349 l 375 819 b 429 951 350 888 429 908 l 429 957 b 394 986 429 975 415 986 l 14 986 b -21 957 -7 986 -21 975 l -21 951 b 74 819 -21 908 40 896 l 397 72 b 499 0 418 24 440 0 b 592 78 543 0 575 25 l 736 524 l 881 72 b 983 0 896 24 932 0 b 1088 78 1032 0 1068 24 l 1346 819 b 1435 951 1374 900 1435 908 l 1435 957 b 1400 986 1435 975 1421 986 z "},"Ŵ":{"ha":1432,"x_min":0,"x_max":0,"o":"m 564 1053 l 753 1156 l 967 1053 b 1031 1132 1031 1022 1078 1085 l 858 1296 b 786 1325 838 1317 815 1325 l 732 1325 b 660 1294 703 1325 682 1319 l 507 1132 b 564 1053 456 1076 528 1033 z m 1400 986 l 1171 986 b 1136 957 1150 986 1136 975 l 1136 951 b 1196 819 1136 908 1218 888 l 1046 354 l 921 819 b 986 951 900 899 986 908 l 986 957 b 951 986 986 975 972 986 l 578 986 b 543 957 557 986 543 975 l 543 951 b 640 819 543 908 621 882 l 669 731 l 549 349 l 375 819 b 429 951 350 888 429 908 l 429 957 b 394 986 429 975 415 986 l 14 986 b -21 957 -7 986 -21 975 l -21 951 b 74 819 -21 908 40 896 l 397 72 b 499 0 418 24 440 0 b 592 78 543 0 575 25 l 736 524 l 881 72 b 983 0 896 24 932 0 b 1088 78 1032 0 1068 24 l 1346 819 b 1435 951 1374 900 1435 908 l 1435 957 b 1400 986 1435 975 1421 986 z "},"Ẅ":{"ha":1432,"x_min":0,"x_max":0,"o":"m 588 1056 b 744 1194 682 1056 744 1117 b 588 1332 744 1272 682 1332 b 429 1194 493 1332 429 1272 b 588 1056 429 1117 493 1056 z m 956 1056 b 1114 1194 1050 1056 1114 1117 b 956 1332 1114 1272 1050 1332 b 799 1194 861 1332 799 1272 b 956 1056 799 1117 861 1056 z m 1400 986 l 1171 986 b 1136 957 1150 986 1136 975 l 1136 951 b 1196 819 1136 908 1218 888 l 1046 354 l 921 819 b 986 951 900 899 986 908 l 986 957 b 951 986 986 975 972 986 l 578 986 b 543 957 557 986 543 975 l 543 951 b 640 819 543 908 621 882 l 669 731 l 549 349 l 375 819 b 429 951 350 888 429 908 l 429 957 b 394 986 429 975 415 986 l 14 986 b -21 957 -7 986 -21 975 l -21 951 b 74 819 -21 908 40 896 l 397 72 b 499 0 418 24 440 0 b 592 78 543 0 575 25 l 736 524 l 881 72 b 983 0 896 24 932 0 b 1088 78 1032 0 1068 24 l 1346 819 b 1435 951 1374 900 1435 908 l 1435 957 b 1400 986 1435 975 1421 986 z "},"Ẁ":{"ha":1432,"x_min":0,"x_max":0,"o":"m 599 1063 l 896 1060 b 953 1093 921 1060 944 1072 b 929 1154 961 1118 950 1143 l 658 1290 b 572 1251 614 1311 582 1292 l 544 1136 b 599 1063 535 1096 553 1063 z m 1400 986 l 1171 986 b 1136 957 1150 986 1136 975 l 1136 951 b 1196 819 1136 908 1218 888 l 1046 354 l 921 819 b 986 951 900 899 986 908 l 986 957 b 951 986 986 975 972 986 l 578 986 b 543 957 557 986 543 975 l 543 951 b 640 819 543 908 621 882 l 669 731 l 549 349 l 375 819 b 429 951 350 888 429 908 l 429 957 b 394 986 429 975 415 986 l 14 986 b -21 957 -7 986 -21 975 l -21 951 b 74 819 -21 908 40 896 l 397 72 b 499 0 418 24 440 0 b 592 78 543 0 575 25 l 736 524 l 881 72 b 983 0 896 24 932 0 b 1088 78 1032 0 1068 24 l 1346 819 b 1435 951 1374 900 1435 908 l 1435 957 b 1400 986 1435 975 1421 986 z "},"X":{"ha":1032,"x_min":0,"x_max":0,"o":"m 921 167 l 672 507 l 889 819 b 1028 951 939 892 1028 908 l 1028 957 b 993 986 1028 975 1014 986 l 710 986 b 675 957 689 986 675 975 l 675 951 b 722 819 675 908 761 878 l 592 618 l 444 819 b 481 951 401 878 481 908 l 481 957 b 446 986 481 975 467 986 l 35 986 b 0 957 14 986 0 975 l 0 951 b 113 819 0 908 58 894 l 356 482 l 129 167 b 3 35 79 97 3 78 l 3 29 b 38 0 3 11 17 0 l 294 0 b 329 29 315 0 329 11 l 329 35 b 307 167 329 78 268 107 l 436 369 l 582 167 b 547 35 625 107 547 78 l 547 29 b 582 0 547 11 561 0 l 1000 0 b 1035 29 1021 0 1035 11 l 1035 35 b 921 167 1035 78 974 93 z "},"Y":{"ha":979,"x_min":0,"x_max":0,"o":"m 939 986 l 714 986 b 679 957 693 986 679 975 l 679 951 b 742 819 679 908 778 888 l 582 521 l 421 819 b 485 951 386 883 485 908 l 485 957 b 450 986 485 975 471 986 l 26 986 b -8 957 6 986 -8 975 l -8 951 b 92 819 -8 908 46 893 l 363 381 l 363 167 b 306 35 363 99 306 78 l 306 29 b 340 0 306 11 319 0 l 681 0 b 715 29 701 0 715 11 l 715 35 b 651 167 715 78 651 99 l 651 408 l 876 819 b 974 951 919 899 974 908 l 974 957 b 939 986 974 975 960 986 z "},"Ý":{"ha":979,"x_min":0,"x_max":0,"o":"m 393 1072 l 690 1090 b 740 1165 736 1092 751 1126 l 707 1279 b 619 1314 694 1319 663 1338 l 356 1165 b 336 1104 335 1153 325 1128 b 393 1072 344 1082 368 1071 z m 939 986 l 714 986 b 679 957 693 986 679 975 l 679 951 b 742 819 679 908 778 888 l 582 521 l 421 819 b 485 951 386 883 485 908 l 485 957 b 450 986 485 975 471 986 l 26 986 b -8 957 6 986 -8 975 l -8 951 b 92 819 -8 908 46 893 l 363 381 l 363 167 b 306 35 363 99 306 78 l 306 29 b 340 0 306 11 319 0 l 681 0 b 715 29 701 0 715 11 l 715 35 b 651 167 715 78 651 99 l 651 408 l 876 819 b 974 951 919 899 974 908 l 974 957 b 939 986 974 975 960 986 z "},"Ŷ":{"ha":979,"x_min":0,"x_max":0,"o":"m 310 1053 l 499 1156 l 713 1053 b 776 1132 776 1022 824 1085 l 604 1296 b 532 1325 583 1317 561 1325 l 478 1325 b 406 1294 449 1325 428 1319 l 253 1132 b 310 1053 201 1076 274 1033 z m 939 986 l 714 986 b 679 957 693 986 679 975 l 679 951 b 742 819 679 908 778 888 l 582 521 l 421 819 b 485 951 386 883 485 908 l 485 957 b 450 986 485 975 471 986 l 26 986 b -8 957 6 986 -8 975 l -8 951 b 92 819 -8 908 46 893 l 363 381 l 363 167 b 306 35 363 99 306 78 l 306 29 b 340 0 306 11 319 0 l 681 0 b 715 29 701 0 715 11 l 715 35 b 651 167 715 78 651 99 l 651 408 l 876 819 b 974 951 919 899 974 908 l 974 957 b 939 986 974 975 960 986 z "},"Ÿ":{"ha":979,"x_min":0,"x_max":0,"o":"m 333 1056 b 490 1194 428 1056 490 1117 b 333 1332 490 1272 428 1332 b 175 1194 239 1332 175 1272 b 333 1056 175 1117 239 1056 z m 701 1056 b 860 1194 796 1056 860 1117 b 701 1332 860 1272 796 1332 b 544 1194 607 1332 544 1272 b 701 1056 544 1117 607 1056 z m 939 986 l 714 986 b 679 957 693 986 679 975 l 679 951 b 742 819 679 908 778 888 l 582 521 l 421 819 b 485 951 386 883 485 908 l 485 957 b 450 986 485 975 471 986 l 26 986 b -8 957 6 986 -8 975 l -8 951 b 92 819 -8 908 46 893 l 363 381 l 363 167 b 306 35 363 99 306 78 l 306 29 b 340 0 306 11 319 0 l 681 0 b 715 29 701 0 715 11 l 715 35 b 651 167 715 78 651 99 l 651 408 l 876 819 b 974 951 919 899 974 908 l 974 957 b 939 986 974 975 960 986 z "},"Ỳ":{"ha":979,"x_min":0,"x_max":0,"o":"m 344 1063 l 642 1060 b 699 1093 667 1060 690 1072 b 675 1154 707 1118 696 1143 l 404 1290 b 318 1251 360 1311 328 1292 l 290 1136 b 344 1063 281 1096 299 1063 z m 939 986 l 714 986 b 679 957 693 986 679 975 l 679 951 b 742 819 679 908 778 888 l 582 521 l 421 819 b 485 951 386 883 485 908 l 485 957 b 450 986 485 975 471 986 l 26 986 b -8 957 6 986 -8 975 l -8 951 b 92 819 -8 908 46 893 l 363 381 l 363 167 b 306 35 363 99 306 78 l 306 29 b 340 0 306 11 319 0 l 681 0 b 715 29 701 0 715 11 l 715 35 b 651 167 715 78 651 99 l 651 408 l 876 819 b 974 951 919 899 974 908 l 974 957 b 939 986 974 975 960 986 z "},"Ỹ":{"ha":979,"x_min":0,"x_max":0,"o":"m 288 1065 l 304 1065 b 344 1090 329 1065 329 1074 b 394 1114 360 1107 375 1114 b 622 1047 465 1114 532 1047 b 790 1217 713 1047 772 1132 b 765 1251 794 1239 786 1251 l 756 1251 b 718 1231 736 1251 728 1243 b 657 1203 704 1213 692 1203 b 436 1265 597 1203 538 1265 b 264 1099 347 1265 282 1186 b 288 1065 260 1076 271 1065 z m 939 986 l 714 986 b 679 957 693 986 679 975 l 679 951 b 742 819 679 908 778 888 l 582 521 l 421 819 b 485 951 386 883 485 908 l 485 957 b 450 986 485 975 471 986 l 26 986 b -8 957 6 986 -8 975 l -8 951 b 92 819 -8 908 46 893 l 363 381 l 363 167 b 306 35 363 99 306 78 l 306 29 b 340 0 306 11 319 0 l 681 0 b 715 29 701 0 715 11 l 715 35 b 651 167 715 78 651 99 l 651 408 l 876 819 b 974 951 919 899 974 908 l 974 957 b 939 986 974 975 960 986 z "},"Z":{"ha":889,"x_min":0,"x_max":0,"o":"m 843 303 l 838 303 b 590 107 757 303 704 107 l 385 107 l 810 853 b 850 931 828 885 850 921 l 850 951 b 815 986 850 971 835 986 l 114 986 b 63 940 81 986 69 972 l 22 757 b 65 700 14 718 32 700 l 74 700 b 286 879 167 700 204 879 l 497 879 l 53 118 b 19 56 43 101 19 75 l 19 35 b 58 0 19 15 39 0 l 799 0 b 833 35 818 0 829 15 l 878 260 b 843 303 883 286 874 303 z "},"Ź":{"ha":889,"x_min":0,"x_max":0,"o":"m 344 1072 l 642 1090 b 692 1165 688 1092 703 1126 l 658 1279 b 571 1314 646 1319 614 1338 l 307 1165 b 288 1104 286 1153 276 1128 b 344 1072 296 1082 319 1071 z m 843 303 l 838 303 b 590 107 757 303 704 107 l 385 107 l 810 853 b 850 931 828 885 850 921 l 850 951 b 815 986 850 971 835 986 l 114 986 b 63 940 81 986 69 972 l 22 757 b 65 700 14 718 32 700 l 74 700 b 286 879 167 700 204 879 l 497 879 l 53 118 b 19 56 43 101 19 75 l 19 35 b 58 0 19 15 39 0 l 799 0 b 833 35 818 0 829 15 l 878 260 b 843 303 883 286 874 303 z "},"Ž":{"ha":889,"x_min":0,"x_max":0,"o":"m 357 1068 b 429 1039 379 1046 400 1039 l 492 1039 b 564 1067 521 1039 542 1046 l 721 1213 b 667 1274 749 1238 701 1290 l 468 1181 l 265 1274 b 211 1213 235 1288 181 1243 z m 843 303 l 838 303 b 590 107 757 303 704 107 l 385 107 l 810 853 b 850 931 828 885 850 921 l 850 951 b 815 986 850 971 835 986 l 114 986 b 63 940 81 986 69 972 l 22 757 b 65 700 14 718 32 700 l 74 700 b 286 879 167 700 204 879 l 497 879 l 53 118 b 19 56 43 101 19 75 l 19 35 b 58 0 19 15 39 0 l 799 0 b 833 35 818 0 829 15 l 878 260 b 843 303 883 286 874 303 z "},"Ż":{"ha":889,"x_min":0,"x_max":0,"o":"m 478 1039 b 638 1178 574 1039 638 1100 b 478 1317 638 1257 574 1317 b 318 1178 382 1317 318 1257 b 478 1039 318 1100 382 1039 z m 843 303 l 838 303 b 590 107 757 303 704 107 l 385 107 l 810 853 b 850 931 828 885 850 921 l 850 951 b 815 986 850 971 835 986 l 114 986 b 63 940 81 986 69 972 l 22 757 b 65 700 14 718 32 700 l 74 700 b 286 879 167 700 204 879 l 497 879 l 53 118 b 19 56 43 101 19 75 l 19 35 b 58 0 19 15 39 0 l 799 0 b 833 35 818 0 829 15 l 878 260 b 843 303 883 286 874 303 z "},"a":{"ha":782,"x_min":0,"x_max":0,"o":"m 714 163 l 682 403 b 332 681 660 572 522 681 b 46 515 193 681 46 639 b 156 415 46 456 90 415 b 332 608 293 415 250 608 b 413 381 394 608 396 542 b 279 411 378 400 333 411 b 31 197 150 411 31 339 b 294 -14 31 53 147 -14 b 465 53 383 -14 436 17 b 608 -8 478 8 519 -8 b 782 42 690 -8 782 1 b 714 163 782 82 728 60 z m 383 64 b 313 251 338 64 313 151 b 360 331 313 299 332 331 b 428 219 386 331 417 306 l 433 154 b 383 64 436 115 418 64 z "},"á":{"ha":782,"x_min":0,"x_max":0,"o":"m 233 754 l 524 819 b 560 903 568 829 578 865 l 508 1010 b 417 1029 490 1047 456 1060 l 181 839 b 171 775 163 824 157 797 b 233 754 183 756 208 749 z m 714 163 l 682 403 b 332 681 660 572 522 681 b 46 515 193 681 46 639 b 156 415 46 456 90 415 b 332 608 293 415 250 608 b 413 381 394 608 396 542 b 279 411 378 400 333 411 b 31 197 150 411 31 339 b 294 -14 31 53 147 -14 b 465 53 383 -14 436 17 b 608 -8 478 8 519 -8 b 782 42 690 -8 782 1 b 714 163 782 82 728 60 z m 383 64 b 313 251 338 64 313 151 b 360 331 313 299 332 331 b 428 219 386 331 417 306 l 433 154 b 383 64 436 115 418 64 z "},"ă":{"ha":782,"x_min":0,"x_max":0,"o":"m 358 751 b 610 946 506 751 596 838 b 519 978 614 989 536 1001 b 358 911 496 938 429 911 b 197 978 290 911 221 938 b 107 946 178 1006 101 996 b 358 751 121 838 217 751 z m 714 163 l 682 403 b 332 681 660 572 522 681 b 46 515 193 681 46 639 b 156 415 46 456 90 415 b 332 608 293 415 250 608 b 413 381 394 608 396 542 b 279 411 378 400 333 411 b 31 197 150 411 31 339 b 294 -14 31 53 147 -14 b 465 53 383 -14 436 17 b 608 -8 478 8 519 -8 b 782 42 690 -8 782 1 b 714 163 782 82 728 60 z m 383 64 b 313 251 338 64 313 151 b 360 331 313 299 332 331 b 428 219 386 331 417 306 l 433 154 b 383 64 436 115 418 64 z "},"â":{"ha":782,"x_min":0,"x_max":0,"o":"m 156 750 l 344 853 l 558 750 b 622 829 622 719 669 782 l 450 993 b 378 1022 429 1014 407 1022 l 324 1022 b 251 992 294 1022 274 1017 l 99 829 b 156 750 47 774 119 731 z m 714 163 l 682 403 b 332 681 660 572 522 681 b 46 515 193 681 46 639 b 156 415 46 456 90 415 b 332 608 293 415 250 608 b 413 381 394 608 396 542 b 279 411 378 400 333 411 b 31 197 150 411 31 339 b 294 -14 31 53 147 -14 b 465 53 383 -14 436 17 b 608 -8 478 8 519 -8 b 782 42 690 -8 782 1 b 714 163 782 82 728 60 z m 383 64 b 313 251 338 64 313 151 b 360 331 313 299 332 331 b 428 219 386 331 417 306 l 433 154 b 383 64 436 115 418 64 z "},"ä":{"ha":782,"x_min":0,"x_max":0,"o":"m 175 743 b 332 882 269 743 332 804 b 175 1019 332 960 269 1019 b 17 882 81 1019 17 960 b 175 743 17 804 81 743 z m 543 743 b 701 882 638 743 701 804 b 543 1019 701 960 638 1019 b 386 882 449 1019 386 960 b 543 743 386 804 449 743 z m 714 163 l 682 403 b 332 681 660 572 522 681 b 46 515 193 681 46 639 b 156 415 46 456 90 415 b 332 608 293 415 250 608 b 413 381 394 608 396 542 b 279 411 378 400 333 411 b 31 197 150 411 31 339 b 294 -14 31 53 147 -14 b 465 53 383 -14 436 17 b 608 -8 478 8 519 -8 b 782 42 690 -8 782 1 b 714 163 782 82 728 60 z m 383 64 b 313 251 338 64 313 151 b 360 331 313 299 332 331 b 428 219 386 331 417 306 l 433 154 b 383 64 436 115 418 64 z "},"à":{"ha":782,"x_min":0,"x_max":0,"o":"m 182 810 l 472 744 b 535 765 497 739 522 746 b 525 829 549 788 543 814 l 289 1019 b 197 1000 250 1050 215 1038 l 146 893 b 182 810 128 856 138 819 z m 714 163 l 682 403 b 332 681 660 572 522 681 b 46 515 193 681 46 639 b 156 415 46 456 90 415 b 332 608 293 415 250 608 b 413 381 394 608 396 542 b 279 411 378 400 333 411 b 31 197 150 411 31 339 b 294 -14 31 53 147 -14 b 465 53 383 -14 436 17 b 608 -8 478 8 519 -8 b 782 42 690 -8 782 1 b 714 163 782 82 728 60 z m 383 64 b 313 251 338 64 313 151 b 360 331 313 299 332 331 b 428 219 386 331 417 306 l 433 154 b 383 64 436 115 418 64 z "},"ā":{"ha":782,"x_min":0,"x_max":0,"o":"m 160 792 l 560 792 b 596 828 583 792 596 804 l 596 924 b 560 960 596 947 583 960 l 160 960 b 124 924 136 960 124 947 l 124 828 b 160 792 124 804 136 792 z m 714 163 l 682 403 b 332 681 660 572 522 681 b 46 515 193 681 46 639 b 156 415 46 456 90 415 b 332 608 293 415 250 608 b 413 381 394 608 396 542 b 279 411 378 400 333 411 b 31 197 150 411 31 339 b 294 -14 31 53 147 -14 b 465 53 383 -14 436 17 b 608 -8 478 8 519 -8 b 782 42 690 -8 782 1 b 714 163 782 82 728 60 z m 383 64 b 313 251 338 64 313 151 b 360 331 313 299 332 331 b 428 219 386 331 417 306 l 433 154 b 383 64 436 115 418 64 z "},"ą":{"ha":782,"x_min":0,"x_max":0,"o":"m 699 -3 b 782 42 746 3 782 17 b 714 163 782 82 728 60 l 682 403 b 332 681 660 572 522 681 b 46 515 193 681 46 639 b 156 415 46 456 90 415 b 332 608 293 415 250 608 b 413 381 394 608 396 542 b 279 411 378 400 333 411 b 31 197 150 411 31 339 b 294 -14 31 53 147 -14 b 465 53 383 -14 436 17 b 572 -7 476 14 508 -3 b 453 -181 481 -65 453 -121 b 632 -314 453 -286 554 -314 b 711 -303 665 -314 699 -308 b 703 -203 768 -281 753 -186 b 682 -207 694 -206 690 -207 b 646 -146 664 -207 644 -193 b 699 -3 646 -112 660 -61 z m 383 64 b 313 251 338 64 313 151 b 360 331 313 299 332 331 b 428 219 386 331 417 306 l 433 154 b 383 64 436 115 418 64 z "},"å":{"ha":782,"x_min":0,"x_max":0,"o":"m 358 735 b 579 901 493 735 579 800 b 360 1054 579 992 485 1054 b 140 889 231 1054 140 993 b 358 735 140 801 233 735 z m 360 978 b 419 896 392 978 419 951 b 360 807 419 826 392 807 b 300 896 328 807 300 840 b 360 978 300 964 328 978 z m 714 163 l 682 403 b 332 681 660 572 522 681 b 46 515 193 681 46 639 b 156 415 46 456 90 415 b 332 608 293 415 250 608 b 413 381 394 608 396 542 b 279 411 378 400 333 411 b 31 197 150 411 31 339 b 294 -14 31 53 147 -14 b 465 53 383 -14 436 17 b 608 -8 478 8 519 -8 b 782 42 690 -8 782 1 b 714 163 782 82 728 60 z m 383 64 b 313 251 338 64 313 151 b 360 331 313 299 332 331 b 428 219 386 331 417 306 l 433 154 b 383 64 436 115 418 64 z "},"ã":{"ha":782,"x_min":0,"x_max":0,"o":"m 119 807 l 136 807 b 176 832 161 807 161 815 b 226 856 192 849 207 856 b 454 789 297 856 364 789 b 622 958 544 789 604 874 b 597 993 626 981 618 993 l 588 993 b 550 972 568 993 560 985 b 489 944 536 954 524 944 b 268 1007 429 944 369 1007 b 96 840 179 1007 114 928 b 119 807 92 818 103 807 z m 714 163 l 682 403 b 332 681 660 572 522 681 b 46 515 193 681 46 639 b 156 415 46 456 90 415 b 332 608 293 415 250 608 b 413 381 394 608 396 542 b 279 411 378 400 333 411 b 31 197 150 411 31 339 b 294 -14 31 53 147 -14 b 465 53 383 -14 436 17 b 608 -8 478 8 519 -8 b 782 42 690 -8 782 1 b 714 163 782 82 728 60 z m 383 64 b 313 251 338 64 313 151 b 360 331 313 299 332 331 b 428 219 386 331 417 306 l 433 154 b 383 64 436 115 418 64 z "},"æ":{"ha":1078,"x_min":0,"x_max":0,"o":"m 1004 225 b 881 181 981 201 929 181 b 742 250 824 181 776 206 l 993 414 b 1040 496 1021 432 1040 458 b 772 681 1040 579 957 681 b 561 611 696 681 621 656 b 332 681 501 656 422 681 b 46 515 193 681 46 639 b 156 415 46 456 90 415 b 332 608 293 415 250 608 b 413 381 394 608 396 543 b 279 411 378 400 333 411 b 31 197 150 411 31 339 b 294 -14 31 53 147 -14 b 494 118 433 -14 485 57 b 776 -14 556 35 654 -14 b 1058 204 961 -14 1058 129 b 1004 225 1058 236 1025 246 z m 750 606 b 826 469 815 606 826 508 b 790 393 826 439 813 410 l 701 328 b 676 493 685 375 676 431 b 750 606 676 551 704 606 z m 383 64 b 313 251 338 64 313 151 b 360 331 313 299 332 331 b 428 221 386 331 417 306 l 433 158 b 383 64 436 126 426 64 z "},"ǽ":{"ha":1078,"x_min":0,"x_max":0,"o":"m 467 753 l 757 818 b 793 901 801 828 811 864 l 742 1008 b 650 1028 724 1046 689 1058 l 414 838 b 404 774 396 822 390 796 b 467 753 417 754 442 747 z m 1004 225 b 881 181 981 201 929 181 b 742 250 824 181 776 206 l 993 414 b 1040 496 1021 432 1040 458 b 772 681 1040 579 957 681 b 561 611 696 681 621 656 b 332 681 501 656 422 681 b 46 515 193 681 46 639 b 156 415 46 456 90 415 b 332 608 293 415 250 608 b 413 381 394 608 396 543 b 279 411 378 400 333 411 b 31 197 150 411 31 339 b 294 -14 31 53 147 -14 b 494 118 433 -14 485 57 b 776 -14 556 35 654 -14 b 1058 204 961 -14 1058 129 b 1004 225 1058 236 1025 246 z m 750 606 b 826 469 815 606 826 508 b 790 393 826 439 813 410 l 701 328 b 676 493 685 375 676 431 b 750 606 676 551 704 606 z m 383 64 b 313 251 338 64 313 151 b 360 331 313 299 332 331 b 428 221 386 331 417 306 l 433 158 b 383 64 436 126 426 64 z "},"b":{"ha":843,"x_min":0,"x_max":0,"o":"m 488 681 b 363 650 438 681 396 671 l 363 1010 b 290 1044 363 1053 328 1063 l 49 933 b 7 890 15 918 7 908 l 7 885 b 79 760 7 842 79 828 l 79 167 b 22 35 79 99 22 78 l 22 29 b 57 0 22 11 36 0 l 290 0 b 331 39 318 0 331 10 b 488 -14 369 4 419 -14 b 817 346 658 -14 817 124 b 488 681 817 576 640 681 z m 464 60 b 363 215 413 60 363 136 l 363 497 b 422 607 363 571 383 607 b 542 204 517 607 542 335 b 464 60 542 108 518 60 z "},"c":{"ha":707,"x_min":0,"x_max":0,"o":"m 388 -14 b 682 229 586 -14 682 104 b 626 247 682 261 646 269 b 482 179 599 215 556 179 b 265 474 350 179 265 297 b 338 606 265 546 293 604 b 567 378 425 608 410 388 b 681 465 651 374 681 421 b 378 681 681 603 544 682 b 25 333 190 679 25 553 b 388 -14 25 157 163 -14 z "},"ć":{"ha":707,"x_min":0,"x_max":0,"o":"m 228 754 l 518 819 b 554 903 563 829 572 865 l 503 1010 b 411 1029 485 1047 450 1060 l 175 839 b 165 775 157 824 151 797 b 228 754 178 756 203 749 z m 388 -14 b 682 229 586 -14 682 104 b 626 247 682 261 646 269 b 482 179 599 215 556 179 b 265 474 350 179 265 297 b 338 606 265 546 293 604 b 567 378 425 608 410 388 b 681 465 651 374 681 421 b 378 681 681 603 544 682 b 25 333 190 679 25 553 b 388 -14 25 157 163 -14 z "},"č":{"ha":707,"x_min":0,"x_max":0,"o":"m 246 782 b 318 751 268 758 289 751 l 381 751 b 453 781 410 751 431 758 l 610 938 b 556 1004 638 965 590 1022 l 357 904 l 154 1004 b 100 938 124 1019 69 971 z m 626 247 b 482 179 599 215 556 179 b 265 474 350 179 265 297 b 338 606 265 546 293 604 b 567 378 425 608 410 388 b 681 465 651 374 681 421 b 378 681 681 603 544 682 b 25 333 190 679 25 553 b 388 -14 25 157 163 -14 b 682 229 586 -14 682 104 b 626 247 682 261 646 269 z "},"ç":{"ha":707,"x_min":0,"x_max":0,"o":"m 682 229 b 626 247 682 261 646 269 b 482 179 599 215 556 179 b 265 474 350 179 265 297 b 338 606 265 546 293 604 b 567 378 425 608 410 388 b 681 465 651 374 681 421 b 378 681 681 603 544 682 b 25 333 190 679 25 553 b 306 -6 25 179 129 29 l 288 -92 b 324 -133 281 -126 301 -133 b 406 -181 353 -133 406 -144 b 338 -232 406 -214 374 -232 b 258 -217 311 -232 276 -225 b 257 -304 226 -201 213 -283 b 381 -322 278 -314 318 -322 b 594 -192 492 -322 594 -283 b 413 -68 594 -99 500 -65 l 415 -12 b 682 229 594 -3 682 110 z "},"ċ":{"ha":707,"x_min":0,"x_max":0,"o":"m 351 735 b 528 889 457 735 528 803 b 351 1042 528 975 457 1042 b 175 889 246 1042 175 975 b 351 735 175 803 246 735 z m 388 -14 b 682 229 586 -14 682 104 b 626 247 682 261 646 269 b 482 179 599 215 556 179 b 265 474 350 179 265 297 b 338 606 265 546 293 604 b 567 378 425 608 410 388 b 681 465 651 374 681 421 b 378 681 681 603 544 682 b 25 333 190 679 25 553 b 388 -14 25 157 163 -14 z "},"d":{"ha":828,"x_min":0,"x_max":0,"o":"m 751 167 l 751 1011 b 685 1047 751 1051 729 1060 l 440 975 b 406 935 419 969 406 953 l 406 931 b 483 808 406 888 483 876 l 483 651 b 356 681 450 671 408 681 b 26 333 185 681 26 542 b 356 -14 26 100 189 -14 b 513 36 418 -14 474 4 b 553 0 514 14 531 0 l 774 0 b 808 29 794 0 808 11 l 808 35 b 751 167 808 78 751 99 z m 418 60 b 296 463 324 65 290 374 b 379 607 300 558 325 607 b 483 438 431 607 483 526 l 483 151 b 418 60 483 94 457 58 z "},"ð":{"ha":828,"x_min":0,"x_max":0,"o":"m 604 871 l 706 908 b 726 946 725 915 733 931 l 708 986 b 674 999 703 999 689 1004 l 525 944 b 247 1060 425 1022 319 1060 b 225 971 217 1060 178 1018 b 324 869 263 933 294 900 l 208 828 b 189 786 190 821 178 811 l 206 750 b 242 736 211 738 224 729 l 393 792 b 478 632 433 742 460 694 b 335 681 439 664 392 681 b 26 333 163 681 26 542 b 414 -14 26 125 211 -14 b 799 347 663 -14 799 126 b 604 871 799 581 714 754 z m 447 61 b 304 457 346 61 304 368 b 367 606 304 553 313 606 b 511 207 418 606 488 514 b 447 61 511 101 497 61 z "},"ď":{"ha":853,"x_min":0,"x_max":0,"o":"m 1022 1114 l 914 1114 b 875 1071 892 1114 875 1093 b 808 808 875 992 865 882 b 814 758 793 789 800 768 l 831 747 b 892 747 851 733 875 739 b 1068 1071 982 799 1068 918 b 1022 1114 1068 1097 1050 1114 z m 751 1011 b 685 1047 751 1051 729 1060 l 440 975 b 406 935 419 969 406 953 l 406 931 b 483 808 406 888 483 876 l 483 651 b 356 681 450 671 408 681 b 26 333 185 681 26 542 b 356 -14 26 100 189 -14 b 513 36 418 -14 474 4 b 553 0 514 14 531 0 l 774 0 b 808 29 794 0 808 11 l 808 35 b 751 167 808 78 751 99 z m 418 60 b 296 463 324 65 290 374 b 379 607 300 558 325 607 b 483 438 431 607 483 526 l 483 151 b 418 60 483 94 457 58 z "},"đ":{"ha":828,"x_min":0,"x_max":0,"o":"m 835 824 l 751 824 l 751 1011 b 685 1047 751 1051 729 1060 l 440 975 b 406 935 419 969 406 953 l 406 931 b 482 824 406 890 471 878 l 381 824 b 356 797 367 824 356 817 l 356 744 b 381 719 356 724 367 719 l 483 719 l 483 651 b 356 681 450 671 408 681 b 26 333 185 681 26 542 b 356 -14 26 100 189 -14 b 513 36 418 -14 474 4 b 553 0 514 14 531 0 l 774 0 b 808 29 794 0 808 11 l 808 35 b 751 167 808 78 751 99 l 751 719 l 835 719 b 861 750 850 719 861 729 l 861 797 b 835 824 861 813 850 824 z m 418 60 b 296 463 324 65 290 374 b 379 607 300 558 325 607 b 483 438 431 607 483 526 l 483 151 b 418 60 483 94 457 58 z "},"e":{"ha":676,"x_min":0,"x_max":0,"o":"m 603 225 b 479 181 579 201 528 181 b 340 250 422 181 375 206 l 592 414 b 639 496 619 432 639 458 b 371 681 639 579 556 681 b 26 338 190 681 26 546 b 375 -14 26 128 168 -14 b 657 204 560 -14 657 129 b 603 225 657 236 624 246 z m 349 606 b 425 469 414 606 425 508 b 389 393 425 439 411 410 l 300 328 b 275 493 283 375 275 431 b 349 606 275 551 303 606 z "},"é":{"ha":676,"x_min":0,"x_max":0,"o":"m 222 754 l 513 819 b 549 903 557 829 567 865 l 497 1010 b 406 1029 479 1047 444 1060 l 169 839 b 160 775 151 824 146 797 b 222 754 172 756 197 749 z m 603 225 b 479 181 579 201 528 181 b 340 250 422 181 375 206 l 592 414 b 639 496 619 432 639 458 b 371 681 639 579 556 681 b 26 338 190 681 26 546 b 375 -14 26 128 168 -14 b 657 204 560 -14 657 129 b 603 225 657 236 624 246 z m 349 606 b 425 469 414 606 425 508 b 389 393 425 439 411 410 l 300 328 b 275 493 283 375 275 431 b 349 606 275 551 303 606 z "},"ě":{"ha":676,"x_min":0,"x_max":0,"o":"m 240 782 b 313 751 263 758 283 751 l 375 751 b 447 781 404 751 425 758 l 604 938 b 550 1004 632 965 585 1022 l 351 904 l 149 1004 b 94 938 118 1019 64 971 z m 603 225 b 479 181 579 201 528 181 b 340 250 422 181 375 206 l 592 414 b 639 496 619 432 639 458 b 371 681 639 579 556 681 b 26 338 190 681 26 546 b 375 -14 26 128 168 -14 b 657 204 560 -14 657 129 b 603 225 657 236 624 246 z m 349 606 b 425 469 414 606 425 508 b 389 393 425 439 411 410 l 300 328 b 275 493 283 375 275 431 b 349 606 275 551 303 606 z "},"ê":{"ha":676,"x_min":0,"x_max":0,"o":"m 144 750 l 333 853 l 547 750 b 611 829 611 719 658 782 l 439 993 b 367 1022 418 1014 396 1022 l 313 1022 b 240 992 283 1022 263 1017 l 88 829 b 144 750 36 774 108 731 z m 603 225 b 479 181 579 201 528 181 b 340 250 422 181 375 206 l 592 414 b 639 496 619 432 639 458 b 371 681 639 579 556 681 b 26 338 190 681 26 546 b 375 -14 26 128 168 -14 b 657 204 560 -14 657 129 b 603 225 657 236 624 246 z m 349 606 b 425 469 414 606 425 508 b 389 393 425 439 411 410 l 300 328 b 275 493 283 375 275 431 b 349 606 275 551 303 606 z "},"ë":{"ha":676,"x_min":0,"x_max":0,"o":"m 164 743 b 321 882 258 743 321 804 b 164 1019 321 960 258 1019 b 6 882 69 1019 6 960 b 164 743 6 804 69 743 z m 532 743 b 690 882 626 743 690 804 b 532 1019 690 960 626 1019 b 375 882 438 1019 375 960 b 532 743 375 804 438 743 z m 603 225 b 479 181 579 201 528 181 b 340 250 422 181 375 206 l 592 414 b 639 496 619 432 639 458 b 371 681 639 579 556 681 b 26 338 190 681 26 546 b 375 -14 26 128 168 -14 b 657 204 560 -14 657 129 b 603 225 657 236 624 246 z m 349 606 b 425 469 414 606 425 508 b 389 393 425 439 411 410 l 300 328 b 275 493 283 375 275 431 b 349 606 275 551 303 606 z "},"ė":{"ha":676,"x_min":0,"x_max":0,"o":"m 346 735 b 522 889 451 735 522 803 b 346 1042 522 975 451 1042 b 169 889 240 1042 169 975 b 346 735 169 803 240 735 z m 603 225 b 479 181 579 201 528 181 b 340 250 422 181 375 206 l 592 414 b 639 496 619 432 639 458 b 371 681 639 579 556 681 b 26 338 190 681 26 546 b 375 -14 26 128 168 -14 b 657 204 560 -14 657 129 b 603 225 657 236 624 246 z m 349 606 b 425 469 414 606 425 508 b 389 393 425 439 411 410 l 300 328 b 275 493 283 375 275 431 b 349 606 275 551 303 606 z "},"è":{"ha":676,"x_min":0,"x_max":0,"o":"m 171 810 l 461 744 b 524 765 486 739 511 746 b 514 829 538 788 532 814 l 278 1019 b 186 1000 239 1050 204 1038 l 135 893 b 171 810 117 856 126 819 z m 603 225 b 479 181 579 201 528 181 b 340 250 422 181 375 206 l 592 414 b 639 496 619 432 639 458 b 371 681 639 579 556 681 b 26 338 190 681 26 546 b 375 -14 26 128 168 -14 b 657 204 560 -14 657 129 b 603 225 657 236 624 246 z m 349 606 b 425 469 414 606 425 508 b 389 393 425 439 411 410 l 300 328 b 275 493 283 375 275 431 b 349 606 275 551 303 606 z "},"ē":{"ha":676,"x_min":0,"x_max":0,"o":"m 149 792 l 549 792 b 585 828 572 792 585 804 l 585 924 b 549 960 585 947 572 960 l 149 960 b 113 924 125 960 113 947 l 113 828 b 149 792 113 804 125 792 z m 603 225 b 479 181 579 201 528 181 b 340 250 422 181 375 206 l 592 414 b 639 496 619 432 639 458 b 371 681 639 579 556 681 b 26 338 190 681 26 546 b 375 -14 26 128 168 -14 b 657 204 560 -14 657 129 b 603 225 657 236 624 246 z m 349 606 b 425 469 414 606 425 508 b 389 393 425 439 411 410 l 300 328 b 275 493 283 375 275 431 b 349 606 275 551 303 606 z "},"ę":{"ha":676,"x_min":0,"x_max":0,"o":"m 538 31 b 657 204 617 79 657 156 b 603 225 657 236 624 246 b 479 181 579 201 528 181 b 340 250 422 181 375 206 l 592 414 b 639 496 619 432 639 458 b 371 681 639 579 556 681 b 26 338 190 681 26 546 b 365 -14 26 131 164 -10 b 281 -162 301 -62 281 -111 b 460 -296 281 -268 382 -296 b 539 -285 493 -296 526 -290 b 531 -185 596 -262 581 -168 b 510 -189 522 -187 518 -189 b 474 -128 492 -189 472 -175 b 538 31 474 -92 490 -35 z m 349 606 b 425 469 414 606 425 508 b 389 393 425 439 411 410 l 300 328 b 275 493 283 375 275 431 b 349 606 275 551 303 606 z "},"f":{"ha":557,"x_min":0,"x_max":0,"o":"m 367 940 b 557 733 458 940 383 733 b 658 826 626 733 658 785 b 425 1014 658 926 556 1014 b 122 722 210 1014 122 882 l 122 667 l 38 667 b 3 632 18 667 3 651 l 3 597 b 38 563 3 578 18 563 l 122 563 l 122 167 b 65 35 122 99 65 78 l 65 29 b 100 0 65 11 79 0 l 435 0 b 469 29 456 0 469 11 l 469 35 b 392 167 469 78 392 99 l 392 563 l 532 563 b 567 597 551 563 567 578 l 567 632 b 532 667 567 651 551 667 l 383 667 b 367 940 344 707 263 940 z "},"g":{"ha":779,"x_min":0,"x_max":0,"o":"m 763 618 b 644 667 763 654 746 667 b 375 681 533 667 461 681 b 28 381 172 681 28 561 b 375 99 28 211 172 99 b 424 101 392 99 407 100 b 457 1 446 89 457 51 b 361 -106 457 -62 424 -107 b 139 99 261 -103 275 99 b 32 -4 65 99 32 44 b 361 -178 32 -129 167 -178 b 735 3 568 -178 735 -103 b 576 144 735 69 701 118 b 721 381 665 193 721 276 b 660 547 721 444 694 501 b 763 618 704 563 763 557 z m 288 508 b 336 606 288 574 306 606 b 461 272 408 606 461 372 b 413 175 461 210 444 175 b 288 508 346 175 288 376 z "},"ğ":{"ha":779,"x_min":0,"x_max":0,"o":"m 415 751 b 667 946 563 751 653 838 b 576 978 671 989 593 1001 b 415 911 553 938 486 911 b 254 978 347 911 278 938 b 164 946 235 1006 158 996 b 415 751 178 838 274 751 z m 763 618 b 644 667 763 654 746 667 b 375 681 533 667 461 681 b 28 381 172 681 28 561 b 375 99 28 211 172 99 b 424 101 392 99 407 100 b 457 1 446 89 457 51 b 361 -106 457 -62 424 -107 b 139 99 261 -103 275 99 b 32 -4 65 99 32 44 b 361 -178 32 -129 167 -178 b 735 3 568 -178 735 -103 b 576 144 735 69 701 118 b 721 381 665 193 721 276 b 660 547 721 444 694 501 b 763 618 704 563 763 557 z m 288 508 b 336 606 288 574 306 606 b 461 272 408 606 461 372 b 413 175 461 210 444 175 b 288 508 346 175 288 376 z "},"ģ":{"ha":779,"x_min":0,"x_max":0,"o":"m 393 732 b 535 881 481 732 535 792 b 436 1008 535 956 489 1008 b 419 1039 421 1008 418 1021 b 492 1146 421 1075 446 1099 b 447 1193 517 1171 479 1211 b 244 900 310 1111 244 1014 b 393 732 244 792 317 732 z m 763 618 b 644 667 763 654 746 667 b 375 681 533 667 461 681 b 28 381 172 681 28 561 b 375 99 28 211 172 99 b 424 101 392 99 407 100 b 457 1 446 89 457 51 b 361 -106 457 -62 424 -107 b 139 99 261 -103 275 99 b 32 -4 65 99 32 44 b 361 -178 32 -129 167 -178 b 735 3 568 -178 735 -103 b 576 144 735 69 701 118 b 721 381 665 193 721 276 b 660 547 721 444 694 501 b 763 618 704 563 763 557 z m 288 508 b 336 606 288 574 306 606 b 461 272 408 606 461 372 b 413 175 461 210 444 175 b 288 508 346 175 288 376 z "},"ġ":{"ha":779,"x_min":0,"x_max":0,"o":"m 414 735 b 590 889 519 735 590 803 b 414 1042 590 975 519 1042 b 238 889 308 1042 238 975 b 414 735 238 803 308 735 z m 763 618 b 644 667 763 654 746 667 b 375 681 533 667 461 681 b 28 381 172 681 28 561 b 375 99 28 211 172 99 b 424 101 392 99 407 100 b 457 1 446 89 457 51 b 361 -106 457 -62 424 -107 b 139 99 261 -103 275 99 b 32 -4 65 99 32 44 b 361 -178 32 -129 167 -178 b 735 3 568 -178 735 -103 b 576 144 735 69 701 118 b 721 381 665 193 721 276 b 660 547 721 444 694 501 b 763 618 704 563 763 557 z m 288 508 b 336 606 288 574 306 606 b 461 272 408 606 461 372 b 413 175 461 210 444 175 b 288 508 346 175 288 376 z "},"h":{"ha":857,"x_min":0,"x_max":0,"o":"m 794 167 l 775 410 b 511 681 758 619 628 681 b 351 626 444 681 390 661 l 351 1018 b 294 1049 351 1053 329 1064 l 47 940 b 13 897 26 931 13 915 l 13 892 b 83 774 13 849 83 842 l 83 167 b 19 35 83 99 19 78 l 19 29 b 54 0 19 11 33 0 l 389 0 b 424 29 410 0 424 11 l 424 35 b 360 167 424 78 360 99 l 360 460 b 428 579 360 532 378 579 b 504 419 482 579 497 535 l 518 167 b 468 35 522 99 468 78 l 468 29 b 503 0 468 11 482 0 l 810 0 b 844 29 831 0 844 11 l 844 35 b 794 167 844 78 800 99 z "},"ħ":{"ha":857,"x_min":0,"x_max":0,"o":"m 794 167 l 775 410 b 511 681 758 619 628 681 b 351 626 444 681 390 661 l 351 708 l 479 708 b 506 739 494 708 506 718 l 506 786 b 479 813 506 801 494 813 l 351 813 l 351 1018 b 294 1049 351 1053 329 1064 l 47 940 b 13 897 26 931 13 915 l 13 892 b 74 813 13 858 54 847 l 25 813 b 0 786 11 813 0 806 l 0 733 b 25 708 0 713 11 708 l 83 708 l 83 167 b 19 35 83 99 19 78 l 19 29 b 54 0 19 11 33 0 l 389 0 b 424 29 410 0 424 11 l 424 35 b 360 167 424 78 360 99 l 360 460 b 428 579 360 532 378 579 b 504 419 482 579 497 535 l 518 167 b 468 35 522 99 468 78 l 468 29 b 503 0 468 11 482 0 l 810 0 b 844 29 831 0 844 11 l 844 35 b 794 167 844 78 800 99 z "},"i":{"ha":456,"x_min":0,"x_max":0,"o":"m 235 735 b 411 889 340 735 411 803 b 235 1042 411 975 340 1042 b 58 889 129 1042 58 975 b 235 735 58 803 129 735 z m 68 0 l 403 0 b 438 29 424 0 438 11 l 438 35 b 374 167 438 78 374 99 l 374 642 b 306 674 374 669 347 694 l 68 557 b 33 522 47 547 33 539 l 33 517 b 90 390 33 479 90 458 l 90 167 b 33 35 90 99 33 78 l 33 29 b 68 0 33 11 47 0 z "},"ı":{"ha":456,"x_min":0,"x_max":0,"o":"m 68 0 l 403 0 b 438 29 424 0 438 11 l 438 35 b 374 167 438 78 374 99 l 374 642 b 306 674 374 669 347 694 l 68 557 b 33 522 47 547 33 539 l 33 517 b 90 390 33 479 90 458 l 90 167 b 33 35 90 99 33 78 l 33 29 b 68 0 33 11 47 0 z "},"í":{"ha":456,"x_min":0,"x_max":0,"o":"m 111 754 l 401 819 b 438 903 446 829 456 865 l 386 1010 b 294 1029 368 1047 333 1060 l 58 839 b 49 775 40 824 35 797 b 111 754 61 756 86 749 z m 68 0 l 403 0 b 438 29 424 0 438 11 l 438 35 b 374 167 438 78 374 99 l 374 642 b 306 674 374 669 347 694 l 68 557 b 33 522 47 547 33 539 l 33 517 b 90 390 33 479 90 458 l 90 167 b 33 35 90 99 33 78 l 33 29 b 68 0 33 11 47 0 z "},"î":{"ha":456,"x_min":0,"x_max":0,"o":"m 500 829 l 328 993 b 256 1022 307 1014 285 1022 l 201 1022 b 129 992 172 1022 151 1017 l -24 829 b 33 750 -75 774 -3 731 l 222 853 l 436 750 b 500 829 500 719 547 782 z m 374 642 b 306 674 374 669 347 694 l 68 557 b 33 522 47 547 33 539 l 33 517 b 90 390 33 479 90 458 l 90 167 b 33 35 90 99 33 78 l 33 29 b 68 0 33 11 47 0 l 403 0 b 438 29 424 0 438 11 l 438 35 b 374 167 438 78 374 99 z "},"ï":{"ha":456,"x_min":0,"x_max":0,"o":"m 53 743 b 210 882 147 743 210 804 b 53 1019 210 960 147 1019 b -106 882 -42 1019 -106 960 b 53 743 -106 804 -42 743 z m 421 743 b 579 882 515 743 579 804 b 421 1019 579 960 515 1019 b 264 882 326 1019 264 960 b 421 743 264 804 326 743 z m 68 0 l 403 0 b 438 29 424 0 438 11 l 438 35 b 374 167 438 78 374 99 l 374 642 b 306 674 374 669 347 694 l 68 557 b 33 522 47 547 33 539 l 33 517 b 90 390 33 479 90 458 l 90 167 b 33 35 90 99 33 78 l 33 29 b 68 0 33 11 47 0 z "},"ì":{"ha":456,"x_min":0,"x_max":0,"o":"m 350 744 b 413 765 375 739 400 746 b 403 829 426 788 421 814 l 167 1019 b 75 1000 128 1050 93 1038 l 24 893 b 60 810 6 856 15 819 z m 68 0 l 403 0 b 438 29 424 0 438 11 l 438 35 b 374 167 438 78 374 99 l 374 642 b 306 674 374 669 347 694 l 68 557 b 33 522 47 547 33 539 l 33 517 b 90 390 33 479 90 458 l 90 167 b 33 35 90 99 33 78 l 33 29 b 68 0 33 11 47 0 z "},"ĳ":{"ha":883,"x_min":0,"x_max":0,"o":"m 235 735 b 411 889 340 735 411 803 b 235 1042 411 975 340 1042 b 58 889 129 1042 58 975 b 235 735 58 803 129 735 z m 669 735 b 846 889 775 735 846 803 b 669 1042 846 975 775 1042 b 493 889 564 1042 493 975 b 669 735 493 803 564 735 z m 68 0 l 403 0 b 438 29 424 0 438 11 l 438 35 b 374 167 438 78 374 99 l 374 642 b 306 674 374 669 347 694 l 68 557 b 33 522 47 547 33 539 l 33 517 b 90 390 33 479 90 458 l 90 167 b 33 35 90 99 33 78 l 33 29 b 68 0 33 11 47 0 z m 544 -282 b 765 -196 651 -282 710 -251 b 828 -14 806 -156 828 -81 l 828 642 b 760 674 828 669 801 694 l 522 557 b 488 522 501 547 488 539 l 488 517 b 544 390 488 479 544 458 l 544 79 b 651 -142 544 -14 651 -28 b 603 -196 651 -174 632 -196 b 421 -11 515 -196 581 -11 b 304 -124 356 -11 304 -57 b 544 -282 304 -235 404 -282 z "},"ī":{"ha":456,"x_min":0,"x_max":0,"o":"m 38 792 l 438 792 b 474 828 461 792 474 804 l 474 924 b 438 960 474 947 461 960 l 38 960 b 1 924 14 960 1 947 l 1 828 b 38 792 1 804 14 792 z m 68 0 l 403 0 b 438 29 424 0 438 11 l 438 35 b 374 167 438 78 374 99 l 374 642 b 306 674 374 669 347 694 l 68 557 b 33 522 47 547 33 539 l 33 517 b 90 390 33 479 90 458 l 90 167 b 33 35 90 99 33 78 l 33 29 b 68 0 33 11 47 0 z "},"į":{"ha":456,"x_min":0,"x_max":0,"o":"m 235 735 b 411 889 340 735 411 803 b 235 1042 411 975 340 1042 b 58 889 129 1042 58 975 b 235 735 58 803 129 735 z m 374 167 l 374 642 b 306 674 374 669 347 694 l 68 557 b 33 522 47 547 33 539 l 33 517 b 90 390 33 479 90 458 l 90 167 b 33 35 90 99 33 78 l 33 29 b 68 0 33 11 47 0 l 217 0 b 79 -183 110 -61 79 -121 b 258 -317 79 -289 181 -317 b 338 -306 292 -317 325 -311 b 329 -206 394 -283 379 -189 b 308 -210 321 -208 317 -210 b 272 -149 290 -210 271 -196 b 329 0 272 -114 288 -61 l 403 0 b 438 29 424 0 438 11 l 438 35 b 374 167 438 78 374 99 z "},"ĩ":{"ha":456,"x_min":0,"x_max":0,"o":"m 146 1007 b -26 840 57 1007 -8 928 b -3 807 -31 818 -19 807 l 14 807 b 54 832 39 807 39 815 b 104 856 69 849 85 856 b 332 789 175 856 242 789 b 500 958 422 789 482 874 b 475 993 504 981 496 993 l 465 993 b 428 972 446 993 438 985 b 367 944 414 954 401 944 b 146 1007 307 944 247 1007 z m 68 0 l 403 0 b 438 29 424 0 438 11 l 438 35 b 374 167 438 78 374 99 l 374 642 b 306 674 374 669 347 694 l 68 557 b 33 522 47 547 33 539 l 33 517 b 90 390 33 479 90 458 l 90 167 b 33 35 90 99 33 78 l 33 29 b 68 0 33 11 47 0 z "},"j":{"ha":428,"x_min":0,"x_max":0,"o":"m 214 735 b 390 889 319 735 390 803 b 214 1042 390 975 319 1042 b 38 889 108 1042 38 975 b 214 735 38 803 108 735 z m 89 -282 b 310 -196 196 -282 254 -251 b 372 -14 350 -156 372 -81 l 372 642 b 304 674 372 669 346 694 l 67 557 b 32 522 46 547 32 539 l 32 517 b 89 390 32 479 89 458 l 89 79 b 196 -142 89 -14 196 -28 b 147 -196 196 -174 176 -196 b -35 -11 60 -196 125 -11 b -151 -124 -100 -11 -151 -57 b 89 -282 -151 -235 -51 -282 z "},"ȷ":{"ha":428,"x_min":0,"x_max":0,"o":"m 89 -282 b 310 -196 196 -282 254 -251 b 372 -14 350 -156 372 -81 l 372 642 b 304 674 372 669 346 694 l 67 557 b 32 522 46 547 32 539 l 32 517 b 89 390 32 479 89 458 l 89 79 b 196 -142 89 -14 196 -28 b 147 -196 196 -174 176 -196 b -35 -11 60 -196 125 -11 b -151 -124 -100 -11 -151 -57 b 89 -282 -151 -235 -51 -282 z "},"k":{"ha":851,"x_min":0,"x_max":0,"o":"m 799 126 l 586 439 l 656 504 b 794 632 714 558 794 589 l 794 638 b 760 667 794 656 781 667 l 524 667 b 489 636 503 667 489 654 l 489 631 b 525 503 489 589 569 540 l 363 365 l 363 1014 b 294 1046 363 1042 336 1065 l 43 929 b 8 894 22 919 8 911 l 8 889 b 79 763 8 851 79 831 l 79 167 b 22 35 79 99 22 78 l 22 29 b 57 0 22 11 36 0 l 392 0 b 426 29 413 0 426 11 l 426 35 b 363 167 426 78 363 99 l 363 232 l 422 288 l 521 126 b 492 36 543 92 492 78 l 492 31 b 526 0 492 13 506 0 l 846 0 b 881 29 867 0 881 11 l 881 35 b 799 126 881 78 819 96 z "},"ķ":{"ha":851,"x_min":0,"x_max":0,"o":"m 799 126 l 586 439 l 656 504 b 794 632 714 558 794 589 l 794 638 b 760 667 794 656 781 667 l 524 667 b 489 636 503 667 489 654 l 489 631 b 525 503 489 589 569 540 l 363 365 l 363 1014 b 294 1046 363 1042 336 1065 l 43 929 b 8 894 22 919 8 911 l 8 889 b 79 763 8 851 79 831 l 79 167 b 22 35 79 99 22 78 l 22 29 b 57 0 22 11 36 0 l 392 0 b 426 29 413 0 426 11 l 426 35 b 363 167 426 78 363 99 l 363 232 l 422 288 l 521 126 b 492 36 543 92 492 78 l 492 31 b 526 0 492 13 506 0 l 846 0 b 881 29 867 0 881 11 l 881 35 b 799 126 881 78 819 96 z m 424 -33 b 289 -175 340 -33 289 -90 b 382 -297 289 -246 332 -297 b 399 -325 399 -297 400 -308 b 329 -428 397 -360 374 -382 b 371 -472 306 -451 342 -490 b 565 -193 504 -394 565 -301 b 424 -33 565 -90 496 -33 z "},"ĸ":{"ha":871,"x_min":0,"x_max":0,"o":"m 818 126 l 606 439 l 675 504 b 814 632 733 558 814 589 l 814 638 b 779 667 814 656 800 667 l 543 667 b 508 636 522 667 508 654 l 508 631 b 549 503 508 589 593 539 l 382 368 l 382 788 b 314 819 382 815 356 839 l 63 703 b 28 668 42 693 28 685 l 28 663 b 99 536 28 625 99 604 l 99 167 b 42 35 99 99 42 78 l 42 29 b 76 0 42 11 56 0 l 411 0 b 446 29 432 0 446 11 l 446 35 b 382 167 446 78 382 99 l 382 232 l 442 288 l 540 126 b 511 36 563 92 511 78 l 511 31 b 546 0 511 13 525 0 l 865 0 b 900 29 886 0 900 11 l 900 35 b 818 126 900 78 839 96 z "},"l":{"ha":446,"x_min":0,"x_max":0,"o":"m 57 0 l 392 0 b 426 29 413 0 426 11 l 426 35 b 363 167 426 78 363 99 l 363 1014 b 294 1046 363 1042 336 1067 l 57 929 b 22 894 36 919 22 911 l 22 889 b 79 763 22 851 79 831 l 79 167 b 22 35 79 99 22 78 l 22 29 b 57 0 22 11 36 0 z "},"ĺ":{"ha":446,"x_min":0,"x_max":0,"o":"m 26 1107 l 324 1125 b 374 1200 369 1126 385 1161 l 340 1314 b 253 1349 328 1354 296 1372 l -11 1200 b -31 1139 -32 1188 -42 1163 b 26 1107 -22 1117 1 1106 z m 57 0 l 392 0 b 426 29 413 0 426 11 l 426 35 b 363 167 426 78 363 99 l 363 1014 b 294 1046 363 1042 336 1067 l 57 929 b 22 894 36 919 22 911 l 22 889 b 79 763 22 851 79 831 l 79 167 b 22 35 79 99 22 78 l 22 29 b 57 0 22 11 36 0 z "},"ľ":{"ha":468,"x_min":0,"x_max":0,"o":"m 443 747 b 504 747 464 733 488 739 b 681 1071 594 799 681 918 b 635 1114 681 1097 663 1114 l 526 1114 b 488 1071 504 1114 488 1093 b 421 808 488 992 478 882 b 426 758 406 789 413 768 z m 57 0 l 392 0 b 426 29 413 0 426 11 l 426 35 b 363 167 426 78 363 99 l 363 1014 b 294 1046 363 1042 336 1067 l 57 929 b 22 894 36 919 22 911 l 22 889 b 79 763 22 851 79 831 l 79 167 b 22 35 79 99 22 78 l 22 29 b 57 0 22 11 36 0 z "},"ļ":{"ha":446,"x_min":0,"x_max":0,"o":"m 57 0 l 392 0 b 426 29 413 0 426 11 l 426 35 b 363 167 426 78 363 99 l 363 1014 b 294 1046 363 1042 336 1067 l 57 929 b 22 894 36 919 22 911 l 22 889 b 79 763 22 851 79 831 l 79 167 b 22 35 79 99 22 78 l 22 29 b 57 0 22 11 36 0 z m 167 -472 b 361 -193 300 -394 361 -301 b 219 -33 361 -90 292 -33 b 85 -175 136 -33 85 -90 b 178 -297 85 -246 128 -297 b 194 -325 194 -297 196 -308 b 125 -428 193 -360 169 -382 b 167 -472 101 -451 138 -490 z "},"ŀ":{"ha":781,"x_min":0,"x_max":0,"o":"m 57 0 l 392 0 b 426 29 413 0 426 11 l 426 35 b 363 167 426 78 363 99 l 363 1014 b 294 1046 363 1042 336 1067 l 57 929 b 22 894 36 919 22 911 l 22 889 b 79 763 22 851 79 831 l 79 167 b 22 35 79 99 22 78 l 22 29 b 57 0 22 11 36 0 z m 611 392 b 774 536 699 392 774 436 b 611 681 774 636 699 681 b 449 536 524 681 449 636 b 611 392 449 436 524 392 z "},"ł":{"ha":565,"x_min":0,"x_max":0,"o":"m 565 617 l 533 668 b 490 675 525 682 507 686 l 438 640 l 438 1014 b 369 1046 438 1042 411 1067 l 132 929 b 97 894 111 919 97 911 l 97 889 b 154 763 97 851 154 831 l 154 456 l 21 369 b 10 332 6 360 -1 349 l 44 278 b 79 272 51 268 64 263 l 154 321 l 154 167 b 97 35 154 99 97 78 l 97 29 b 132 0 97 11 111 0 l 467 0 b 501 29 488 0 501 11 l 501 35 b 438 167 501 78 438 99 l 438 503 l 556 579 b 565 617 571 590 572 606 z "},"m":{"ha":1285,"x_min":0,"x_max":0,"o":"m 1222 165 l 1204 396 b 950 681 1186 619 1064 681 b 749 575 861 681 788 643 b 524 681 700 646 618 681 b 346 601 449 681 386 650 l 346 639 b 289 675 346 668 326 693 l 54 567 b 18 529 33 557 18 547 l 18 524 b 96 400 18 481 96 468 l 96 165 b 32 33 96 97 32 76 l 32 28 b 67 -1 32 10 46 -1 l 401 -1 b 436 28 422 -1 436 10 l 436 33 b 372 165 436 76 372 97 l 372 464 b 444 579 372 531 390 579 b 519 424 493 579 519 532 l 519 165 b 469 33 519 97 469 76 l 469 28 b 504 -1 469 10 483 -1 l 811 -1 b 846 28 832 -1 846 10 l 846 33 b 796 165 846 76 796 97 l 796 404 b 792 461 796 425 794 443 b 857 579 792 529 810 579 b 932 406 906 579 925 533 l 946 165 b 896 33 950 97 896 76 l 896 28 b 931 -1 896 10 910 -1 l 1238 -1 b 1272 28 1258 -1 1272 10 l 1272 33 b 1222 165 1272 76 1228 97 z "},"n":{"ha":871,"x_min":0,"x_max":0,"o":"m 808 165 l 790 396 b 525 681 772 619 642 681 b 331 582 435 681 367 646 l 331 639 b 274 675 331 668 311 694 l 56 567 b 19 529 35 556 19 547 l 19 524 b 97 400 19 481 97 468 l 97 165 b 33 33 97 97 33 76 l 33 28 b 68 -1 33 10 47 -1 l 403 -1 b 438 28 424 -1 438 10 l 438 33 b 374 165 438 76 374 97 l 374 460 b 442 579 374 532 392 579 b 518 406 496 579 511 535 l 532 165 b 482 33 536 97 482 76 l 482 28 b 517 -1 482 10 496 -1 l 824 -1 b 858 28 844 -1 858 10 l 858 33 b 808 165 858 76 814 97 z "},"ń":{"ha":871,"x_min":0,"x_max":0,"o":"m 354 754 l 644 819 b 681 903 689 829 699 865 l 629 1010 b 538 1029 611 1047 576 1060 l 301 839 b 292 775 283 824 278 797 b 354 754 304 756 329 749 z m 808 165 l 790 396 b 525 681 772 619 642 681 b 331 582 435 681 367 646 l 331 639 b 274 675 331 668 311 694 l 56 567 b 19 529 35 556 19 547 l 19 524 b 97 400 19 481 97 468 l 97 165 b 33 33 97 97 33 76 l 33 28 b 68 -1 33 10 47 -1 l 403 -1 b 438 28 424 -1 438 10 l 438 33 b 374 165 438 76 374 97 l 374 460 b 442 579 374 532 392 579 b 518 406 496 579 511 535 l 532 165 b 482 33 536 97 482 76 l 482 28 b 517 -1 482 10 496 -1 l 824 -1 b 858 28 844 -1 858 10 l 858 33 b 808 165 858 76 814 97 z "},"ŉ":{"ha":1018,"x_min":0,"x_max":0,"o":"m 101 1132 b -54 968 6 1132 -54 1065 b 54 826 -54 885 -4 826 b 74 793 72 826 75 813 b -7 675 71 753 44 728 b 42 624 -35 647 7 603 b 265 946 194 714 265 821 b 101 1132 265 1065 186 1132 z m 956 165 l 938 396 b 672 681 919 619 789 681 b 478 582 582 681 514 646 l 478 639 b 421 675 478 668 458 694 l 203 567 b 167 529 182 556 167 547 l 167 524 b 244 400 167 481 244 468 l 244 165 b 181 33 244 97 181 76 l 181 28 b 215 -1 181 10 194 -1 l 550 -1 b 585 28 571 -1 585 10 l 585 33 b 521 165 585 76 521 97 l 521 460 b 589 579 521 532 539 579 b 665 406 643 579 658 535 l 679 165 b 629 33 683 97 629 76 l 629 28 b 664 -1 629 10 643 -1 l 971 -1 b 1006 28 992 -1 1006 10 l 1006 33 b 956 165 1006 76 961 97 z "},"ň":{"ha":871,"x_min":0,"x_max":0,"o":"m 372 782 b 444 751 394 758 415 751 l 507 751 b 579 781 536 751 557 758 l 736 938 b 682 1004 764 965 717 1022 l 483 904 l 281 1004 b 226 938 250 1019 196 971 z m 808 165 l 790 396 b 525 681 772 619 642 681 b 331 582 435 681 367 646 l 331 639 b 274 675 331 668 311 694 l 56 567 b 19 529 35 556 19 547 l 19 524 b 97 400 19 481 97 468 l 97 165 b 33 33 97 97 33 76 l 33 28 b 68 -1 33 10 47 -1 l 403 -1 b 438 28 424 -1 438 10 l 438 33 b 374 165 438 76 374 97 l 374 460 b 442 579 374 532 392 579 b 518 406 496 579 511 535 l 532 165 b 482 33 536 97 482 76 l 482 28 b 517 -1 482 10 496 -1 l 824 -1 b 858 28 844 -1 858 10 l 858 33 b 808 165 858 76 814 97 z "},"ņ":{"ha":871,"x_min":0,"x_max":0,"o":"m 808 165 l 790 396 b 525 681 772 619 642 681 b 331 582 435 681 367 646 l 331 639 b 274 675 331 668 311 694 l 56 567 b 19 529 35 556 19 547 l 19 524 b 97 400 19 481 97 468 l 97 165 b 33 33 97 97 33 76 l 33 28 b 68 -1 33 10 47 -1 l 403 -1 b 438 28 424 -1 438 10 l 438 33 b 374 165 438 76 374 97 l 374 460 b 442 579 374 532 392 579 b 518 406 496 579 511 535 l 532 165 b 482 33 536 97 482 76 l 482 28 b 517 -1 482 10 496 -1 l 824 -1 b 858 28 844 -1 858 10 l 858 33 b 808 165 858 76 814 97 z m 436 -33 b 301 -175 353 -33 301 -90 b 394 -297 301 -246 344 -297 b 411 -325 411 -297 413 -308 b 342 -428 410 -360 386 -382 b 383 -472 318 -451 354 -490 b 578 -193 517 -394 578 -301 b 436 -33 578 -90 508 -33 z "},"ŋ":{"ha":850,"x_min":0,"x_max":0,"o":"m 818 36 l 790 396 b 525 681 774 617 642 681 b 331 582 435 681 367 646 l 331 639 b 274 675 331 668 311 694 l 56 567 b 19 529 35 556 19 547 l 19 524 b 97 400 19 481 97 468 l 97 167 b 33 35 97 99 33 78 l 33 29 b 68 0 33 11 47 0 l 403 0 b 438 29 424 0 438 11 l 438 35 b 374 167 438 78 374 99 l 374 460 b 442 579 374 532 392 579 b 518 406 496 579 510 535 l 536 121 b 646 -142 547 -47 646 -31 b 597 -196 646 -174 626 -196 b 419 -29 510 -196 564 -29 b 303 -132 354 -29 303 -65 b 539 -282 303 -215 399 -282 b 760 -196 646 -282 704 -251 b 818 36 800 -156 826 -65 z "},"ñ":{"ha":871,"x_min":0,"x_max":0,"o":"m 240 807 l 257 807 b 297 832 282 807 282 815 b 347 856 313 849 328 856 b 575 789 418 856 485 789 b 743 958 665 789 725 874 b 718 993 747 981 739 993 l 708 993 b 671 972 689 993 681 985 b 610 944 657 954 644 944 b 389 1007 550 944 490 1007 b 217 840 300 1007 235 928 b 240 807 213 818 224 807 z m 808 165 l 790 396 b 525 681 772 619 642 681 b 331 582 435 681 367 646 l 331 639 b 274 675 331 668 311 694 l 56 567 b 19 529 35 556 19 547 l 19 524 b 97 400 19 481 97 468 l 97 165 b 33 33 97 97 33 76 l 33 28 b 68 -1 33 10 47 -1 l 403 -1 b 438 28 424 -1 438 10 l 438 33 b 374 165 438 76 374 97 l 374 460 b 442 579 374 532 392 579 b 518 406 496 579 511 535 l 532 165 b 482 33 536 97 482 76 l 482 28 b 517 -1 482 10 496 -1 l 824 -1 b 858 28 844 -1 858 10 l 858 33 b 808 165 858 76 814 97 z "},"o":{"ha":824,"x_min":0,"x_max":0,"o":"m 413 -14 b 799 333 617 -14 799 125 b 413 681 799 542 617 681 b 25 333 210 681 25 542 b 413 -14 25 125 210 -14 z m 446 61 b 303 457 344 61 303 368 b 365 606 303 553 311 606 b 510 207 468 606 510 281 b 446 61 510 119 501 61 z "},"ó":{"ha":824,"x_min":0,"x_max":0,"o":"m 286 754 l 576 819 b 613 903 621 829 631 865 l 561 1010 b 469 1029 543 1047 508 1060 l 233 839 b 224 775 215 824 210 797 b 286 754 236 756 261 749 z m 413 -14 b 799 333 617 -14 799 125 b 413 681 799 542 617 681 b 25 333 210 681 25 542 b 413 -14 25 125 210 -14 z m 446 61 b 303 457 344 61 303 368 b 365 606 303 553 311 606 b 510 207 468 606 510 281 b 446 61 510 119 501 61 z "},"ô":{"ha":824,"x_min":0,"x_max":0,"o":"m 208 750 l 397 853 l 611 750 b 675 829 675 719 722 782 l 503 993 b 431 1022 482 1014 460 1022 l 376 1022 b 304 992 347 1022 326 1017 l 151 829 b 208 750 100 774 172 731 z m 413 681 b 25 333 210 681 25 542 b 413 -14 25 125 210 -14 b 799 333 617 -14 799 125 b 413 681 799 542 617 681 z m 446 61 b 303 457 344 61 303 368 b 365 606 303 553 311 606 b 510 207 468 606 510 281 b 446 61 510 119 501 61 z "},"ö":{"ha":824,"x_min":0,"x_max":0,"o":"m 228 743 b 385 882 322 743 385 804 b 228 1019 385 960 322 1019 b 69 882 133 1019 69 960 b 228 743 69 804 133 743 z m 596 743 b 754 882 690 743 754 804 b 596 1019 754 960 690 1019 b 439 882 501 1019 439 960 b 596 743 439 804 501 743 z m 413 -14 b 799 333 617 -14 799 125 b 413 681 799 542 617 681 b 25 333 210 681 25 542 b 413 -14 25 125 210 -14 z m 446 61 b 303 457 344 61 303 368 b 365 606 303 553 311 606 b 510 207 468 606 510 281 b 446 61 510 119 501 61 z "},"ò":{"ha":824,"x_min":0,"x_max":0,"o":"m 525 744 b 588 765 550 739 575 746 b 578 829 601 788 596 814 l 342 1019 b 250 1000 303 1050 268 1038 l 199 893 b 235 810 181 856 190 819 z m 413 -14 b 799 333 617 -14 799 125 b 413 681 799 542 617 681 b 25 333 210 681 25 542 b 413 -14 25 125 210 -14 z m 446 61 b 303 457 344 61 303 368 b 365 606 303 553 311 606 b 510 207 468 606 510 281 b 446 61 510 119 501 61 z "},"ő":{"ha":824,"x_min":0,"x_max":0,"o":"m 122 742 b 171 746 136 731 153 733 l 414 917 b 413 1008 451 942 446 978 l 357 1061 b 267 1043 325 1092 292 1086 l 125 792 b 122 742 114 771 111 753 z m 432 742 b 481 746 444 731 463 733 l 724 917 b 722 1008 760 942 756 978 l 667 1061 b 576 1043 635 1092 601 1086 l 435 792 b 432 742 424 771 419 754 z m 413 -14 b 799 333 617 -14 799 125 b 413 681 799 542 617 681 b 25 333 210 681 25 542 b 413 -14 25 125 210 -14 z m 446 61 b 303 457 344 61 303 368 b 365 606 303 553 311 606 b 510 207 468 606 510 281 b 446 61 510 119 501 61 z "},"ō":{"ha":824,"x_min":0,"x_max":0,"o":"m 213 792 l 613 792 b 649 828 636 792 649 804 l 649 924 b 613 960 649 947 636 960 l 213 960 b 176 924 189 960 176 947 l 176 828 b 213 792 176 804 189 792 z m 413 -14 b 799 333 617 -14 799 125 b 413 681 799 542 617 681 b 25 333 210 681 25 542 b 413 -14 25 125 210 -14 z m 446 61 b 303 457 344 61 303 368 b 365 606 303 553 311 606 b 510 207 468 606 510 281 b 446 61 510 119 501 61 z "},"ǫ":{"ha":824,"x_min":0,"x_max":0,"o":"m 488 -7 b 799 333 660 22 799 151 b 413 681 799 542 617 681 b 25 333 210 681 25 542 b 360 -11 25 143 179 11 b 244 -181 271 -67 244 -122 b 424 -314 244 -286 346 -314 b 503 -303 457 -314 490 -308 b 494 -203 560 -281 544 -186 b 474 -207 486 -206 482 -207 b 438 -146 456 -207 436 -193 b 488 -7 438 -114 450 -64 z m 365 606 b 510 207 468 606 510 281 b 446 61 510 119 501 61 b 303 457 344 61 303 368 b 365 606 303 553 311 606 z "},"ø":{"ha":828,"x_min":0,"x_max":0,"o":"m 711 561 l 781 628 b 783 667 793 640 794 656 l 749 700 b 706 697 738 711 719 710 l 629 624 b 415 681 567 661 493 681 b 28 333 213 681 28 542 b 106 121 28 250 57 178 l 42 60 b 39 19 29 47 28 31 l 78 -17 b 111 -17 88 -26 100 -26 l 183 53 b 415 -14 250 10 331 -14 b 801 333 619 -14 801 125 b 711 561 801 424 767 501 z m 306 457 b 368 606 306 553 314 606 b 468 469 413 606 446 544 l 318 325 b 306 457 310 381 306 429 z m 449 61 b 344 207 401 61 367 128 l 496 354 b 513 207 507 290 513 233 b 449 61 513 119 504 61 z "},"ǿ":{"ha":828,"x_min":0,"x_max":0,"o":"m 251 754 l 542 819 b 578 903 586 829 596 865 l 526 1010 b 435 1029 508 1047 474 1060 l 199 839 b 189 775 181 824 175 797 b 251 754 201 756 226 749 z m 711 561 l 781 628 b 783 667 793 640 794 656 l 749 700 b 706 697 738 711 719 710 l 629 624 b 415 681 567 661 493 681 b 28 333 213 681 28 542 b 106 121 28 250 57 178 l 42 60 b 39 19 29 47 28 31 l 78 -17 b 111 -17 88 -26 100 -26 l 183 53 b 415 -14 250 10 331 -14 b 801 333 619 -14 801 125 b 711 561 801 424 767 501 z m 306 457 b 368 606 306 553 314 606 b 468 469 413 606 446 544 l 318 325 b 306 457 310 381 306 429 z m 449 61 b 344 207 401 61 367 128 l 496 354 b 513 207 507 290 513 233 b 449 61 513 119 504 61 z "},"õ":{"ha":824,"x_min":0,"x_max":0,"o":"m 321 1007 b 149 840 232 1007 167 928 b 172 807 144 818 156 807 l 189 807 b 229 832 214 807 214 815 b 279 856 244 849 260 856 b 507 789 350 856 417 789 b 675 958 597 789 657 874 b 650 993 679 981 671 993 l 640 993 b 603 972 621 993 613 985 b 542 944 589 954 576 944 b 321 1007 482 944 422 1007 z m 413 -14 b 799 333 617 -14 799 125 b 413 681 799 542 617 681 b 25 333 210 681 25 542 b 413 -14 25 125 210 -14 z m 446 61 b 303 457 344 61 303 368 b 365 606 303 553 311 606 b 510 207 468 606 510 281 b 446 61 510 119 501 61 z "},"œ":{"ha":1158,"x_min":0,"x_max":0,"o":"m 1085 225 b 961 181 1061 201 1010 181 b 822 250 904 181 857 206 l 1074 414 b 1121 496 1101 432 1121 458 b 853 681 1121 579 1038 681 b 633 604 772 681 694 654 b 413 681 569 653 490 681 b 25 333 210 681 25 542 b 413 -14 25 125 210 -14 b 631 60 490 -14 568 13 b 857 -14 690 13 767 -14 b 1139 204 1042 -14 1139 129 b 1085 225 1139 236 1106 246 z m 446 61 b 303 457 344 61 303 368 b 365 606 303 553 311 606 b 510 207 468 606 510 281 b 446 61 510 119 501 61 z m 831 606 b 907 469 896 606 907 508 b 871 393 907 439 893 410 l 782 328 b 757 493 765 375 757 431 b 831 606 757 551 785 606 z "},"p":{"ha":835,"x_min":0,"x_max":0,"o":"m 478 681 b 311 614 403 681 344 657 l 311 642 b 247 671 311 671 293 693 l 42 569 b 7 526 21 558 7 544 l 7 518 b 78 403 7 475 78 467 l 78 -121 b 21 -253 78 -189 21 -210 l 21 -258 b 56 -287 21 -276 35 -287 l 382 -287 b 417 -258 403 -287 417 -276 l 417 -253 b 353 -121 417 -210 353 -189 l 353 15 b 478 -14 386 -4 426 -14 b 807 344 649 -14 807 122 b 478 681 807 578 631 681 z m 454 60 b 353 257 403 60 353 132 l 353 515 b 413 607 353 571 374 607 b 532 204 507 607 532 335 b 454 60 532 108 508 60 z "},"þ":{"ha":813,"x_min":0,"x_max":0,"o":"m 456 681 b 331 651 406 681 364 671 l 331 1018 b 267 1047 331 1047 313 1069 l 19 929 b -15 886 -1 919 -15 904 l -15 878 b 56 763 -15 835 56 826 l 56 -121 b -1 -253 56 -189 -1 -210 l -1 -258 b 33 -287 -1 -276 13 -287 l 360 -287 b 394 -258 381 -287 394 -276 l 394 -253 b 331 -121 394 -210 331 -189 l 331 15 b 456 -14 364 -4 404 -14 b 785 344 626 -14 785 122 b 456 681 785 578 608 681 z m 432 60 b 331 215 381 60 331 136 l 331 515 b 390 607 331 571 351 607 b 510 204 485 607 510 335 b 432 60 510 108 486 60 z "},"q":{"ha":829,"x_min":0,"x_max":0,"o":"m 814 596 l 814 601 b 776 644 814 625 800 642 l 585 669 b 513 632 544 675 517 661 b 356 681 475 663 424 681 b 26 333 185 681 26 542 b 356 -14 26 100 189 -14 b 483 17 404 -14 449 -3 l 483 -121 b 419 -253 483 -189 419 -210 l 419 -258 b 454 -287 419 -276 433 -287 l 772 -287 b 807 -258 793 -287 807 -276 l 807 -253 b 750 -121 807 -210 750 -189 l 750 460 b 814 596 750 542 814 565 z m 418 60 b 296 463 324 65 290 374 b 379 607 300 558 325 607 b 483 438 431 607 483 549 l 483 151 b 418 60 483 94 457 58 z "},"r":{"ha":657,"x_min":0,"x_max":0,"o":"m 528 681 b 332 540 426 681 361 631 l 332 642 b 279 675 332 671 318 693 l 58 571 b 24 528 36 560 24 546 l 24 522 b 94 404 24 479 94 472 l 94 167 b 38 35 94 99 38 78 l 38 29 b 72 0 38 11 51 0 l 404 0 b 439 29 425 0 439 11 l 439 35 b 361 167 439 78 361 99 l 361 440 b 394 526 361 483 365 526 b 539 388 460 526 397 388 b 658 535 631 388 658 457 b 528 681 658 618 610 681 z "},"ŕ":{"ha":657,"x_min":0,"x_max":0,"o":"m 218 754 l 508 819 b 544 903 553 829 563 865 l 493 1010 b 401 1029 475 1047 440 1060 l 165 839 b 156 775 147 824 142 797 b 218 754 168 756 193 749 z m 528 681 b 332 540 426 681 361 631 l 332 642 b 279 675 332 671 318 693 l 58 571 b 24 528 36 560 24 546 l 24 522 b 94 404 24 479 94 472 l 94 167 b 38 35 94 99 38 78 l 38 29 b 72 0 38 11 51 0 l 404 0 b 439 29 425 0 439 11 l 439 35 b 361 167 439 78 361 99 l 361 440 b 394 526 361 483 365 526 b 539 388 460 526 397 388 b 658 535 631 388 658 457 b 528 681 658 618 610 681 z "},"ř":{"ha":657,"x_min":0,"x_max":0,"o":"m 236 782 b 308 751 258 758 279 751 l 371 751 b 443 781 400 751 421 758 l 600 938 b 546 1004 628 965 581 1022 l 347 904 l 144 1004 b 90 938 114 1019 60 971 z m 528 681 b 332 540 426 681 361 631 l 332 642 b 279 675 332 671 318 693 l 58 571 b 24 528 36 560 24 546 l 24 522 b 94 404 24 479 94 472 l 94 167 b 38 35 94 99 38 78 l 38 29 b 72 0 38 11 51 0 l 404 0 b 439 29 425 0 439 11 l 439 35 b 361 167 439 78 361 99 l 361 440 b 394 526 361 483 365 526 b 539 388 460 526 397 388 b 658 535 631 388 658 457 b 528 681 658 618 610 681 z "},"ŗ":{"ha":657,"x_min":0,"x_max":0,"o":"m 528 681 b 332 540 426 681 361 631 l 332 642 b 279 675 332 671 318 693 l 58 571 b 24 528 36 560 24 546 l 24 522 b 94 404 24 479 94 472 l 94 167 b 38 35 94 99 38 78 l 38 29 b 72 0 38 11 51 0 l 404 0 b 439 29 425 0 439 11 l 439 35 b 361 167 439 78 361 99 l 361 440 b 394 526 361 483 365 526 b 539 388 460 526 397 388 b 658 535 631 388 658 457 b 528 681 658 618 610 681 z m 226 -33 b 92 -175 143 -33 92 -90 b 185 -297 92 -246 135 -297 b 201 -325 201 -297 203 -308 b 132 -428 200 -360 176 -382 b 174 -472 108 -451 144 -490 b 368 -193 307 -394 368 -301 b 226 -33 368 -90 299 -33 z "},"s":{"ha":679,"x_min":0,"x_max":0,"o":"m 340 -12 b 649 196 539 -12 649 78 b 313 543 649 443 313 351 b 357 611 313 576 324 611 b 535 418 432 611 386 418 b 640 513 593 418 640 460 b 342 681 640 608 519 681 b 40 464 163 681 40 592 b 394 118 40 199 394 299 b 340 54 394 69 369 54 b 139 250 244 54 293 250 b 29 151 78 250 29 221 b 340 -12 29 46 168 -12 z "},"ś":{"ha":679,"x_min":0,"x_max":0,"o":"m 213 754 l 503 819 b 539 903 547 829 557 865 l 488 1010 b 396 1029 469 1047 435 1060 l 160 839 b 150 775 142 824 136 797 b 213 754 163 756 188 749 z m 340 -12 b 649 196 539 -12 649 78 b 313 543 649 443 313 351 b 357 611 313 576 324 611 b 535 418 432 611 386 418 b 640 513 593 418 640 460 b 342 681 640 608 519 681 b 40 464 163 681 40 592 b 394 118 40 199 394 299 b 340 54 394 69 369 54 b 139 250 244 54 293 250 b 29 151 78 250 29 221 b 340 -12 29 46 168 -12 z "},"š":{"ha":679,"x_min":0,"x_max":0,"o":"m 231 782 b 303 751 253 758 274 751 l 365 751 b 438 781 394 751 415 758 l 594 938 b 540 1004 622 965 575 1022 l 342 904 l 139 1004 b 85 938 108 1019 54 971 z m 313 543 b 357 611 313 576 324 611 b 535 418 432 611 386 418 b 640 513 593 418 640 460 b 342 681 640 608 519 681 b 40 464 163 681 40 592 b 394 118 40 199 394 299 b 340 54 394 69 369 54 b 139 250 244 54 293 250 b 29 151 78 250 29 221 b 340 -12 29 46 168 -12 b 649 196 539 -12 649 78 b 313 543 649 443 313 351 z "},"ş":{"ha":679,"x_min":0,"x_max":0,"o":"m 649 196 b 313 543 649 443 313 351 b 357 611 313 576 324 611 b 535 418 432 611 386 418 b 640 513 593 418 640 460 b 342 681 640 608 519 681 b 40 464 163 681 40 592 b 394 118 40 199 394 299 b 340 54 394 69 369 54 b 139 250 244 54 293 250 b 29 151 78 250 29 221 b 293 -11 29 56 143 -1 l 276 -92 b 313 -133 269 -126 290 -133 b 394 -181 342 -133 394 -144 b 326 -232 394 -214 363 -232 b 247 -217 300 -232 265 -225 b 246 -304 215 -201 201 -283 b 369 -322 267 -314 307 -322 b 583 -192 481 -322 583 -283 b 401 -68 583 -99 489 -65 l 404 -10 b 649 196 563 8 649 92 z "},"ș":{"ha":679,"x_min":0,"x_max":0,"o":"m 340 -12 b 649 196 539 -12 649 78 b 313 543 649 443 313 351 b 357 611 313 576 324 611 b 535 418 432 611 386 418 b 640 513 593 418 640 460 b 342 681 640 608 519 681 b 40 464 163 681 40 592 b 394 118 40 199 394 299 b 340 54 394 69 369 54 b 139 250 244 54 293 250 b 29 151 78 250 29 221 b 340 -12 29 46 168 -12 z m 288 -472 b 482 -193 421 -394 482 -301 b 340 -33 482 -90 413 -33 b 206 -175 257 -33 206 -90 b 299 -297 206 -246 249 -297 b 315 -325 315 -297 317 -308 b 246 -428 314 -360 290 -382 b 288 -472 222 -451 258 -490 z "},"ß":{"ha":856,"x_min":0,"x_max":0,"o":"m 614 540 b 744 735 685 569 744 636 b 433 1014 744 911 599 1014 b 79 703 207 1014 79 882 l 79 167 b 22 35 79 99 22 78 l 22 29 b 57 0 22 11 36 0 l 392 0 b 426 29 413 0 426 -6 l 426 35 b 349 167 426 86 349 99 l 349 833 b 415 940 349 878 361 940 b 507 703 483 940 507 858 b 433 571 507 606 472 571 b 433 485 375 571 378 485 b 578 217 519 485 578 378 b 497 67 578 136 543 67 b 507 0 453 67 444 0 b 832 265 685 0 832 96 b 614 540 832 407 747 510 z "},"t":{"ha":578,"x_min":0,"x_max":0,"o":"m 329 -14 b 574 218 492 -14 574 107 b 518 231 574 246 540 256 b 431 186 501 211 482 186 b 374 250 399 186 374 211 l 374 563 l 504 563 b 539 597 524 563 539 578 l 539 632 b 504 667 539 651 524 667 l 374 667 l 374 808 b 333 847 374 832 357 847 l 296 847 b 254 808 276 847 260 832 b 68 667 233 724 158 667 l 49 667 b 14 632 28 667 14 653 l 14 597 b 49 563 14 578 29 563 l 90 563 l 90 256 b 329 -14 90 81 185 -14 z "},"ŧ":{"ha":585,"x_min":0,"x_max":0,"o":"m 522 231 b 435 186 506 211 486 186 b 378 250 403 186 378 211 l 378 353 l 500 353 b 526 383 515 353 526 363 l 526 431 b 500 457 526 446 515 457 l 378 457 l 378 563 l 508 563 b 543 597 528 563 543 578 l 543 632 b 508 667 543 651 528 667 l 378 667 l 378 808 b 338 847 378 832 361 847 l 300 847 b 258 808 281 847 264 832 b 72 667 238 724 163 667 l 53 667 b 18 632 32 667 18 653 l 18 597 b 53 563 18 578 33 563 l 94 563 l 94 457 l 46 457 b 21 431 32 457 21 450 l 21 378 b 46 353 21 357 32 353 l 94 353 l 94 256 b 333 -14 94 81 189 -14 b 578 218 496 -14 578 107 b 522 231 578 246 544 256 z "},"ť":{"ha":578,"x_min":0,"x_max":0,"o":"m 468 747 b 529 747 489 733 513 739 b 706 1071 619 799 706 918 b 660 1114 706 1097 688 1114 l 551 1114 b 513 1071 529 1114 513 1093 b 446 808 513 992 503 882 b 451 758 431 789 438 768 z m 329 -14 b 574 218 492 -14 574 107 b 518 231 574 246 540 256 b 431 186 501 211 482 186 b 374 250 399 186 374 211 l 374 563 l 504 563 b 539 597 524 563 539 578 l 539 632 b 504 667 539 651 524 667 l 374 667 l 374 808 b 333 847 374 832 357 847 l 296 847 b 254 808 276 847 260 832 b 68 667 233 724 158 667 l 49 667 b 14 632 28 667 14 653 l 14 597 b 49 563 14 578 29 563 l 90 563 l 90 256 b 329 -14 90 81 185 -14 z "},"ţ":{"ha":578,"x_min":0,"x_max":0,"o":"m 351 -68 l 354 -12 b 574 218 500 -1 574 113 b 518 231 574 246 540 256 b 431 186 501 211 482 186 b 374 250 399 186 374 211 l 374 563 l 504 563 b 539 597 524 563 539 578 l 539 632 b 504 667 539 651 524 667 l 374 667 l 374 808 b 333 847 374 832 357 847 l 296 847 b 254 808 276 847 260 832 b 68 667 233 724 158 667 l 49 667 b 14 632 28 667 14 653 l 14 597 b 49 563 14 578 29 563 l 90 563 l 90 256 b 246 -1 90 117 150 29 l 226 -92 b 263 -133 219 -126 240 -133 b 344 -181 292 -133 344 -144 b 276 -232 344 -214 313 -232 b 197 -217 250 -232 215 -225 b 196 -304 165 -201 151 -283 b 319 -322 217 -314 257 -322 b 533 -192 431 -322 533 -283 b 351 -68 533 -99 439 -65 z "},"ț":{"ha":578,"x_min":0,"x_max":0,"o":"m 329 -14 b 574 218 492 -14 574 107 b 518 231 574 246 540 256 b 431 186 501 211 482 186 b 374 250 399 186 374 211 l 374 563 l 504 563 b 539 597 524 563 539 578 l 539 632 b 504 667 539 651 524 667 l 374 667 l 374 808 b 333 847 374 832 357 847 l 296 847 b 254 808 276 847 260 832 b 68 667 233 724 158 667 l 49 667 b 14 632 28 667 14 653 l 14 597 b 49 563 14 578 29 563 l 90 563 l 90 256 b 329 -14 90 81 185 -14 z m 238 -472 b 432 -193 371 -394 432 -301 b 290 -33 432 -90 363 -33 b 156 -175 207 -33 156 -90 b 249 -297 156 -246 199 -297 b 265 -325 265 -297 267 -308 b 196 -428 264 -360 240 -382 b 238 -472 172 -451 208 -490 z "},"u":{"ha":839,"x_min":0,"x_max":0,"o":"m 763 163 l 763 642 b 694 674 763 669 740 679 l 464 643 b 429 608 443 640 429 625 l 429 603 b 486 476 429 565 486 544 l 486 207 b 417 88 486 135 456 88 b 347 219 368 88 346 118 l 353 642 b 279 674 353 669 325 679 l 49 643 b 14 608 28 640 14 625 l 14 603 b 71 476 14 565 71 544 l 71 249 b 331 -14 71 81 194 -14 b 521 64 424 -14 486 14 b 660 -8 531 11 569 -8 b 818 42 757 -8 818 1 b 763 163 818 103 763 46 z "},"ú":{"ha":839,"x_min":0,"x_max":0,"o":"m 300 754 l 590 819 b 626 903 635 829 644 865 l 575 1010 b 483 1029 557 1047 522 1060 l 247 839 b 238 775 229 824 224 797 b 300 754 250 756 275 749 z m 763 163 l 763 642 b 694 674 763 669 740 679 l 464 643 b 429 608 443 640 429 625 l 429 603 b 486 476 429 565 486 544 l 486 207 b 417 88 486 135 456 88 b 347 219 368 88 346 118 l 353 642 b 279 674 353 669 325 679 l 49 643 b 14 608 28 640 14 625 l 14 603 b 71 476 14 565 71 544 l 71 249 b 331 -14 71 81 194 -14 b 521 64 424 -14 486 14 b 660 -8 531 11 569 -8 b 818 42 757 -8 818 1 b 763 163 818 103 763 46 z "},"û":{"ha":839,"x_min":0,"x_max":0,"o":"m 222 750 l 411 853 l 625 750 b 689 829 689 719 736 782 l 517 993 b 444 1022 496 1014 474 1022 l 390 1022 b 318 992 361 1022 340 1017 l 165 829 b 222 750 114 774 186 731 z m 763 163 l 763 642 b 694 674 763 669 740 679 l 464 643 b 429 608 443 640 429 625 l 429 603 b 486 476 429 565 486 544 l 486 207 b 417 88 486 135 456 88 b 347 219 368 88 346 118 l 353 642 b 279 674 353 669 325 679 l 49 643 b 14 608 28 640 14 625 l 14 603 b 71 476 14 565 71 544 l 71 249 b 331 -14 71 81 194 -14 b 521 64 424 -14 486 14 b 660 -8 531 11 569 -8 b 818 42 757 -8 818 1 b 763 163 818 103 763 46 z "},"ü":{"ha":839,"x_min":0,"x_max":0,"o":"m 242 743 b 399 882 336 743 399 804 b 242 1019 399 960 336 1019 b 83 882 147 1019 83 960 b 242 743 83 804 147 743 z m 610 743 b 768 882 704 743 768 804 b 610 1019 768 960 704 1019 b 453 882 515 1019 453 960 b 610 743 453 804 515 743 z m 763 163 l 763 642 b 694 674 763 669 740 679 l 464 643 b 429 608 443 640 429 625 l 429 603 b 486 476 429 565 486 544 l 486 207 b 417 88 486 135 456 88 b 347 219 368 88 346 118 l 353 642 b 279 674 353 669 325 679 l 49 643 b 14 608 28 640 14 625 l 14 603 b 71 476 14 565 71 544 l 71 249 b 331 -14 71 81 194 -14 b 521 64 424 -14 486 14 b 660 -8 531 11 569 -8 b 818 42 757 -8 818 1 b 763 163 818 103 763 46 z "},"ù":{"ha":839,"x_min":0,"x_max":0,"o":"m 249 810 l 539 744 b 601 765 564 739 589 746 b 592 829 615 788 610 814 l 356 1019 b 264 1000 317 1050 282 1038 l 213 893 b 249 810 194 856 204 819 z m 763 163 l 763 642 b 694 674 763 669 740 679 l 464 643 b 429 608 443 640 429 625 l 429 603 b 486 476 429 565 486 544 l 486 207 b 417 88 486 135 456 88 b 347 219 368 88 346 118 l 353 642 b 279 674 353 669 325 679 l 49 643 b 14 608 28 640 14 625 l 14 603 b 71 476 14 565 71 544 l 71 249 b 331 -14 71 81 194 -14 b 521 64 424 -14 486 14 b 660 -8 531 11 569 -8 b 818 42 757 -8 818 1 b 763 163 818 103 763 46 z "},"ű":{"ha":839,"x_min":0,"x_max":0,"o":"m 185 746 l 428 917 b 426 1008 465 942 460 978 l 371 1061 b 281 1043 339 1092 306 1086 l 139 792 b 136 742 128 771 125 753 b 185 746 150 731 167 733 z m 446 742 b 494 746 458 731 476 733 l 738 917 b 736 1008 774 942 769 978 l 681 1061 b 590 1043 649 1092 615 1086 l 449 792 b 446 742 438 771 433 754 z m 763 163 l 763 642 b 694 674 763 669 740 679 l 464 643 b 429 608 443 640 429 625 l 429 603 b 486 476 429 565 486 544 l 486 207 b 417 88 486 135 456 88 b 347 219 368 88 346 118 l 353 642 b 279 674 353 669 325 679 l 49 643 b 14 608 28 640 14 625 l 14 603 b 71 476 14 565 71 544 l 71 249 b 331 -14 71 81 194 -14 b 521 64 424 -14 486 14 b 660 -8 531 11 569 -8 b 818 42 757 -8 818 1 b 763 163 818 103 763 46 z "},"ū":{"ha":839,"x_min":0,"x_max":0,"o":"m 226 792 l 626 792 b 663 828 650 792 663 804 l 663 924 b 626 960 663 947 650 960 l 226 960 b 190 924 203 960 190 947 l 190 828 b 226 792 190 804 203 792 z m 763 163 l 763 642 b 694 674 763 669 740 679 l 464 643 b 429 608 443 640 429 625 l 429 603 b 486 476 429 565 486 544 l 486 207 b 417 88 486 135 456 88 b 347 219 368 88 346 118 l 353 642 b 279 674 353 669 325 679 l 49 643 b 14 608 28 640 14 625 l 14 603 b 71 476 14 565 71 544 l 71 249 b 331 -14 71 81 194 -14 b 521 64 424 -14 486 14 b 660 -8 531 11 569 -8 b 818 42 757 -8 818 1 b 763 163 818 103 763 46 z "},"ų":{"ha":839,"x_min":0,"x_max":0,"o":"m 736 -6 b 818 42 788 0 818 14 b 763 163 818 103 763 46 l 763 642 b 694 674 763 669 740 679 l 464 643 b 429 608 443 640 429 625 l 429 603 b 486 476 429 565 486 544 l 486 207 b 417 88 486 135 456 88 b 347 219 368 88 346 118 l 353 642 b 279 674 353 669 325 679 l 49 643 b 14 608 28 640 14 625 l 14 603 b 71 476 14 565 71 544 l 71 249 b 331 -14 71 81 194 -14 b 521 64 424 -14 486 14 b 614 -6 529 21 556 0 b 492 -181 519 -64 492 -121 b 671 -314 492 -286 593 -314 b 750 -303 704 -314 738 -308 b 742 -203 807 -281 792 -186 b 721 -207 733 -206 729 -207 b 685 -146 703 -207 683 -193 b 736 -6 685 -114 699 -62 z "},"ů":{"ha":839,"x_min":0,"x_max":0,"o":"m 425 735 b 646 901 560 735 646 800 b 426 1054 646 992 551 1054 b 207 889 297 1054 207 993 b 425 735 207 801 300 735 z m 426 978 b 486 896 458 978 486 951 b 426 807 486 826 458 807 b 367 896 394 807 367 840 b 426 978 367 964 394 978 z m 763 163 l 763 642 b 694 674 763 669 740 679 l 464 643 b 429 608 443 640 429 625 l 429 603 b 486 476 429 565 486 544 l 486 207 b 417 88 486 135 456 88 b 347 219 368 88 346 118 l 353 642 b 279 674 353 669 325 679 l 49 643 b 14 608 28 640 14 625 l 14 603 b 71 476 14 565 71 544 l 71 249 b 331 -14 71 81 194 -14 b 521 64 424 -14 486 14 b 660 -8 531 11 569 -8 b 818 42 757 -8 818 1 b 763 163 818 103 763 46 z "},"ũ":{"ha":839,"x_min":0,"x_max":0,"o":"m 186 807 l 203 807 b 243 832 228 807 228 815 b 293 856 258 849 274 856 b 521 789 364 856 431 789 b 689 958 611 789 671 874 b 664 993 693 981 685 993 l 654 993 b 617 972 635 993 626 985 b 556 944 603 954 590 944 b 335 1007 496 944 436 1007 b 163 840 246 1007 181 928 b 186 807 158 818 169 807 z m 763 163 l 763 642 b 694 674 763 669 740 679 l 464 643 b 429 608 443 640 429 625 l 429 603 b 486 476 429 565 486 544 l 486 207 b 417 88 486 135 456 88 b 347 219 368 88 346 118 l 353 642 b 279 674 353 669 325 679 l 49 643 b 14 608 28 640 14 625 l 14 603 b 71 476 14 565 71 544 l 71 249 b 331 -14 71 81 194 -14 b 521 64 424 -14 486 14 b 660 -8 531 11 569 -8 b 818 42 757 -8 818 1 b 763 163 818 103 763 46 z "},"v":{"ha":774,"x_min":0,"x_max":0,"o":"m 751 667 l 556 667 b 521 636 535 667 521 654 l 521 631 b 571 456 521 589 613 576 l 493 229 l 394 496 b 415 631 365 575 415 589 l 415 636 b 382 667 415 654 401 667 l 26 667 b -8 638 6 667 -8 656 l -8 632 b 69 500 -8 589 43 561 l 267 39 b 319 0 279 11 292 0 l 467 0 b 519 39 494 0 510 11 l 688 500 b 786 632 713 567 786 589 l 786 638 b 751 667 786 656 772 667 z "},"w":{"ha":1031,"x_min":0,"x_max":0,"o":"m 1007 667 l 810 667 b 775 636 789 667 775 654 l 775 631 b 836 468 775 589 872 574 l 768 269 l 667 632 b 628 661 661 651 649 661 l 535 660 b 497 628 514 660 503 647 l 394 264 l 319 496 b 364 631 293 576 364 589 l 364 636 b 331 667 364 654 350 667 l 25 667 b -10 638 4 667 -10 656 l -10 632 b 68 500 -10 589 42 564 l 261 39 b 314 0 272 11 286 0 l 358 0 b 411 39 386 0 403 11 l 514 376 l 617 39 b 669 0 625 11 642 0 l 733 0 b 786 39 761 0 776 11 l 951 500 b 1042 632 975 568 1042 589 l 1042 638 b 1007 667 1042 656 1028 667 z "},"ẃ":{"ha":1031,"x_min":0,"x_max":0,"o":"m 438 747 l 728 813 b 764 896 772 822 782 858 l 713 1003 b 621 1022 694 1040 660 1053 l 385 832 b 375 768 367 817 361 790 b 438 747 388 749 413 742 z m 1007 667 l 810 667 b 775 636 789 667 775 654 l 775 631 b 836 468 775 589 872 574 l 768 269 l 667 632 b 628 661 661 651 649 661 l 535 660 b 497 628 514 660 503 647 l 394 264 l 319 496 b 364 631 293 576 364 589 l 364 636 b 331 667 364 654 350 667 l 25 667 b -10 638 4 667 -10 656 l -10 632 b 68 500 -10 589 42 564 l 261 39 b 314 0 272 11 286 0 l 358 0 b 411 39 386 0 403 11 l 514 376 l 617 39 b 669 0 625 11 642 0 l 733 0 b 786 39 761 0 776 11 l 951 500 b 1042 632 975 568 1042 589 l 1042 638 b 1007 667 1042 656 1028 667 z "},"ŵ":{"ha":1031,"x_min":0,"x_max":0,"o":"m 360 743 l 549 846 l 763 743 b 826 822 826 713 874 775 l 654 986 b 582 1015 633 1007 611 1015 l 528 1015 b 456 985 499 1015 478 1010 l 303 822 b 360 743 251 767 324 724 z m 1007 667 l 810 667 b 775 636 789 667 775 654 l 775 631 b 836 468 775 589 872 574 l 768 269 l 667 632 b 628 661 661 651 649 661 l 535 660 b 497 628 514 660 503 647 l 394 264 l 319 496 b 364 631 293 576 364 589 l 364 636 b 331 667 364 654 350 667 l 25 667 b -10 638 4 667 -10 656 l -10 632 b 68 500 -10 589 42 564 l 261 39 b 314 0 272 11 286 0 l 358 0 b 411 39 386 0 403 11 l 514 376 l 617 39 b 669 0 625 11 642 0 l 733 0 b 786 39 761 0 776 11 l 951 500 b 1042 632 975 568 1042 589 l 1042 638 b 1007 667 1042 656 1028 667 z "},"ẅ":{"ha":1031,"x_min":0,"x_max":0,"o":"m 379 736 b 536 875 474 736 536 797 b 379 1013 536 953 474 1013 b 221 875 285 1013 221 953 b 379 736 221 797 285 736 z m 747 736 b 906 875 842 736 906 797 b 747 1013 906 953 842 1013 b 590 875 653 1013 590 953 b 747 736 590 797 653 736 z m 1007 667 l 810 667 b 775 636 789 667 775 654 l 775 631 b 836 468 775 589 872 574 l 768 269 l 667 632 b 628 661 661 651 649 661 l 535 660 b 497 628 514 660 503 647 l 394 264 l 319 496 b 364 631 293 576 364 589 l 364 636 b 331 667 364 654 350 667 l 25 667 b -10 638 4 667 -10 656 l -10 632 b 68 500 -10 589 42 564 l 261 39 b 314 0 272 11 286 0 l 358 0 b 411 39 386 0 403 11 l 514 376 l 617 39 b 669 0 625 11 642 0 l 733 0 b 786 39 761 0 776 11 l 951 500 b 1042 632 975 568 1042 589 l 1042 638 b 1007 667 1042 656 1028 667 z "},"ẁ":{"ha":1031,"x_min":0,"x_max":0,"o":"m 386 803 l 676 738 b 739 758 701 732 726 739 b 729 822 753 781 747 807 l 493 1013 b 401 993 454 1043 419 1031 l 350 886 b 386 803 332 849 342 813 z m 1007 667 l 810 667 b 775 636 789 667 775 654 l 775 631 b 836 468 775 589 872 574 l 768 269 l 667 632 b 628 661 661 651 649 661 l 535 660 b 497 628 514 660 503 647 l 394 264 l 319 496 b 364 631 293 576 364 589 l 364 636 b 331 667 364 654 350 667 l 25 667 b -10 638 4 667 -10 656 l -10 632 b 68 500 -10 589 42 564 l 261 39 b 314 0 272 11 286 0 l 358 0 b 411 39 386 0 403 11 l 514 376 l 617 39 b 669 0 625 11 642 0 l 733 0 b 786 39 761 0 776 11 l 951 500 b 1042 632 975 568 1042 589 l 1042 638 b 1007 667 1042 656 1028 667 z "},"x":{"ha":793,"x_min":0,"x_max":0,"o":"m 690 167 l 544 340 l 679 500 b 782 632 728 558 782 589 l 782 638 b 747 667 782 656 768 667 l 560 667 b 525 636 539 667 525 654 l 525 631 b 553 496 525 589 607 556 l 481 417 l 414 496 b 428 631 368 550 428 589 l 428 636 b 394 667 428 654 414 667 l 39 667 b 4 638 18 667 4 656 l 4 632 b 117 500 4 589 49 581 l 272 319 l 119 167 b -10 35 57 104 -10 78 l -10 29 b 25 0 -10 11 4 0 l 246 0 b 281 31 267 0 281 13 l 281 36 b 264 160 281 74 203 88 l 336 244 l 399 171 b 378 36 475 82 378 78 l 378 31 b 411 0 378 13 392 0 l 764 0 b 799 29 785 0 799 11 l 799 35 b 690 167 799 78 735 114 z "},"y":{"ha":792,"x_min":0,"x_max":0,"o":"m 768 667 l 569 667 b 535 636 549 667 535 654 l 535 631 b 603 469 535 589 644 571 l 492 197 l 368 496 b 386 631 333 579 386 589 l 386 636 b 353 667 386 654 372 667 l 22 667 b -12 638 1 667 -12 656 l -12 632 b 68 500 -12 589 33 567 l 354 -50 b 233 -219 321 -131 274 -219 b 74 -19 175 -219 224 -19 b -37 -129 4 -19 -37 -64 b 197 -300 -37 -217 53 -300 b 463 -61 346 -300 426 -139 l 724 500 b 803 632 753 564 803 589 l 803 638 b 768 667 803 656 789 667 z "},"ý":{"ha":792,"x_min":0,"x_max":0,"o":"m 314 754 l 604 819 b 640 903 649 829 658 865 l 589 1010 b 497 1029 571 1047 536 1060 l 261 839 b 251 775 243 824 238 797 b 314 754 264 756 289 749 z m 768 667 l 569 667 b 535 636 549 667 535 654 l 535 631 b 603 469 535 589 644 571 l 492 197 l 368 496 b 386 631 333 579 386 589 l 386 636 b 353 667 386 654 372 667 l 22 667 b -12 638 1 667 -12 656 l -12 632 b 68 500 -12 589 33 567 l 354 -50 b 233 -219 321 -131 274 -219 b 74 -19 175 -219 224 -19 b -37 -129 4 -19 -37 -64 b 197 -300 -37 -217 53 -300 b 463 -61 346 -300 426 -139 l 724 500 b 803 632 753 564 803 589 l 803 638 b 768 667 803 656 789 667 z "},"ŷ":{"ha":792,"x_min":0,"x_max":0,"o":"m 236 750 l 425 853 l 639 750 b 703 829 703 719 750 782 l 531 993 b 458 1022 510 1014 488 1022 l 404 1022 b 332 992 375 1022 354 1017 l 179 829 b 236 750 128 774 200 731 z m 768 667 l 569 667 b 535 636 549 667 535 654 l 535 631 b 603 469 535 589 644 571 l 492 197 l 368 496 b 386 631 333 579 386 589 l 386 636 b 353 667 386 654 372 667 l 22 667 b -12 638 1 667 -12 656 l -12 632 b 68 500 -12 589 33 567 l 354 -50 b 233 -219 321 -131 274 -219 b 74 -19 175 -219 224 -19 b -37 -129 4 -19 -37 -64 b 197 -300 -37 -217 53 -300 b 463 -61 346 -300 426 -139 l 724 500 b 803 632 753 564 803 589 l 803 638 b 768 667 803 656 789 667 z "},"ÿ":{"ha":792,"x_min":0,"x_max":0,"o":"m 256 743 b 413 882 350 743 413 804 b 256 1019 413 960 350 1019 b 97 882 161 1019 97 960 b 256 743 97 804 161 743 z m 624 743 b 782 882 718 743 782 804 b 624 1019 782 960 718 1019 b 467 882 529 1019 467 960 b 624 743 467 804 529 743 z m 768 667 l 569 667 b 535 636 549 667 535 654 l 535 631 b 603 469 535 589 644 571 l 492 197 l 368 496 b 386 631 333 579 386 589 l 386 636 b 353 667 386 654 372 667 l 22 667 b -12 638 1 667 -12 656 l -12 632 b 68 500 -12 589 33 567 l 354 -50 b 233 -219 321 -131 274 -219 b 74 -19 175 -219 224 -19 b -37 -129 4 -19 -37 -64 b 197 -300 -37 -217 53 -300 b 463 -61 346 -300 426 -139 l 724 500 b 803 632 753 564 803 589 l 803 638 b 768 667 803 656 789 667 z "},"ỳ":{"ha":792,"x_min":0,"x_max":0,"o":"m 263 810 l 553 744 b 615 765 578 739 603 746 b 606 829 629 788 624 814 l 369 1019 b 278 1000 331 1050 296 1038 l 226 893 b 263 810 208 856 218 819 z m 768 667 l 569 667 b 535 636 549 667 535 654 l 535 631 b 603 469 535 589 644 571 l 492 197 l 368 496 b 386 631 333 579 386 589 l 386 636 b 353 667 386 654 372 667 l 22 667 b -12 638 1 667 -12 656 l -12 632 b 68 500 -12 589 33 567 l 354 -50 b 233 -219 321 -131 274 -219 b 74 -19 175 -219 224 -19 b -37 -129 4 -19 -37 -64 b 197 -300 -37 -217 53 -300 b 463 -61 346 -300 426 -139 l 724 500 b 803 632 753 564 803 589 l 803 638 b 768 667 803 656 789 667 z "},"ỹ":{"ha":792,"x_min":0,"x_max":0,"o":"m 200 807 l 217 807 b 257 832 242 807 242 815 b 307 856 272 849 288 856 b 535 789 378 856 444 789 b 703 958 625 789 685 874 b 678 993 707 981 699 993 l 668 993 b 631 972 649 993 640 985 b 569 944 617 954 604 944 b 349 1007 510 944 450 1007 b 176 840 260 1007 194 928 b 200 807 172 818 183 807 z m 768 667 l 569 667 b 535 636 549 667 535 654 l 535 631 b 603 469 535 589 644 571 l 492 197 l 368 496 b 386 631 333 579 386 589 l 386 636 b 353 667 386 654 372 667 l 22 667 b -12 638 1 667 -12 656 l -12 632 b 68 500 -12 589 33 567 l 354 -50 b 233 -219 321 -131 274 -219 b 74 -19 175 -219 224 -19 b -37 -129 4 -19 -37 -64 b 197 -300 -37 -217 53 -300 b 463 -61 346 -300 426 -139 l 724 500 b 803 632 753 564 803 589 l 803 638 b 768 667 803 656 789 667 z "},"z":{"ha":726,"x_min":0,"x_max":0,"o":"m 682 233 l 672 233 b 429 67 596 233 543 67 l 343 67 l 633 533 b 682 626 654 567 682 606 l 682 640 b 647 667 682 654 669 667 l 114 667 b 63 621 81 667 74 653 l 25 508 b 60 450 14 476 26 450 l 69 450 b 286 600 154 450 188 600 l 365 600 l 63 118 b 29 56 51 101 29 75 l 29 35 b 68 0 29 15 49 0 l 638 0 b 672 35 657 0 667 15 l 715 186 b 682 233 724 218 710 233 z "},"ź":{"ha":726,"x_min":0,"x_max":0,"o":"m 274 754 l 564 819 b 600 903 608 829 618 865 l 549 1010 b 457 1029 531 1047 496 1060 l 221 839 b 211 775 203 824 197 797 b 274 754 224 756 249 749 z m 682 233 l 672 233 b 429 67 596 233 543 67 l 343 67 l 633 533 b 682 626 654 567 682 606 l 682 640 b 647 667 682 654 669 667 l 114 667 b 63 621 81 667 74 653 l 25 508 b 60 450 14 476 26 450 l 69 450 b 286 600 154 450 188 600 l 365 600 l 63 118 b 29 56 51 101 29 75 l 29 35 b 68 0 29 15 49 0 l 638 0 b 672 35 657 0 667 15 l 715 186 b 682 233 724 218 710 233 z "},"ž":{"ha":726,"x_min":0,"x_max":0,"o":"m 290 782 b 363 751 313 758 333 751 l 425 751 b 497 781 454 751 475 758 l 654 938 b 600 1004 682 965 635 1022 l 401 904 l 199 1004 b 144 938 168 1019 114 971 z m 682 233 l 672 233 b 429 67 596 233 543 67 l 343 67 l 633 533 b 682 626 654 567 682 606 l 682 640 b 647 667 682 654 669 667 l 114 667 b 63 621 81 667 74 653 l 25 508 b 60 450 14 476 26 450 l 69 450 b 286 600 154 450 188 600 l 365 600 l 63 118 b 29 56 51 101 29 75 l 29 35 b 68 0 29 15 49 0 l 638 0 b 672 35 657 0 667 15 l 715 186 b 682 233 724 218 710 233 z "},"ż":{"ha":726,"x_min":0,"x_max":0,"o":"m 397 735 b 574 889 503 735 574 803 b 397 1042 574 975 503 1042 b 221 889 292 1042 221 975 b 397 735 221 803 292 735 z m 682 233 l 672 233 b 429 67 596 233 543 67 l 343 67 l 633 533 b 682 626 654 567 682 606 l 682 640 b 647 667 682 654 669 667 l 114 667 b 63 621 81 667 74 653 l 25 508 b 60 450 14 476 26 450 l 69 450 b 286 600 154 450 188 600 l 365 600 l 63 118 b 29 56 51 101 29 75 l 29 35 b 68 0 29 15 49 0 l 638 0 b 672 35 657 0 667 15 l 715 186 b 682 233 724 218 710 233 z "},"ﬁ":{"ha":1047,"x_min":0,"x_max":0,"o":"m 532 667 l 390 667 b 488 938 369 796 389 938 b 756 701 600 938 572 701 b 863 799 817 701 863 747 b 517 1014 863 925 740 1014 b 122 722 265 1014 122 882 l 122 667 l 38 667 b 3 632 18 667 3 651 l 3 597 b 38 563 3 578 18 563 l 122 563 l 122 167 b 65 35 122 99 65 78 l 65 29 b 100 0 65 11 79 0 l 435 0 b 469 29 456 0 469 11 l 469 35 b 392 167 469 78 392 99 l 392 563 l 532 563 b 567 597 551 563 567 578 l 567 632 b 532 667 567 651 551 667 z m 965 167 l 965 642 b 897 674 965 669 939 694 l 660 557 b 625 522 639 547 625 539 l 625 517 b 682 390 625 479 682 458 l 682 167 b 625 35 682 99 625 78 l 625 29 b 660 0 625 11 639 0 l 994 0 b 1029 29 1015 0 1029 11 l 1029 35 b 965 167 1029 78 965 99 z "},"ﬂ":{"ha":1049,"x_min":0,"x_max":0,"o":"m 965 167 l 965 1014 b 897 1046 965 1042 939 1067 l 743 971 b 517 1014 688 999 611 1014 b 122 722 265 1014 122 882 l 122 667 l 38 667 b 3 632 18 667 3 651 l 3 597 b 38 563 3 578 18 563 l 122 563 l 122 167 b 65 35 122 99 65 78 l 65 29 b 100 0 65 11 79 0 l 435 0 b 469 29 456 0 469 11 l 469 35 b 392 167 469 78 392 99 l 392 563 l 532 563 b 567 597 551 563 567 578 l 567 632 b 532 667 567 651 551 667 l 390 667 b 488 938 369 796 389 938 b 682 718 582 938 578 771 l 682 167 b 625 35 682 99 625 78 l 625 29 b 660 0 625 11 639 0 l 994 0 b 1029 29 1015 0 1029 11 l 1029 35 b 965 167 1029 78 965 99 z "},"ª":{"ha":618,"x_min":0,"x_max":0,"o":"m 551 644 l 531 801 b 267 1000 514 922 403 1000 b 50 889 167 1000 50 978 b 128 818 50 846 81 818 b 267 935 242 818 224 935 b 324 786 310 935 311 903 b 229 807 299 799 268 807 b 38 654 122 807 38 756 b 239 504 38 551 121 504 b 361 551 303 504 340 525 b 464 508 371 519 400 508 b 601 557 522 508 600 515 b 551 644 603 611 561 568 z m 306 574 b 257 693 275 574 257 622 b 286 736 257 719 269 736 b 335 671 310 736 329 710 l 340 613 b 306 574 342 590 329 574 z "},"º":{"ha":617,"x_min":0,"x_max":0,"o":"m 308 511 b 593 756 465 511 593 608 b 308 1000 593 901 465 1000 b 22 756 151 1000 22 901 b 308 511 22 608 151 511 z m 332 578 b 238 842 260 578 238 779 b 275 933 238 896 243 933 b 369 667 347 933 369 718 b 332 578 369 618 364 578 z "},"⁄":{"ha":583,"x_min":0,"x_max":0,"o":"m -8 0 l 81 0 b 119 24 99 0 111 7 l 617 946 b 593 986 629 968 618 986 l 507 986 b 468 963 489 986 476 979 l -32 40 b -8 0 -44 18 -35 0 z "},"½":{"ha":1132,"x_min":0,"x_max":0,"o":"m 335 453 l 335 457 b 290 535 335 482 290 494 l 290 881 b 319 981 290 942 319 950 l 319 986 b 288 1004 319 997 310 1011 l 67 931 b 39 900 49 925 39 914 l 39 896 b 104 824 39 864 104 876 l 104 535 b 63 457 104 494 63 482 l 63 453 b 83 436 63 443 71 436 l 314 436 b 335 453 326 436 335 443 z m 906 839 l 842 896 b 796 888 826 908 810 903 l 185 193 b 190 150 172 179 178 161 l 243 100 b 296 97 263 82 282 81 l 906 793 b 906 839 921 810 924 824 z m 1078 174 l 1057 174 b 964 119 1022 174 1029 119 l 774 119 b 1075 388 869 199 1075 233 b 861 528 1075 475 992 528 b 633 385 740 528 633 460 b 714 306 633 336 668 306 b 850 467 814 306 793 467 b 890 406 875 467 890 447 b 619 32 890 276 619 229 l 619 19 b 642 0 619 10 631 0 l 1049 0 b 1068 19 1060 0 1067 10 l 1096 154 b 1078 174 1099 165 1090 174 z "},"¼":{"ha":1069,"x_min":0,"x_max":0,"o":"m 333 453 l 333 457 b 289 535 333 482 289 494 l 289 881 b 318 981 289 942 318 950 l 318 986 b 286 1004 318 997 308 1011 l 65 931 b 38 900 47 925 38 914 l 38 896 b 103 824 38 864 103 876 l 103 535 b 61 457 103 494 61 482 l 61 453 b 82 436 61 443 69 436 l 313 436 b 333 453 325 436 333 443 z m 904 839 l 840 896 b 794 888 825 908 808 903 l 183 193 b 189 150 171 179 176 161 l 242 100 b 294 97 261 82 281 81 l 904 793 b 904 839 919 810 922 824 z m 1014 189 l 963 189 l 963 518 b 942 539 963 532 956 539 l 835 539 b 769 503 806 539 788 528 l 567 213 b 553 163 556 197 553 182 l 553 146 b 592 115 553 126 567 115 l 797 115 l 797 89 b 767 17 797 51 767 40 l 767 14 b 786 -3 767 3 774 -3 l 979 -3 b 997 14 990 -3 997 3 l 997 17 b 963 89 997 40 963 51 l 963 115 l 1014 115 b 1031 132 1025 115 1031 121 l 1031 172 b 1014 189 1031 183 1025 189 z m 664 189 l 797 414 l 797 189 z "},"¾":{"ha":1118,"x_min":0,"x_max":0,"o":"m 476 633 b 314 778 476 714 413 763 l 461 918 b 482 957 478 933 482 953 l 482 968 b 461 986 482 978 474 986 l 101 986 b 75 963 85 986 75 979 l 75 883 b 103 856 75 865 85 856 l 265 856 l 197 760 b 217 700 178 732 189 700 l 231 700 b 303 596 282 700 303 667 b 253 528 303 553 283 528 b 104 667 197 528 193 667 b 35 596 65 667 35 646 b 258 474 35 539 111 474 b 476 633 394 474 476 539 z m 949 839 l 885 896 b 839 888 869 908 853 903 l 228 193 b 233 150 215 179 221 161 l 286 100 b 339 97 306 82 325 81 l 949 793 b 949 839 964 810 967 824 z m 1058 189 l 1007 189 l 1007 518 b 986 539 1007 532 1000 539 l 879 539 b 814 503 850 539 832 528 l 611 213 b 597 163 600 197 597 182 l 597 146 b 636 115 597 126 611 115 l 842 115 l 842 89 b 811 17 842 51 811 40 l 811 14 b 831 -3 811 3 818 -3 l 1024 -3 b 1042 14 1035 -3 1042 3 l 1042 17 b 1007 89 1042 40 1007 51 l 1007 115 l 1058 115 b 1075 132 1069 115 1075 121 l 1075 172 b 1058 189 1075 183 1069 189 z m 708 189 l 842 414 l 842 189 z "},".":{"ha":394,"x_min":0,"x_max":0,"o":"m 197 -14 b 360 131 285 -14 360 31 b 197 275 360 231 285 275 b 35 131 110 275 35 231 b 197 -14 35 31 110 -14 z "},",":{"ha":397,"x_min":0,"x_max":0,"o":"m 135 -217 b 358 106 288 -126 358 -19 b 194 292 358 225 279 292 b 39 128 99 292 39 225 b 147 -14 39 44 89 -14 b 167 -47 165 -14 168 -28 b 86 -165 164 -87 138 -112 b 135 -217 58 -193 100 -237 z "},":":{"ha":425,"x_min":0,"x_max":0,"o":"m 213 392 b 375 536 300 392 375 436 b 213 681 375 636 300 681 b 50 536 125 681 50 636 b 213 392 50 436 125 392 z m 213 -14 b 375 131 300 -14 375 31 b 213 275 375 231 300 275 b 50 131 125 275 50 231 b 213 -14 50 31 125 -14 z "},";":{"ha":422,"x_min":0,"x_max":0,"o":"m 213 392 b 375 536 300 392 375 436 b 213 681 375 636 300 681 b 50 536 125 681 50 636 b 213 392 50 436 125 392 z m 144 -217 b 368 106 297 -126 368 -19 b 204 292 368 225 289 292 b 49 128 108 292 49 225 b 157 -14 49 44 99 -14 b 176 -47 175 -14 178 -28 b 96 -165 174 -87 147 -112 b 144 -217 68 -193 110 -237 z "},"…":{"ha":1156,"x_min":0,"x_max":0,"o":"m 197 -14 b 360 131 285 -14 360 31 b 197 275 360 231 285 275 b 35 131 110 275 35 231 b 197 -14 35 31 110 -14 z m 583 -14 b 746 131 671 -14 746 31 b 583 275 746 231 671 275 b 421 131 496 275 421 231 b 583 -14 421 31 496 -14 z m 958 -14 b 1121 131 1046 -14 1121 31 b 958 275 1121 231 1046 275 b 796 131 871 275 796 231 b 958 -14 796 31 871 -14 z "},"!":{"ha":403,"x_min":0,"x_max":0,"o":"m 147 360 b 256 360 157 325 244 324 b 342 903 322 575 342 788 b 61 901 342 1031 61 1028 b 147 360 61 796 88 575 z m 201 -19 b 364 125 289 -19 364 25 b 201 269 364 225 289 269 b 39 125 114 269 39 225 b 201 -19 39 25 114 -19 z "},"¡":{"ha":389,"x_min":0,"x_max":0,"o":"m 194 419 b 357 564 282 419 357 464 b 194 708 357 664 282 708 b 32 564 107 708 32 664 b 194 419 32 464 107 419 z m 335 -226 b 249 329 335 -111 315 114 b 140 329 238 365 150 364 b 54 -225 81 114 54 -119 b 335 -226 54 -351 335 -354 z "},"?":{"ha":822,"x_min":0,"x_max":0,"o":"m 283 347 b 479 347 306 283 479 292 b 788 732 479 485 788 501 b 404 1000 788 924 614 1000 b 32 750 214 1000 32 889 b 168 619 32 667 93 619 b 415 893 356 619 307 893 b 489 768 451 893 489 854 b 283 347 489 575 219 525 z m 383 -19 b 539 118 467 -19 539 24 b 383 256 539 214 467 256 b 228 118 300 256 228 214 b 383 -19 228 24 300 -19 z "},"¿":{"ha":813,"x_min":0,"x_max":0,"o":"m 435 461 b 590 599 518 461 590 503 b 435 736 590 693 518 736 b 279 599 351 736 279 693 b 435 461 279 503 351 461 z m 414 -283 b 786 -33 604 -283 786 -172 b 650 97 786 50 725 97 b 403 -176 463 97 511 -176 b 329 -51 367 -176 329 -137 b 535 369 329 142 597 192 b 339 369 513 433 339 425 b 31 -15 339 232 31 215 b 414 -283 31 -207 204 -283 z "},"·":{"ha":397,"x_min":0,"x_max":0,"o":"m 199 392 b 361 536 286 392 361 436 b 199 681 361 636 286 681 b 36 536 111 681 36 636 b 199 392 36 436 111 392 z "},"•":{"ha":628,"x_min":0,"x_max":0,"o":"m 314 290 b 563 507 463 290 563 386 b 314 722 563 628 463 722 b 65 507 165 722 65 628 b 314 290 65 386 165 290 z "},"*":{"ha":579,"x_min":0,"x_max":0,"o":"m 244 599 l 294 728 l 338 603 b 461 669 378 488 544 599 l 349 764 l 469 765 b 440 899 586 767 546 961 l 326 831 l 368 953 b 297 1053 392 1021 356 1056 b 219 953 238 1051 200 1015 l 257 831 l 142 899 b 114 765 44 956 -19 767 l 240 764 l 126 674 b 244 599 31 599 199 482 z "},"#":{"ha":956,"x_min":0,"x_max":0,"o":"m 881 667 l 790 667 l 853 904 b 829 944 858 926 854 944 l 715 944 b 685 921 697 944 689 938 l 617 667 l 444 667 l 507 904 b 483 944 513 926 508 944 l 369 944 b 339 921 351 944 343 938 l 271 667 l 113 667 b 76 640 92 667 76 656 l 76 558 b 113 533 76 543 92 533 l 236 533 l 203 413 l 75 413 b 39 386 54 413 39 401 l 39 304 b 75 279 39 289 54 279 l 168 279 l 104 40 b 128 0 99 18 101 0 l 236 0 b 275 24 254 0 271 7 l 342 279 l 514 279 l 450 40 b 474 0 444 18 447 0 l 582 0 b 621 24 600 0 617 7 l 688 279 l 843 279 b 879 304 868 279 879 289 l 879 386 b 843 413 879 401 868 413 l 724 413 l 756 533 l 881 533 b 917 558 906 533 917 543 l 917 640 b 881 667 917 656 906 667 z m 549 413 l 378 413 l 410 533 l 582 533 z "},"/":{"ha":546,"x_min":0,"x_max":0,"o":"m 51 -125 l 140 -125 b 179 -101 158 -125 174 -118 l 517 1060 b 493 1100 524 1082 518 1100 l 406 1100 b 367 1076 388 1100 371 1093 l 28 -85 b 51 -125 21 -107 25 -125 z "},"\\":{"ha":546,"x_min":0,"x_max":0,"o":"m 406 -125 l 494 -125 b 518 -85 521 -125 525 -107 l 179 1076 b 140 1100 175 1093 158 1100 l 53 1100 b 29 1060 28 1100 22 1082 l 367 -101 b 406 -125 372 -118 388 -125 z "},"(":{"ha":399,"x_min":0,"x_max":0,"o":"m 278 -157 b 353 -108 319 -189 379 -162 b 265 468 304 -7 265 228 b 353 1044 265 708 304 943 b 278 1093 379 1099 319 1125 b 36 468 160 1003 36 789 b 278 -157 36 147 160 -67 z "},")":{"ha":397,"x_min":0,"x_max":0,"o":"m 121 -157 b 361 468 236 -65 361 147 b 121 1093 361 789 244 1001 b 46 1044 79 1124 19 1099 b 133 468 94 943 133 708 b 46 -108 133 228 94 -7 b 121 -157 19 -162 79 -190 z "},"{":{"ha":514,"x_min":0,"x_max":0,"o":"m 460 -57 b 358 121 385 -57 356 -29 l 361 258 b 228 467 364 406 279 454 b 365 661 279 479 364 525 l 367 825 b 460 990 368 961 399 990 b 460 1094 522 990 508 1094 b 142 814 278 1094 143 1029 l 140 640 b 57 519 139 546 107 519 b 57 414 -14 519 -10 414 b 140 279 107 414 139 388 l 142 133 b 460 -161 144 -96 278 -161 b 460 -57 506 -161 504 -57 z "},"}":{"ha":515,"x_min":0,"x_max":0,"o":"m 457 519 b 374 640 407 519 374 546 l 374 814 b 54 1094 374 1029 236 1094 b 54 990 6 1094 -8 990 b 147 825 115 990 146 961 l 149 661 b 294 467 150 518 244 475 b 153 258 244 458 149 413 l 156 121 b 54 -57 158 -29 129 -57 b 54 -161 10 -57 8 -161 b 372 133 236 -161 369 -96 l 374 279 b 457 414 375 388 407 414 b 457 519 524 414 528 519 z "},"[":{"ha":463,"x_min":0,"x_max":0,"o":"m 122 -147 l 400 -147 b 431 -117 419 -147 431 -136 l 431 -58 b 400 -28 431 -39 419 -28 l 314 -28 l 314 964 l 400 964 b 431 994 419 964 431 975 l 431 1053 b 400 1083 431 1072 419 1083 l 122 1083 b 86 1047 100 1083 86 1069 l 86 -111 b 122 -147 86 -133 99 -147 z "},"]":{"ha":463,"x_min":0,"x_max":0,"o":"m 63 -147 l 340 -147 b 376 -111 364 -147 376 -133 l 376 1047 b 340 1083 376 1069 363 1083 l 63 1083 b 32 1053 43 1083 32 1072 l 32 994 b 63 964 32 975 43 964 l 149 964 l 149 -28 l 63 -28 b 32 -58 43 -28 32 -39 l 32 -117 b 63 -147 32 -136 43 -147 z "},"-":{"ha":642,"x_min":0,"x_max":0,"o":"m 96 403 l 546 403 b 581 442 568 403 581 417 l 581 500 b 546 539 581 525 568 539 l 96 539 b 61 500 74 539 61 525 l 61 442 b 96 403 61 417 74 403 z "},"–":{"ha":767,"x_min":0,"x_max":0,"o":"m 96 403 l 671 403 b 706 442 693 403 706 417 l 706 500 b 671 539 706 525 693 539 l 96 539 b 61 500 74 539 61 525 l 61 442 b 96 403 61 417 74 403 z "},"—":{"ha":892,"x_min":0,"x_max":0,"o":"m 96 403 l 796 403 b 831 442 818 403 831 417 l 831 500 b 796 539 831 525 818 539 l 96 539 b 61 500 74 539 61 525 l 61 442 b 96 403 61 417 74 403 z "},"_":{"ha":617,"x_min":0,"x_max":0,"o":"m 69 -122 l 547 -122 b 582 -87 569 -122 582 -110 l 582 -35 b 547 0 582 -12 569 0 l 69 0 b 35 -35 47 0 35 -12 l 35 -87 b 69 -122 35 -110 47 -122 z "},"‚":{"ha":397,"x_min":0,"x_max":0,"o":"m 135 -217 b 358 106 288 -126 358 -19 b 194 292 358 225 279 292 b 39 128 99 292 39 225 b 147 -14 39 44 89 -14 b 167 -47 165 -14 168 -28 b 86 -165 164 -87 138 -112 b 135 -217 58 -193 100 -237 z "},"„":{"ha":763,"x_min":0,"x_max":0,"o":"m 135 -217 b 358 106 288 -126 358 -19 b 194 292 358 225 279 292 b 39 128 99 292 39 225 b 147 -14 39 44 89 -14 b 167 -47 165 -14 168 -28 b 86 -165 164 -87 138 -112 b 135 -217 58 -193 100 -237 z m 500 -217 b 724 106 653 -126 724 -19 b 560 292 724 225 644 292 b 404 128 464 292 404 225 b 513 -14 404 44 454 -14 b 532 -47 531 -14 533 -28 b 451 -165 529 -87 503 -112 b 500 -217 424 -193 465 -237 z "},"“":{"ha":736,"x_min":0,"x_max":0,"o":"m 247 1093 b 24 771 94 1003 24 896 b 188 585 24 651 103 585 b 343 749 283 585 343 651 b 235 890 343 832 293 890 b 215 924 217 890 214 904 b 296 1042 218 964 244 989 b 247 1093 324 1069 282 1114 z m 613 1093 b 389 771 460 1003 389 896 b 553 585 389 651 468 585 b 708 749 649 585 708 651 b 600 890 708 832 658 890 b 581 924 582 890 579 904 b 661 1042 583 964 610 989 b 613 1093 689 1069 647 1114 z "},"”":{"ha":736,"x_min":0,"x_max":0,"o":"m 128 579 b 351 901 281 669 351 776 b 188 1088 351 1021 272 1088 b 32 924 92 1088 32 1021 b 140 782 32 840 82 782 b 160 749 158 782 161 768 b 79 631 157 708 131 683 b 128 579 51 603 93 558 z m 493 579 b 717 901 646 669 717 776 b 553 1088 717 1021 638 1088 b 397 924 457 1088 397 1021 b 506 782 397 840 447 782 b 525 749 524 782 526 768 b 444 631 522 708 496 683 b 493 579 417 603 458 558 z "},"‘":{"ha":371,"x_min":0,"x_max":0,"o":"m 247 1093 b 24 771 94 1003 24 896 b 188 585 24 651 103 585 b 343 749 283 585 343 651 b 235 890 343 832 293 890 b 215 924 217 890 214 904 b 296 1042 218 964 244 989 b 247 1093 324 1069 282 1114 z "},"’":{"ha":371,"x_min":0,"x_max":0,"o":"m 128 579 b 351 901 281 669 351 776 b 188 1088 351 1021 272 1088 b 32 924 92 1088 32 1021 b 140 782 32 840 82 782 b 160 749 158 782 161 768 b 79 631 157 708 131 683 b 128 579 51 603 93 558 z "},"«":{"ha":751,"x_min":0,"x_max":0,"o":"m 238 385 b 375 669 326 454 375 576 b 296 686 375 697 314 711 b 51 458 224 588 129 522 b 51 324 28 439 26 347 b 285 135 124 256 207 228 b 375 143 314 99 375 117 b 238 385 375 203 319 317 z m 568 385 b 706 669 657 454 706 576 b 626 686 706 697 644 711 b 382 458 554 588 460 522 b 382 324 358 439 357 347 b 615 135 454 256 538 228 b 706 143 644 99 706 117 b 568 385 706 203 650 317 z "},"»":{"ha":744,"x_min":0,"x_max":0,"o":"m 369 458 b 125 686 292 522 197 588 b 46 669 107 711 46 697 b 183 385 46 576 94 454 b 46 143 101 317 46 203 b 136 135 46 117 107 99 b 369 324 214 228 297 256 b 369 458 394 347 393 439 z m 693 458 b 449 686 615 522 521 588 b 369 669 431 711 369 697 b 507 385 369 576 418 454 b 369 143 425 317 369 203 b 460 135 369 117 431 99 b 693 324 538 228 621 256 b 693 458 718 347 717 439 z "},"‹":{"ha":421,"x_min":0,"x_max":0,"o":"m 238 385 b 375 669 326 454 375 576 b 296 686 375 697 314 711 b 51 458 224 588 129 522 b 51 324 28 439 26 347 b 285 135 124 256 207 228 b 375 143 314 99 375 117 b 238 385 375 203 319 317 z "},"›":{"ha":421,"x_min":0,"x_max":0,"o":"m 369 458 b 125 686 292 522 197 588 b 46 669 107 711 46 697 b 183 393 46 576 94 460 b 46 143 101 324 46 203 b 136 135 46 117 107 99 b 369 324 214 228 297 256 b 369 458 394 347 393 439 z "},"\"":{"ha":682,"x_min":0,"x_max":0,"o":"m 97 564 b 239 564 117 506 215 497 b 306 863 257 615 306 775 b 168 1000 306 957 238 1000 b 32 863 99 1000 32 957 b 97 564 32 775 81 615 z m 442 564 b 583 564 461 506 560 497 b 650 863 601 615 650 775 b 513 1000 650 957 582 1000 b 376 863 443 1000 376 957 b 442 564 376 775 425 615 z "},"'":{"ha":338,"x_min":0,"x_max":0,"o":"m 97 564 b 239 564 117 506 215 497 b 306 863 257 615 306 775 b 168 1000 306 957 238 1000 b 32 863 99 1000 32 957 b 97 564 32 775 81 615 z "}," ":{"ha":261,"x_min":0,"x_max":0,"o":""},"¢":{"ha":765,"x_min":0,"x_max":0,"o":"m 728 381 b 658 400 728 413 678 422 b 514 332 631 368 588 332 b 311 639 382 332 311 463 b 369 786 311 721 328 785 b 599 572 461 789 447 572 b 713 678 669 572 713 622 b 468 872 713 782 604 857 l 468 969 b 439 1006 468 990 457 1006 l 396 1006 b 367 969 378 1006 367 990 l 367 872 b 43 496 185 854 43 724 b 367 128 43 332 161 154 l 367 35 b 396 -3 367 13 378 -3 l 439 -3 b 468 35 457 -3 468 13 l 468 128 b 728 381 653 146 728 274 z "},"¤":{"ha":839,"x_min":0,"x_max":0,"o":"m 761 242 l 692 311 b 750 481 729 358 750 418 b 690 650 750 543 729 603 l 761 721 b 765 771 776 738 779 758 l 732 804 b 681 800 718 819 697 817 l 603 722 b 414 769 551 751 486 769 b 235 725 346 769 285 753 l 161 800 b 110 806 143 817 124 819 l 76 771 b 81 721 63 758 64 738 l 149 653 b 89 481 110 604 89 544 b 147 308 89 417 110 357 l 81 242 b 76 192 64 225 63 204 l 110 157 b 161 163 124 143 143 146 l 232 235 b 414 189 282 206 344 189 b 607 238 489 189 554 206 l 681 163 b 732 157 699 146 718 143 l 765 192 b 761 242 779 204 778 225 z m 422 340 b 285 481 340 340 285 396 b 422 617 285 563 340 617 b 556 481 503 617 556 563 b 422 340 556 396 503 340 z "},"$":{"ha":817,"x_min":0,"x_max":0,"o":"m 776 294 b 356 799 776 653 356 506 b 408 899 356 863 371 899 b 625 651 486 899 458 651 b 750 783 703 651 750 704 b 454 979 750 883 638 965 l 454 1053 b 425 1089 454 1074 443 1089 l 382 1089 b 353 1053 364 1089 353 1074 l 353 981 b 47 688 169 965 47 846 b 479 192 47 350 479 433 b 418 81 479 111 458 81 b 165 325 344 81 353 325 b 44 190 104 325 44 282 b 338 -11 44 89 156 4 l 338 -146 b 367 -183 338 -168 349 -183 l 410 -183 b 439 -146 428 -183 439 -168 l 439 -12 b 776 294 654 1 776 121 z "},"€":{"ha":982,"x_min":0,"x_max":0,"o":"m 850 314 b 636 244 785 268 711 244 b 460 375 564 244 500 288 l 674 375 b 710 401 694 375 710 385 l 710 440 b 674 467 710 456 694 467 l 429 467 b 418 531 425 486 421 508 l 714 531 b 750 556 735 531 750 540 l 750 596 b 714 622 750 611 735 622 l 413 622 l 413 633 b 538 878 413 779 460 878 b 814 672 682 878 636 672 b 931 789 890 672 931 733 b 590 988 931 926 769 988 b 151 622 376 988 200 842 l 71 622 b 35 596 50 622 35 611 l 35 556 b 71 531 35 540 50 531 l 139 531 b 138 496 138 519 138 507 b 139 467 138 486 138 476 l 71 467 b 35 440 50 467 35 456 l 35 401 b 71 375 35 385 50 375 l 150 375 b 590 -11 190 174 333 -11 b 931 274 808 -11 931 153 b 850 314 931 321 883 338 z "},"£":{"ha":963,"x_min":0,"x_max":0,"o":"m 851 256 b 640 185 832 228 738 185 b 494 206 589 185 542 194 b 510 297 504 238 510 269 b 503 390 510 331 507 361 l 667 390 b 703 415 692 390 703 400 l 703 483 b 667 510 703 499 692 510 l 475 510 b 435 763 456 583 435 658 b 510 904 435 851 464 904 b 751 699 624 904 561 699 b 868 815 828 699 868 760 b 531 1014 868 953 707 1014 b 140 731 313 1014 140 917 b 228 510 140 642 185 576 l 107 510 b 71 483 86 510 71 499 l 71 415 b 107 390 71 400 86 390 l 296 390 b 315 288 307 360 315 325 b 314 258 315 278 315 268 b 208 272 279 267 244 272 b 49 131 110 272 49 213 b 204 -14 49 53 97 -14 b 388 47 281 -14 340 11 b 601 -24 449 8 521 -24 b 928 238 828 -24 928 121 b 851 256 928 281 875 288 z m 197 74 b 140 122 167 74 140 93 b 188 167 140 154 160 167 b 279 122 211 167 242 147 b 197 74 258 90 232 74 z "},"¥":{"ha":1035,"x_min":0,"x_max":0,"o":"m 974 986 l 749 986 b 714 957 728 986 714 975 l 714 951 b 776 819 714 908 813 888 l 617 521 l 456 819 b 519 951 421 883 519 908 l 519 957 b 485 986 519 975 506 986 l 61 986 b 26 957 40 986 26 975 l 26 951 b 126 819 26 908 81 893 l 333 483 l 196 483 b 160 457 175 483 160 472 l 160 417 b 196 392 160 401 175 392 l 390 392 l 397 381 l 397 328 l 217 328 b 181 301 196 328 181 317 l 181 263 b 217 236 181 246 196 236 l 397 236 l 397 167 b 340 35 397 99 340 78 l 340 29 b 375 0 340 11 354 0 l 715 0 b 750 29 736 0 750 11 l 750 35 b 686 167 750 78 686 99 l 686 236 l 819 236 b 856 263 840 236 856 246 l 856 301 b 819 328 856 317 840 328 l 686 328 l 686 392 l 839 392 b 875 417 860 392 875 401 l 875 457 b 839 483 875 472 860 483 l 728 483 l 911 819 b 1008 951 954 899 1008 908 l 1008 957 b 974 986 1008 975 994 986 z "},"+":{"ha":833,"x_min":0,"x_max":0,"o":"m 358 83 l 475 83 b 503 122 490 83 503 99 l 503 332 l 711 332 b 749 358 733 332 749 342 l 749 474 b 711 501 750 489 733 501 l 501 500 l 501 708 b 474 747 501 732 490 747 l 358 747 b 332 708 343 747 332 732 l 332 500 l 124 500 b 86 472 101 500 86 489 l 85 358 b 124 331 86 343 101 331 l 332 331 l 333 122 b 358 83 333 99 343 83 z "},"−":{"ha":833,"x_min":0,"x_max":0,"o":"m 138 328 l 697 328 b 733 356 718 328 733 339 l 733 474 b 697 503 733 490 718 503 l 138 503 b 101 474 117 503 101 490 l 101 356 b 138 328 101 339 117 328 z "},"×":{"ha":833,"x_min":0,"x_max":0,"o":"m 222 140 b 269 149 235 129 253 132 l 417 296 l 565 149 b 611 140 582 132 599 128 l 692 221 b 685 268 704 232 701 251 l 536 417 l 683 564 b 692 610 700 581 704 597 l 611 690 b 564 683 600 703 581 700 l 417 535 l 269 682 b 222 689 253 699 235 701 l 142 610 b 150 563 131 597 133 579 l 297 415 l 150 268 b 143 221 133 251 131 233 z "},"÷":{"ha":833,"x_min":0,"x_max":0,"o":"m 414 575 b 574 715 510 575 574 638 b 414 854 574 793 510 854 b 254 715 318 854 254 793 b 414 575 254 638 318 575 z m 138 328 l 697 328 b 733 356 718 328 733 339 l 733 474 b 697 503 733 490 718 503 l 138 503 b 101 474 117 503 101 490 l 101 356 b 138 328 101 339 117 328 z m 414 -14 b 574 126 510 -14 574 49 b 414 265 574 204 510 265 b 254 126 318 265 254 204 b 414 -14 254 49 318 -14 z "},"=":{"ha":833,"x_min":0,"x_max":0,"o":"m 136 453 l 696 453 b 732 481 717 453 732 464 l 732 599 b 696 628 732 615 717 628 l 136 628 b 100 599 115 628 100 615 l 100 481 b 136 453 100 464 115 453 z m 136 179 l 696 179 b 732 207 717 179 732 190 l 732 325 b 696 354 732 342 717 354 l 136 354 b 100 325 115 354 100 342 l 100 207 b 136 179 100 190 115 179 z "},"≠":{"ha":833,"x_min":0,"x_max":0,"o":"m 696 453 b 732 481 717 453 732 464 l 732 599 b 696 628 732 615 717 628 l 610 628 l 657 719 b 647 757 665 735 661 750 l 604 778 b 564 761 590 785 572 778 l 494 628 l 136 628 b 100 599 115 628 100 615 l 100 481 b 136 453 100 464 115 453 l 404 453 l 353 354 l 136 354 b 100 325 115 354 100 342 l 100 207 b 136 179 100 190 115 179 l 261 179 l 203 67 b 213 28 194 51 199 35 l 261 6 b 293 17 274 0 286 3 l 378 179 l 696 179 b 732 207 717 179 732 190 l 732 325 b 696 354 732 342 717 354 l 468 354 l 519 453 z "},">":{"ha":833,"x_min":0,"x_max":0,"o":"m 644 532 l 219 708 b 172 686 188 722 172 701 l 172 531 b 208 492 172 513 186 499 l 536 389 l 208 253 b 172 213 186 243 172 229 l 172 51 b 219 32 172 36 188 15 l 647 249 b 685 303 672 261 685 276 l 685 479 b 644 532 685 507 671 521 z "},"<":{"ha":833,"x_min":0,"x_max":0,"o":"m 661 533 l 661 686 b 614 708 661 701 646 722 l 189 532 b 149 479 163 521 149 507 l 149 306 b 186 251 149 279 161 264 l 614 35 b 661 54 646 18 661 39 l 661 215 b 625 256 661 232 647 246 l 310 392 l 625 494 b 661 533 647 501 661 515 z "},"±":{"ha":833,"x_min":0,"x_max":0,"o":"m 358 236 l 475 236 b 503 274 489 235 503 250 l 503 483 l 711 483 b 749 510 733 483 749 492 l 749 625 b 711 653 749 642 733 653 l 501 651 l 501 860 b 474 897 501 883 489 897 l 358 899 b 332 860 344 897 332 883 l 332 651 l 124 651 b 86 624 101 651 86 642 l 85 510 b 124 482 86 494 101 482 l 332 482 l 333 274 b 358 236 333 250 342 236 z m 124 0 l 711 0 b 749 25 733 0 749 10 l 749 140 b 711 168 749 157 733 168 l 124 168 b 86 140 101 168 86 157 l 86 25 b 124 0 86 10 101 0 z "},"≈":{"ha":833,"x_min":0,"x_max":0,"o":"m 271 681 b 74 475 133 681 79 557 b 97 440 72 453 81 440 l 129 440 b 171 467 156 440 160 449 b 258 507 188 493 221 507 b 557 425 360 507 442 425 b 768 632 663 425 747 493 b 743 664 771 650 764 664 l 706 664 b 667 642 686 664 676 654 b 572 603 651 622 619 603 b 271 681 475 603 381 681 z m 271 371 b 74 165 133 371 79 247 b 97 131 72 143 81 131 l 129 131 b 171 157 156 131 160 139 b 258 197 188 183 221 197 b 557 115 360 197 442 115 b 768 322 663 115 747 183 b 743 354 771 340 764 354 l 706 354 b 667 332 686 354 676 344 b 572 293 651 313 619 293 b 271 371 475 293 381 371 z "},"~":{"ha":833,"x_min":0,"x_max":0,"o":"m 272 561 b 75 356 135 561 81 438 b 99 321 74 333 82 321 l 131 321 b 172 347 157 321 161 329 b 260 388 189 374 222 388 b 558 306 361 388 443 306 b 769 513 664 306 749 374 b 744 544 772 531 765 544 l 707 544 b 668 522 688 544 678 535 b 574 483 653 503 621 483 b 272 561 476 483 382 561 z "},"^":{"ha":833,"x_min":0,"x_max":0,"o":"m 678 764 l 506 983 b 433 1013 488 1007 463 1013 l 379 1013 b 307 982 350 1013 326 1010 l 154 764 b 211 685 110 701 181 660 l 400 835 l 614 685 b 678 764 672 644 719 711 z "},"%":{"ha":1256,"x_min":0,"x_max":0,"o":"m 300 474 b 569 733 440 474 569 574 b 300 1000 569 893 447 1000 b 32 733 140 1000 32 892 b 300 474 32 574 156 474 z m 332 0 l 426 0 b 465 24 444 0 457 7 l 935 946 b 911 986 946 968 936 986 l 811 986 b 781 963 793 986 789 979 l 308 40 b 332 0 297 18 306 0 z m 326 539 b 214 825 260 539 214 703 b 260 933 214 881 224 933 b 372 638 328 933 372 749 b 326 539 372 585 363 539 z m 954 -14 b 1224 246 1094 -14 1224 86 b 954 513 1224 406 1101 513 b 686 246 794 513 686 404 b 954 -14 686 86 810 -14 z m 981 51 b 868 338 914 51 868 215 b 914 446 868 393 878 446 b 1026 150 982 446 1026 261 b 981 51 1026 97 1017 51 z "},"‰":{"ha":1825,"x_min":0,"x_max":0,"o":"m 300 474 b 569 733 440 474 569 574 b 300 1000 569 893 447 1000 b 32 733 140 1000 32 892 b 300 474 32 574 156 474 z m 332 0 l 426 0 b 465 24 444 0 457 7 l 935 946 b 911 986 946 968 936 986 l 811 986 b 781 963 793 986 789 979 l 308 40 b 332 0 297 18 306 0 z m 326 539 b 214 825 260 539 214 703 b 260 933 214 881 224 933 b 372 638 328 933 372 749 b 326 539 372 585 363 539 z m 954 -14 b 1224 246 1094 -14 1224 86 b 954 513 1224 406 1101 513 b 686 246 794 513 686 404 b 954 -14 686 86 810 -14 z m 1524 -14 b 1793 246 1664 -14 1793 86 b 1524 513 1793 406 1671 513 b 1256 246 1364 513 1256 404 b 1524 -14 1256 86 1379 -14 z m 981 51 b 868 338 914 51 868 215 b 914 446 868 393 878 446 b 1026 150 982 446 1026 261 b 981 51 1026 97 1017 51 z m 1550 51 b 1438 338 1483 51 1438 215 b 1483 446 1438 393 1447 446 b 1596 150 1551 446 1596 261 b 1550 51 1596 97 1586 51 z "},"":{"ha":2015,"x_min":0,"x_max":0,"o":"m 960 810 b 1044 725 960 763 997 725 b 1131 810 1093 725 1131 763 b 1044 896 1131 858 1093 896 b 960 810 997 896 960 858 z m 304 375 b 290 811 303 618 290 811 l 151 811 b 139 375 151 811 139 618 z m 964 375 l 1128 375 b 1114 707 1128 618 1114 707 l 867 707 l 865 731 l 700 689 l 700 579 l 731 579 b 725 458 731 568 725 493 b 842 367 725 399 764 367 b 933 388 919 367 933 388 l 933 490 b 908 483 933 490 928 483 b 888 489 893 483 888 489 l 883 579 l 968 579 b 964 375 965 528 964 461 z m 456 368 b 560 460 522 368 549 403 l 571 375 l 686 375 l 686 551 b 518 714 685 654 632 714 b 328 525 383 714 328 644 b 456 368 328 418 376 368 z m 1514 375 l 1510 567 b 1404 714 1507 671 1481 714 b 1292 601 1306 714 1292 611 b 1283 707 1292 644 1283 707 l 1172 707 b 1158 375 1172 707 1158 618 l 1317 375 b 1313 508 1317 440 1313 472 b 1338 544 1313 533 1319 544 b 1358 508 1354 544 1358 533 b 1356 375 1358 472 1356 440 z m 1876 533 b 1706 714 1876 631 1847 714 b 1536 533 1572 714 1536 631 b 1704 368 1536 440 1588 368 b 1876 533 1824 368 1876 436 z m 542 521 b 510 479 542 494 529 479 b 478 521 488 479 478 494 b 510 557 478 547 488 557 b 542 521 529 557 542 547 z m 1738 521 b 1706 479 1738 494 1725 479 b 1676 521 1686 479 1676 494 b 1706 557 1676 547 1686 557 b 1738 521 1725 557 1738 547 z m 594 331 l 594 165 b 571 128 594 138 589 128 b 551 165 556 128 551 138 l 551 331 l 306 332 l 307 356 l 144 315 l 144 204 l 169 204 b 165 82 168 185 165 118 b 279 -7 165 25 200 -7 b 372 14 358 -7 372 14 l 372 115 b 347 108 372 115 367 108 b 326 114 332 108 326 114 l 322 204 l 399 204 l 399 186 b 524 71 399 107 442 71 b 592 86 574 71 592 86 b 515 47 592 86 590 47 b 419 69 447 47 419 69 l 419 -46 b 546 -69 419 -46 447 -69 b 753 126 693 -69 753 -8 b 739 331 753 247 739 331 z m 1018 338 b 907 225 926 338 908 235 b 897 331 907 258 897 331 l 789 331 b 775 -61 789 331 775 176 l 940 -61 b 939 -7 940 -25 939 -7 b 1129 182 1068 -7 1129 56 b 1018 338 1129 283 1086 338 z m 1486 179 b 1326 338 1486 279 1426 338 b 1151 156 1214 338 1151 275 b 1347 -7 1151 56 1217 -7 b 1456 15 1428 -7 1456 15 l 1456 119 b 1378 103 1456 119 1429 103 b 1310 128 1322 103 1310 128 l 1482 128 b 1486 179 1482 128 1486 144 z m 1358 151 l 1303 151 b 1335 189 1303 176 1315 189 b 1358 151 1353 189 1361 176 z m 931 100 b 924 139 931 100 924 118 b 954 183 924 172 935 183 b 982 153 971 183 982 172 b 931 100 982 103 931 100 z m 1493 18 b 1525 49 1493 36 1507 49 b 1556 18 1542 49 1556 36 b 1525 -14 1556 0 1542 -14 b 1493 18 1507 -14 1493 0 z m 1500 18 b 1525 -7 1500 4 1511 -7 b 1549 18 1538 -7 1549 4 b 1525 43 1549 32 1538 43 b 1500 18 1511 43 1500 32 z m 1539 3 l 1531 3 l 1525 15 l 1518 15 l 1518 3 l 1511 3 l 1511 35 l 1526 35 b 1540 25 1535 35 1540 33 b 1531 15 1540 18 1536 15 z m 1526 21 b 1533 26 1531 21 1533 22 b 1525 29 1533 29 1528 29 l 1518 29 l 1518 21 z "},"@":{"ha":1261,"x_min":0,"x_max":0,"o":"m 674 1018 b 29 428 258 1018 29 708 b 546 -75 29 151 254 -75 b 753 -36 626 -75 697 -61 b 793 6 771 -28 785 -18 l 807 43 b 775 79 817 71 808 92 b 568 39 697 51 628 39 b 193 424 350 39 193 194 b 642 901 193 697 415 901 b 1093 521 901 901 1093 781 b 960 310 1093 408 1050 310 b 913 397 919 310 903 343 l 967 703 b 939 736 971 724 960 736 l 806 736 b 774 708 788 736 776 728 l 772 704 b 642 753 742 736 699 753 b 324 428 479 753 324 644 b 557 193 324 271 446 193 b 735 283 646 193 701 232 b 921 193 774 229 847 193 b 1257 522 1144 193 1257 364 b 674 1018 1257 810 1015 1018 z m 615 267 b 576 364 589 267 574 306 b 708 679 586 553 656 679 b 738 563 739 679 742 638 l 707 394 l 707 392 b 615 267 694 322 649 267 z "},"&":{"ha":1081,"x_min":0,"x_max":0,"o":"m 1035 150 l 997 150 b 872 236 974 150 936 175 b 982 625 946 356 982 500 b 811 626 982 717 811 715 b 761 349 811 518 792 425 l 568 544 b 779 782 660 576 779 650 b 482 999 779 846 739 999 b 154 744 253 999 154 878 b 244 531 154 661 190 596 b 38 258 144 476 38 388 b 439 -14 38 106 164 -14 b 689 53 536 -14 619 11 b 875 -14 733 13 782 -14 b 1078 107 981 -14 1078 57 l 1078 118 b 1035 150 1078 140 1061 150 z m 475 899 b 539 786 538 899 539 838 b 474 644 539 743 514 681 b 417 821 435 696 417 749 b 475 899 417 861 438 899 z m 338 253 b 367 396 338 306 350 354 l 607 138 b 489 93 567 108 525 93 b 338 253 378 93 338 174 z "},"¶":{"ha":1017,"x_min":0,"x_max":0,"o":"m 550 -319 b 903 118 754 -315 903 -160 l 903 819 b 967 951 903 888 967 908 l 967 957 b 932 986 967 975 953 986 l 342 986 b 32 654 172 986 32 853 b 342 306 32 443 172 304 l 515 307 b 546 338 535 307 546 318 l 546 867 l 656 867 l 656 -21 b 564 -210 656 -182 615 -210 b 301 79 442 -210 510 79 b 175 -58 225 79 175 24 b 550 -319 175 -164 307 -325 z "},"§":{"ha":917,"x_min":0,"x_max":0,"o":"m 772 218 b 871 397 835 274 871 344 b 347 899 871 764 347 596 b 433 989 347 949 374 989 b 733 714 571 989 535 714 b 863 838 819 714 863 763 b 446 1096 863 985 671 1096 b 68 814 228 1096 68 983 b 149 631 68 729 100 672 b 50 461 96 597 51 525 b 585 -28 43 89 585 203 b 489 -107 585 -76 549 -107 b 171 146 304 -107 336 146 b 43 25 85 146 43 97 b 482 -217 43 -135 221 -217 b 864 56 710 -217 864 -101 b 772 218 864 131 828 181 z m 321 496 b 336 540 321 510 325 525 b 604 356 471 497 604 469 b 593 299 604 333 601 318 b 321 496 457 344 321 382 z "},"©":{"ha":1204,"x_min":0,"x_max":0,"o":"m 603 -86 b 1164 476 913 -86 1164 167 b 603 1038 1164 785 911 1038 b 40 476 293 1038 40 786 b 603 -86 40 167 293 -86 z m 603 38 b 194 476 375 38 194 235 b 603 914 194 717 376 914 b 1010 476 829 914 1010 717 b 603 38 1010 236 829 38 z m 608 161 b 896 390 781 161 896 257 b 840 408 896 422 860 431 b 703 354 813 376 767 354 b 528 565 585 354 528 444 b 593 711 528 651 544 711 b 786 497 683 711 643 497 b 897 585 857 497 897 540 b 613 786 897 699 758 785 b 288 476 425 788 288 650 b 608 161 288 308 422 161 z "},"®":{"ha":1204,"x_min":0,"x_max":0,"o":"m 603 1038 b 40 476 293 1038 40 786 b 603 -86 40 167 293 -86 b 1164 476 913 -86 1164 167 b 603 1038 1164 785 911 1038 z m 603 38 b 194 476 375 38 194 235 b 603 914 194 717 376 914 b 1010 476 829 914 1010 717 b 603 38 1010 236 829 38 z m 843 315 l 772 444 b 875 596 843 478 875 540 b 615 779 875 717 779 779 l 361 779 b 342 763 350 779 342 774 l 342 760 b 375 683 342 735 375 722 l 375 318 b 342 242 375 279 342 267 l 342 225 b 361 208 342 215 350 208 l 579 208 b 600 225 592 208 600 215 l 600 242 b 563 318 600 267 563 279 l 563 419 l 601 419 l 656 315 b 640 242 682 263 640 267 l 640 225 b 660 208 640 215 649 208 l 886 208 b 906 231 899 208 906 221 l 906 242 b 843 315 906 267 875 256 z m 563 539 l 563 665 b 599 710 563 690 578 710 l 603 710 b 658 581 635 710 658 660 b 611 488 658 519 631 488 l 603 488 b 563 539 575 488 563 506 z "},"™":{"ha":1101,"x_min":0,"x_max":0,"o":"m 463 849 l 450 964 b 428 985 449 979 442 985 l 74 985 b 50 964 58 985 51 979 l 38 849 b 56 829 36 838 43 829 l 68 829 b 154 911 100 829 108 911 l 175 911 l 175 614 b 147 554 175 583 147 574 l 147 553 b 163 539 147 544 153 539 l 339 539 b 354 553 347 539 354 544 l 354 554 b 325 614 354 574 325 583 l 325 911 l 347 911 b 433 829 393 911 401 829 l 446 829 b 463 849 457 829 464 838 z m 1026 614 l 971 910 b 997 969 965 940 997 950 l 997 972 b 981 985 997 981 990 985 l 831 985 b 794 960 813 985 800 976 l 743 796 l 686 961 b 650 985 681 978 668 985 l 508 985 b 493 972 499 985 493 981 l 493 969 b 518 910 493 950 522 940 l 474 614 b 447 554 469 583 447 574 l 447 553 b 464 539 447 544 454 539 l 593 539 b 608 553 603 539 608 544 l 608 554 b 586 614 608 574 582 583 l 610 778 l 699 558 b 726 539 704 546 713 539 b 751 558 740 539 747 546 l 839 807 l 872 614 b 850 554 878 585 850 574 l 850 553 b 865 539 850 544 856 539 l 1038 539 b 1053 553 1046 539 1053 544 l 1053 554 b 1026 614 1053 574 1032 583 z "},"°":{"ha":572,"x_min":0,"x_max":0,"o":"m 285 521 b 547 764 442 521 547 629 b 286 993 547 890 443 993 b 25 751 129 993 25 885 b 285 521 25 624 129 521 z m 286 593 b 185 758 225 593 185 668 b 286 917 185 844 225 917 b 388 758 347 917 388 844 b 286 593 388 668 347 593 z "},"|":{"ha":347,"x_min":0,"x_max":0,"o":"m 113 -125 l 232 -125 b 261 -89 247 -126 261 -111 l 260 950 b 231 986 260 972 247 986 l 114 988 b 86 950 99 986 86 972 l 86 -89 b 113 -125 86 -111 96 -125 z "},"¦":{"ha":347,"x_min":0,"x_max":0,"o":"m 113 506 l 232 506 b 261 542 247 504 261 519 l 260 950 b 231 986 260 972 247 986 l 114 986 b 86 949 99 985 86 971 l 86 542 b 113 506 86 519 96 506 z m 113 -125 l 232 -125 b 261 -89 247 -126 261 -111 l 260 333 b 231 369 260 356 247 369 l 114 369 b 86 332 99 368 86 354 l 86 -89 b 113 -125 86 -111 96 -125 z "},"†":{"ha":826,"x_min":0,"x_max":0,"o":"m 728 750 l 460 715 l 508 1058 b 311 1058 525 1181 296 1183 l 360 717 l 92 750 b 92 583 3 760 4 574 l 364 618 l 333 -58 b 485 -58 329 -151 489 -156 l 454 618 l 728 583 b 728 750 825 572 826 761 z "},"‡":{"ha":846,"x_min":0,"x_max":0,"o":"m 738 446 l 474 413 l 464 618 l 738 583 b 738 750 835 572 836 761 l 469 715 l 518 1058 b 321 1058 535 1181 306 1183 l 369 717 l 101 750 b 101 583 13 760 14 574 l 374 618 l 365 413 l 101 446 b 101 279 13 457 14 268 l 360 313 l 343 -58 b 494 -58 339 -151 499 -156 l 478 313 l 738 279 b 738 446 835 267 836 458 z "},"̈":{"ha":0,"x_min":0,"x_max":0,"o":"m -604 743 b -447 882 -510 743 -447 804 b -604 1019 -447 960 -510 1019 b -762 882 -699 1019 -762 960 b -604 743 -762 804 -699 743 z m -236 743 b -78 882 -142 743 -78 804 b -236 1019 -78 960 -142 1019 b -393 882 -331 1019 -393 960 b -236 743 -393 804 -331 743 z "},"̇":{"ha":0,"x_min":0,"x_max":0,"o":"m -217 735 b -40 889 -111 735 -40 803 b -217 1042 -40 975 -111 1042 b -393 889 -322 1042 -393 975 b -217 735 -393 803 -322 735 z "},"̀":{"ha":0,"x_min":0,"x_max":0,"o":"m -347 744 b -285 765 -322 739 -297 746 b -294 829 -271 788 -276 814 l -531 1019 b -622 1000 -569 1050 -604 1038 l -674 893 b -637 810 -692 856 -682 819 z "},"́":{"ha":0,"x_min":0,"x_max":0,"o":"m -587 744 l -297 810 b -261 893 -253 819 -243 856 l -312 1000 b -404 1019 -331 1038 -365 1050 l -640 829 b -650 765 -658 814 -664 788 b -587 744 -637 746 -612 739 z "},"̋":{"ha":0,"x_min":0,"x_max":0,"o":"m -737 731 b -689 735 -724 719 -707 722 l -446 906 b -447 997 -408 931 -414 967 l -503 1050 b -593 1032 -535 1081 -568 1075 l -735 781 b -737 731 -746 760 -749 742 z m -428 731 b -379 735 -415 719 -397 722 l -136 906 b -137 997 -100 931 -104 967 l -193 1050 b -283 1032 -225 1081 -258 1075 l -425 781 b -428 731 -436 760 -440 743 z "},"̂":{"ha":0,"x_min":0,"x_max":0,"o":"m -24 819 l -196 983 b -268 1013 -217 1004 -239 1013 l -322 1013 b -394 982 -351 1013 -372 1007 l -547 819 b -490 740 -599 764 -526 721 l -301 843 l -87 740 b -24 819 -24 710 24 772 z "},"̌":{"ha":0,"x_min":0,"x_max":0,"o":"m -83 994 l -282 894 l -485 994 b -539 928 -515 1010 -569 961 l -393 772 b -321 742 -371 749 -350 742 l -258 742 b -186 771 -229 742 -208 749 l -29 928 b -83 994 -1 956 -49 1013 z "},"̆":{"ha":0,"x_min":0,"x_max":0,"o":"m -294 742 b -43 936 -147 742 -57 828 b -133 968 -39 979 -117 992 b -294 901 -157 928 -224 901 b -456 968 -362 901 -432 928 b -546 936 -475 996 -551 986 b -294 742 -532 828 -436 742 z "},"̊":{"ha":0,"x_min":0,"x_max":0,"o":"m -539 724 b -318 890 -404 724 -318 789 b -537 1043 -318 981 -412 1043 b -757 878 -667 1043 -757 982 b -539 724 -757 790 -664 724 z m -537 796 b -597 885 -569 796 -597 829 b -537 967 -597 953 -569 967 b -478 885 -506 967 -478 940 b -537 796 -478 815 -506 796 z "},"̃":{"ha":0,"x_min":0,"x_max":0,"o":"m -578 996 b -750 829 -667 996 -732 917 b -726 796 -754 807 -743 796 l -710 796 b -669 821 -685 796 -685 804 b -619 844 -654 838 -639 844 b -392 778 -549 844 -482 778 b -224 947 -301 778 -242 863 b -249 982 -219 969 -228 982 l -258 982 b -296 961 -278 982 -286 974 b -357 933 -310 943 -322 933 b -578 996 -417 933 -476 996 z "},"̄":{"ha":0,"x_min":0,"x_max":0,"o":"m -607 781 l -207 781 b -171 817 -183 781 -171 793 l -171 913 b -207 949 -171 936 -183 949 l -607 949 b -643 913 -631 949 -643 936 l -643 817 b -607 781 -643 793 -631 781 z "},"̒":{"ha":0,"x_min":0,"x_max":0,"o":"m -254 383 b -51 676 -117 465 -51 563 b -200 844 -51 785 -124 844 b -342 696 -287 844 -342 785 b -243 568 -342 621 -296 568 b -226 538 -228 568 -225 556 b -299 431 -228 501 -253 478 b -254 383 -324 406 -286 365 z "},"̦":{"ha":0,"x_min":0,"x_max":0,"o":"m -253 -472 b -58 -193 -119 -394 -58 -301 b -200 -33 -58 -90 -128 -33 b -335 -175 -283 -33 -335 -90 b -242 -297 -335 -246 -292 -297 b -225 -325 -225 -297 -224 -308 b -294 -428 -226 -360 -250 -382 b -253 -472 -318 -451 -282 -490 z "},"̧":{"ha":0,"x_min":0,"x_max":0,"o":"m -340 -68 l -337 0 l -446 0 l -465 -92 b -429 -133 -472 -126 -451 -133 b -347 -181 -400 -133 -347 -144 b -415 -232 -347 -214 -379 -232 b -494 -217 -442 -232 -476 -225 b -496 -304 -526 -201 -540 -283 b -372 -322 -475 -314 -435 -322 b -158 -192 -261 -322 -158 -283 b -340 -68 -158 -99 -253 -65 z "},"̨":{"ha":0,"x_min":0,"x_max":0,"o":"m -328 -322 b -249 -311 -294 -322 -261 -317 b -257 -211 -192 -289 -207 -194 b -278 -215 -265 -214 -269 -215 b -314 -154 -296 -215 -315 -201 b -249 6 -314 -118 -297 -60 l -350 6 b -507 -189 -472 -60 -507 -122 b -328 -322 -507 -294 -406 -322 z "},"̵":{"ha":0,"x_min":0,"x_max":0,"o":"m -535 350 l -81 350 b -54 381 -65 350 -54 360 l -54 428 b -81 454 -54 443 -65 454 l -535 454 b -560 428 -549 454 -560 447 l -560 375 b -535 350 -560 354 -549 350 z "},"̶":{"ha":0,"x_min":0,"x_max":0,"o":"m -965 354 l 64 354 b 101 383 86 354 101 365 l 101 426 b 64 456 101 444 86 456 l -965 456 b -1001 426 -986 456 -1001 444 l -1001 383 b -965 354 -1001 365 -986 354 z "},"̷":{"ha":0,"x_min":0,"x_max":0,"o":"m -649 186 l -172 493 b -162 531 -157 504 -156 519 l -194 582 b -237 589 -203 596 -221 600 l -707 283 b -718 246 -722 274 -729 263 l -683 192 b -649 186 -676 182 -664 176 z "},"̸":{"ha":0,"x_min":0,"x_max":0,"o":"m -772 13 b -739 13 -762 3 -750 3 l -69 657 b -67 696 -57 669 -56 685 l -101 729 b -144 726 -112 740 -131 739 l -808 89 b -811 49 -821 76 -822 60 z "},"´":{"ha":833,"x_min":0,"x_max":0,"o":"m 246 744 l 536 810 b 572 893 581 819 590 856 l 521 1000 b 429 1019 503 1038 468 1050 l 193 829 b 183 765 175 814 169 788 b 246 744 196 746 221 739 z "},"˘":{"ha":833,"x_min":0,"x_max":0,"o":"m 294 742 b 546 936 442 742 532 828 b 456 968 550 979 472 992 b 294 901 432 928 365 901 b 133 968 226 901 157 928 b 43 936 114 996 38 986 b 294 742 57 828 153 742 z "},"ˇ":{"ha":833,"x_min":0,"x_max":0,"o":"m 485 994 l 286 894 l 83 994 b 29 928 53 1010 -1 961 l 175 772 b 247 742 197 749 218 742 l 310 742 b 382 771 339 742 360 749 l 539 928 b 485 994 567 956 519 1013 z "},"¸":{"ha":833,"x_min":0,"x_max":0,"o":"m 493 -68 l 496 0 l 388 0 l 368 -92 b 404 -133 361 -126 382 -133 b 486 -181 433 -133 486 -144 b 418 -232 486 -214 454 -232 b 339 -217 392 -232 357 -225 b 338 -304 307 -201 293 -283 b 461 -322 358 -314 399 -322 b 675 -192 572 -322 675 -283 b 493 -68 675 -99 581 -65 z "},"ˆ":{"ha":833,"x_min":0,"x_max":0,"o":"m 546 819 l 374 983 b 301 1013 353 1004 331 1013 l 247 1013 b 175 982 218 1013 197 1007 l 22 819 b 79 740 -29 764 43 721 l 268 843 l 482 740 b 546 819 546 710 593 772 z "},"¨":{"ha":833,"x_min":0,"x_max":0,"o":"m 229 743 b 386 882 324 743 386 804 b 229 1019 386 960 324 1019 b 71 882 135 1019 71 960 b 229 743 71 804 135 743 z m 597 743 b 756 882 692 743 756 804 b 597 1019 756 960 692 1019 b 440 882 503 1019 440 960 b 597 743 440 804 503 743 z "},"˙":{"ha":833,"x_min":0,"x_max":0,"o":"m 211 735 b 388 889 317 735 388 803 b 211 1042 388 975 317 1042 b 35 889 106 1042 35 975 b 211 735 35 803 106 735 z "},"`":{"ha":833,"x_min":0,"x_max":0,"o":"m 486 744 b 549 765 511 739 536 746 b 539 829 563 788 557 814 l 303 1019 b 211 1000 264 1050 229 1038 l 160 893 b 196 810 142 856 151 819 z "},"˝":{"ha":833,"x_min":0,"x_max":0,"o":"m 96 731 b 144 735 110 719 126 722 l 388 906 b 386 997 425 931 419 967 l 331 1050 b 240 1032 299 1081 265 1075 l 99 781 b 96 731 88 760 85 742 z m 406 731 b 454 735 418 719 436 722 l 697 906 b 696 997 733 931 729 967 l 640 1050 b 550 1032 608 1081 575 1075 l 408 781 b 406 731 397 760 393 743 z "},"¯":{"ha":833,"x_min":0,"x_max":0,"o":"m 226 794 l 626 794 b 663 831 650 794 663 807 l 663 926 b 626 963 663 950 650 963 l 226 963 b 190 926 203 963 190 950 l 190 831 b 226 794 190 807 203 794 z "},"˛":{"ha":833,"x_min":0,"x_max":0,"o":"m 506 -322 b 585 -311 539 -322 572 -317 b 576 -211 642 -289 626 -194 b 556 -215 568 -214 564 -215 b 519 -154 538 -215 518 -201 b 585 6 519 -118 536 -60 l 483 6 b 326 -189 361 -60 326 -122 b 506 -322 326 -294 428 -322 z "},"˚":{"ha":833,"x_min":0,"x_max":0,"o":"m 294 724 b 515 890 429 724 515 789 b 296 1043 515 981 421 1043 b 76 878 167 1043 76 982 b 294 724 76 790 169 724 z m 296 796 b 236 885 264 796 236 829 b 296 967 236 953 264 967 b 356 885 328 967 356 940 b 296 796 356 815 328 796 z "},"˜":{"ha":833,"x_min":0,"x_max":0,"o":"m 256 996 b 83 829 167 996 101 917 b 107 796 79 807 90 796 l 124 796 b 164 821 149 796 149 804 b 214 844 179 838 194 844 b 442 778 285 844 351 778 b 610 947 532 778 592 863 b 585 982 614 969 606 982 l 575 982 b 538 961 556 982 547 974 b 476 933 524 943 511 933 b 256 996 417 933 357 996 z "}}}
